<svg width="24" height="24" viewBox="0 0 24 24" fill="none" xmlns="http://www.w3.org/2000/svg">
    <path
        d="M12.2871 5H6.12109C5.82376 5 5.53861 5.11811 5.32836 5.32836C5.11811 5.53861 5 5.82376 5 6.12109V18.4531C5 18.7505 5.11811 19.0356 5.32836 19.2459C5.53861 19.4561 5.82376 19.5742 6.12109 19.5742H18.4531C18.7505 19.5742 19.0356 19.4561 19.2459 19.2459C19.4561 19.0356 19.5742 18.7505 19.5742 18.4531V12.2871"
        stroke="currentColor" stroke-linecap="round" stroke-linejoin="round" />
    <path
        d="M12.2871 5H6.12109C5.82376 5 5.53861 5.11811 5.32836 5.32836C5.11811 5.53861 5 5.82376 5 6.12109V18.4531C5 18.7505 5.11811 19.0356 5.32836 19.2459C5.53861 19.4561 5.82376 19.5742 6.12109 19.5742H18.4531C18.7505 19.5742 19.0356 19.4561 19.2459 19.2459C19.4561 19.0356 19.5742 18.7505 19.5742 18.4531V12.2871"
        stroke="currentColor" stroke-opacity="0.2" stroke-linecap="round" stroke-linejoin="round" />
    <path
        d="M12.2881 5V7.39017C12.0462 7.17374 11.7467 7.03197 11.426 6.98198C11.1052 6.93198 10.7768 6.9759 10.4805 7.10842C10.1841 7.24095 9.93248 7.45642 9.7559 7.72882C9.57932 8.00123 9.48535 8.31892 9.48535 8.64355C9.48535 8.96819 9.57932 9.28588 9.7559 9.55829C9.93248 9.83069 10.1841 10.0462 10.4805 10.1787C10.7768 10.3112 11.1052 10.3551 11.426 10.3051C11.7467 10.2551 12.0462 10.1134 12.2881 9.89694V14.6773C12.5301 14.4609 12.8295 14.3191 13.1503 14.2691C13.471 14.2191 13.7994 14.263 14.0958 14.3955C14.3921 14.5281 14.6438 14.7435 14.8204 15.0159C14.9969 15.2883 15.0909 15.606 15.0909 15.9307C15.0909 16.2553 14.9969 16.573 14.8204 16.8454C14.6438 17.1178 14.3921 17.3333 14.0958 17.4658C13.7994 17.5983 13.471 17.6422 13.1503 17.5922C12.8295 17.5422 12.5301 17.4005 12.2881 17.184V19.5742"
        stroke="currentColor" stroke-linecap="round" stroke-linejoin="round" />
    <path
        d="M12.2881 5V7.39017C12.0462 7.17374 11.7467 7.03197 11.426 6.98198C11.1052 6.93198 10.7768 6.9759 10.4805 7.10842C10.1841 7.24095 9.93248 7.45642 9.7559 7.72882C9.57932 8.00123 9.48535 8.31892 9.48535 8.64355C9.48535 8.96819 9.57932 9.28588 9.7559 9.55829C9.93248 9.83069 10.1841 10.0462 10.4805 10.1787C10.7768 10.3112 11.1052 10.3551 11.426 10.3051C11.7467 10.2551 12.0462 10.1134 12.2881 9.89694V14.6773C12.5301 14.4609 12.8295 14.3191 13.1503 14.2691C13.471 14.2191 13.7994 14.263 14.0958 14.3955C14.3921 14.5281 14.6438 14.7435 14.8204 15.0159C14.9969 15.2883 15.0909 15.606 15.0909 15.9307C15.0909 16.2553 14.9969 16.573 14.8204 16.8454C14.6438 17.1178 14.3921 17.3333 14.0958 17.4658C13.7994 17.5983 13.471 17.6422 13.1503 17.5922C12.8295 17.5422 12.5301 17.4005 12.2881 17.184V19.5742"
        stroke="currentColor" stroke-opacity="0.2" stroke-linecap="round" stroke-linejoin="round" />
    <path
        d="M5 12.2843H7.39017C7.17374 12.5263 7.03197 12.8257 6.98198 13.1465C6.93198 13.4673 6.9759 13.7956 7.10842 14.092C7.24095 14.3883 7.45642 14.64 7.72882 14.8166C8.00123 14.9932 8.31892 15.0871 8.64355 15.0871C8.96819 15.0871 9.28588 14.9932 9.55829 14.8166C9.83069 14.64 10.0462 14.3883 10.1787 14.092C10.3112 13.7956 10.3551 13.4673 10.3051 13.1465C10.2551 12.8257 10.1134 12.5263 9.89694 12.2843H14.6773C14.4609 12.0424 14.3191 11.743 14.2691 11.4222C14.2191 11.1014 14.263 10.7731 14.3955 10.4767C14.5281 10.1804 14.7435 9.9287 15.0159 9.75212C15.2883 9.57553 15.606 9.48157 15.9307 9.48157C16.2553 9.48157 16.573 9.57553 16.8454 9.75212C17.1178 9.9287 17.3333 10.1804 17.4658 10.4767C17.5983 10.7731 17.6422 11.1014 17.5922 11.4222C17.5422 11.743 17.4005 12.0424 17.184 12.2843H19.5742"
        stroke="currentColor" stroke-linecap="round" stroke-linejoin="round" />
    <path
        d="M5 12.2843H7.39017C7.17374 12.5263 7.03197 12.8257 6.98198 13.1465C6.93198 13.4673 6.9759 13.7956 7.10842 14.092C7.24095 14.3883 7.45642 14.64 7.72882 14.8166C8.00123 14.9932 8.31892 15.0871 8.64355 15.0871C8.96819 15.0871 9.28588 14.9932 9.55829 14.8166C9.83069 14.64 10.0462 14.3883 10.1787 14.092C10.3112 13.7956 10.3551 13.4673 10.3051 13.1465C10.2551 12.8257 10.1134 12.5263 9.89694 12.2843H14.6773C14.4609 12.0424 14.3191 11.743 14.2691 11.4222C14.2191 11.1014 14.263 10.7731 14.3955 10.4767C14.5281 10.1804 14.7435 9.9287 15.0159 9.75212C15.2883 9.57553 15.606 9.48157 15.9307 9.48157C16.2553 9.48157 16.573 9.57553 16.8454 9.75212C17.1178 9.9287 17.3333 10.1804 17.4658 10.4767C17.5983 10.7731 17.6422 11.1014 17.5922 11.4222C17.5422 11.743 17.4005 12.0424 17.184 12.2843H19.5742"
        stroke="currentColor" stroke-opacity="0.2" stroke-linecap="round" stroke-linejoin="round" />
    <path
        d="M17.835 1.65746L22.5036 3.10841C22.7287 3.17838 22.9169 3.33491 23.0266 3.54357C23.1363 3.75223 23.1586 3.99593 23.0886 4.22105L21.6377 8.88965"
        stroke="currentColor" stroke-linecap="round" stroke-linejoin="round" />
    <path
        d="M17.835 1.65746L22.5036 3.10841C22.7287 3.17838 22.9169 3.33491 23.0266 3.54357C23.1363 3.75223 23.1586 3.99593 23.0886 4.22105L21.6377 8.88965"
        stroke="currentColor" stroke-opacity="0.2" stroke-linecap="round" stroke-linejoin="round" />
    <path
        d="M17.8368 1.65799L17.2744 3.4677C17.1421 3.2469 16.9488 3.06909 16.7177 2.95576C16.4866 2.84243 16.2276 2.79841 15.972 2.82901C15.7165 2.85962 15.4752 2.96355 15.2774 3.12824C15.0796 3.29294 14.9337 3.51137 14.8573 3.75717C14.7809 4.00296 14.7773 4.26562 14.8469 4.51342C14.9165 4.76122 15.0564 4.98359 15.2496 5.15366C15.4428 5.32374 15.6811 5.43426 15.9357 5.47189C16.1903 5.50951 16.4504 5.47263 16.6845 5.3657L16.1221 7.17542"
        stroke="currentColor" stroke-linecap="round" stroke-linejoin="round" />
    <path
        d="M17.8368 1.65799L17.2744 3.4677C17.1421 3.2469 16.9488 3.06909 16.7177 2.95576C16.4866 2.84243 16.2276 2.79841 15.972 2.82901C15.7165 2.85962 15.4752 2.96355 15.2774 3.12824C15.0796 3.29294 14.9337 3.51137 14.8573 3.75717C14.7809 4.00296 14.7773 4.26562 14.8469 4.51342C14.9165 4.76122 15.0564 4.98359 15.2496 5.15366C15.4428 5.32374 15.6811 5.43426 15.9357 5.47189C16.1903 5.50951 16.4504 5.47263 16.6845 5.3657L16.1221 7.17542"
        stroke="currentColor" stroke-opacity="0.2" stroke-linecap="round" stroke-linejoin="round" />
    <path
        d="M21.6377 8.88965L19.828 8.32721C20.0488 8.19494 20.2266 8.00158 20.3399 7.77048C20.4533 7.53939 20.4973 7.28042 20.4667 7.02486C20.4361 6.76929 20.3321 6.52804 20.1674 6.33024C20.0027 6.13244 19.7843 5.98654 19.5385 5.91015C19.2927 5.83376 19.0301 5.83014 18.7823 5.89974C18.5345 5.96934 18.3121 6.10918 18.142 6.30238C17.9719 6.49558 17.8614 6.73387 17.8238 6.9885C17.7862 7.24313 17.823 7.5032 17.93 7.73733L16.1203 7.17489"
        stroke="currentColor" stroke-width="0.888885" stroke-linecap="round" stroke-linejoin="round" />
    <path
        d="M21.6377 8.88965L19.828 8.32721C20.0488 8.19494 20.2266 8.00158 20.3399 7.77048C20.4533 7.53939 20.4973 7.28042 20.4667 7.02486C20.4361 6.76929 20.3321 6.52804 20.1674 6.33024C20.0027 6.13244 19.7843 5.98654 19.5385 5.91015C19.2927 5.83376 19.0301 5.83014 18.7823 5.89974C18.5345 5.96934 18.3121 6.10918 18.142 6.30238C17.9719 6.49558 17.8614 6.73387 17.8238 6.9885C17.7862 7.24313 17.823 7.5032 17.93 7.73733L16.1203 7.17489"
        stroke="currentColor" stroke-opacity="0.2" stroke-width="0.888885" stroke-linecap="round"
        stroke-linejoin="round" />
</svg>