<svg width="24" height="24" viewBox="0 0 24 24" fill="none" xmlns="http://www.w3.org/2000/svg">
    <path
        d="M6.72235 10.6958H3.21783C3.09753 10.6958 3 10.7933 3 10.9136V19.0022C3 19.1225 3.09753 19.22 3.21783 19.22H8.88145M17.6235 12.4922H20.7822C20.9025 12.4922 21 12.5897 21 12.71V19.0022C21 19.1225 20.9025 19.22 20.7822 19.22H15.5253M8.88145 19.22V6.39361C8.88145 6.27331 8.97897 6.17578 9.09928 6.17578H15.3075C15.4278 6.17578 15.5253 6.27331 15.5253 6.39361V19.22M8.88145 19.22H15.5253"
        stroke="currentColor" stroke-width="0.951579" stroke-linecap="round" />
    <path
        d="M6.72235 10.6958H3.21783C3.09753 10.6958 3 10.7933 3 10.9136V19.0022C3 19.1225 3.09753 19.22 3.21783 19.22H8.88145M17.6235 12.4922H20.7822C20.9025 12.4922 21 12.5897 21 12.71V19.0022C21 19.1225 20.9025 19.22 20.7822 19.22H15.5253M8.88145 19.22V6.39361C8.88145 6.27331 8.97897 6.17578 9.09928 6.17578H15.3075C15.4278 6.17578 15.5253 6.27331 15.5253 6.39361V19.22M8.88145 19.22H15.5253"
        stroke="currentColor" stroke-opacity="0.2" stroke-width="0.951579" stroke-linecap="round" />
    <g clip-path="url(#clip0_1139_393)">
        <path
            d="M10.6152 8.31602C10.6152 8.18463 10.7217 8.07812 10.8531 8.07812H13.2321C13.3635 8.07812 13.47 8.18463 13.47 8.31602C13.47 8.44741 13.3635 8.55391 13.2321 8.55391H10.8531C10.7217 8.55391 10.6152 8.44741 10.6152 8.31602Z"
            fill="currentColor" />
        <path
            d="M10.6152 8.31602C10.6152 8.18463 10.7217 8.07812 10.8531 8.07812H13.2321C13.3635 8.07812 13.47 8.18463 13.47 8.31602C13.47 8.44741 13.3635 8.55391 13.2321 8.55391H10.8531C10.7217 8.55391 10.6152 8.44741 10.6152 8.31602Z"
            fill="currentColor" fill-opacity="0.2" />
        <path
            d="M10.6152 9.109C10.6152 8.97762 10.7217 8.87111 10.8531 8.87111H13.2321C13.3635 8.87111 13.47 8.97762 13.47 9.109C13.47 9.24039 13.3635 9.3469 13.2321 9.3469H12.3281H11.7571H10.8531C10.7217 9.3469 10.6152 9.24039 10.6152 9.109Z"
            fill="currentColor" />
        <path
            d="M10.6152 9.109C10.6152 8.97762 10.7217 8.87111 10.8531 8.87111H13.2321C13.3635 8.87111 13.47 8.97762 13.47 9.109C13.47 9.24039 13.3635 9.3469 13.2321 9.3469H12.3281H11.7571H10.8531C10.7217 9.3469 10.6152 9.24039 10.6152 9.109Z"
            fill="currentColor" fill-opacity="0.2" />
        <path
            d="M12.0426 11.8844C12.2003 11.8844 12.3281 11.7566 12.3281 11.599V9.3469H11.7571V11.599C11.7571 11.7566 11.8849 11.8844 12.0426 11.8844Z"
            fill="currentColor" />
        <path
            d="M12.0426 11.8844C12.2003 11.8844 12.3281 11.7566 12.3281 11.599V9.3469H11.7571V11.599C11.7571 11.7566 11.8849 11.8844 12.0426 11.8844Z"
            fill="currentColor" fill-opacity="0.2" />
    </g>
    <path
        d="M4.90234 11.9749L5.73114 13.08M5.73114 13.08L6.55993 11.8828M5.73114 13.08V14.7376M4.90234 13.172H6.55993M4.90234 13.9088H6.55993"
        stroke="currentColor" stroke-width="0.377229" stroke-linecap="round" />
    <path
        d="M4.90234 11.9749L5.73114 13.08M5.73114 13.08L6.55993 11.8828M5.73114 13.08V14.7376M4.90234 13.172H6.55993M4.90234 13.9088H6.55993"
        stroke="currentColor" stroke-opacity="0.2" stroke-width="0.377229" stroke-linecap="round" />
    <path fill-rule="evenodd" clip-rule="evenodd"
        d="M18.4011 13.9609C18.4011 13.8645 18.3229 13.7864 18.2266 13.7864C18.1302 13.7864 18.052 13.8645 18.052 13.9609V13.9619V13.963V13.9642V13.9654V13.9666V13.9679V13.9692V13.9706V13.972V13.9734V13.9749V13.9765V13.9781V13.9797V13.9814V13.9831V13.9849V13.9867V13.9886V13.9905V13.9925V13.9945V13.9965V13.9986V14.0007V14.0029V14.0051V14.0073V14.0096V14.012V14.0144V14.0168V14.0193V14.0218V14.0243V14.0269V14.0296V14.0322V14.035V14.0377V14.0405V14.0434V14.0463V14.0492V14.0521V14.0552V14.0582V14.0613V14.0644V14.0676V14.0708V14.074V14.0773V14.0806V14.084V14.0874V14.0909V14.0943V14.0979V14.1014V14.105V14.1087V14.1123V14.116V14.1198V14.1236V14.1274V14.1313V14.1352V14.1391V14.1431V14.1471V14.1511V14.1552V14.1593V14.1635V14.1677V14.1719V14.1762V14.1805V14.1848V14.1892V14.1936V14.198V14.2025V14.207V14.2115V14.2161V14.2207V14.2254V14.23V14.2348V14.2395V14.2443V14.2491V14.254V14.2588V14.2638V14.2687V14.2737V14.2787V14.2837V14.2888V14.2939V14.2991V14.3043V14.3095V14.3147V14.32V14.3253V14.328C17.8529 14.3628 17.7118 14.4658 17.6196 14.5939C17.5106 14.7453 17.4756 14.9228 17.4756 15.0432C17.4756 15.2742 17.5577 15.4603 17.6977 15.5876C17.7977 15.6785 17.9211 15.734 18.052 15.7576V15.7628V15.7715V15.7802V15.7889V15.7976V15.8063V15.815V15.8237V15.8324V15.8412V15.8499V15.8586V15.8673V15.8761V15.8848V15.8935V15.9023V15.911V15.9198V15.9285V15.9372V15.946V15.9547V15.9635V15.9722V15.981V15.9897V15.9985V16.0072V16.016V16.0247V16.0335V16.0422V16.0509V16.0597V16.0684V16.0772V16.0859V16.0947V16.1034V16.1121V16.1209V16.1296V16.1383V16.147V16.1558V16.1645V16.1732V16.1819V16.1906V16.1993V16.2081V16.2168V16.2255V16.2342V16.2428V16.2515V16.2602V16.2689V16.2776V16.2862V16.2949V16.3036V16.3122V16.3209V16.3295V16.3382V16.3468V16.3554V16.364V16.3727V16.3813V16.3899V16.3985V16.4071V16.4156V16.4242V16.4328V16.4414V16.4499V16.4585V16.467V16.4755V16.4841V16.4926V16.5011V16.5096V16.5181V16.5266V16.535V16.5435V16.552V16.5604V16.5688V16.5773V16.5857V16.5941V16.6025V16.6109V16.6193V16.6276V16.636V16.6443V16.6472C17.9781 16.6175 17.917 16.567 17.8683 16.5061C17.7861 16.4034 17.751 16.2855 17.751 16.2234C17.751 16.1473 17.6893 16.0857 17.6133 16.0857C17.5372 16.0857 17.4756 16.1473 17.4756 16.2234C17.4756 16.3579 17.5388 16.535 17.6533 16.6782C17.7459 16.7939 17.8792 16.8961 18.052 16.9347V16.9367V16.9445V16.9524V16.9602V16.968V16.9758V16.9836V16.9913V16.9991V17.0068V17.0145V17.0222V17.0299V17.0375V17.0452V17.0528V17.0604V17.068V17.0755V17.0831V17.0906V17.0981V17.1056V17.1131V17.1205V17.128V17.1354V17.1428V17.1502V17.1575V17.1648V17.1722V17.1795V17.1867V17.194V17.2012V17.2084V17.2156V17.2228V17.23V17.2371V17.2442V17.2513V17.2583V17.2654V17.2724V17.2794V17.2864V17.2933V17.3003V17.3072V17.3141V17.3209V17.3278V17.3346V17.3414V17.3481V17.3549V17.3616V17.3683V17.375V17.3816V17.3882V17.3948V17.4014V17.4079V17.4145V17.421V17.4274V17.4339V17.4403V17.4467C18.052 17.5431 18.1302 17.6212 18.2266 17.6212C18.3229 17.6212 18.4011 17.5431 18.4011 17.4467V17.4403V17.4339V17.4274V17.421V17.4145V17.4079V17.4014V17.3948V17.3882V17.3816V17.375V17.3683V17.3616V17.3549V17.3481V17.3414V17.3346V17.3278V17.3209V17.3141V17.3072V17.3003V17.2933V17.2864V17.2794V17.2724V17.2654V17.2583V17.2513V17.2442V17.2371V17.23V17.2228V17.2156V17.2084V17.2012V17.194V17.1867V17.1795V17.1722V17.1648V17.1575V17.1502V17.1428V17.1354V17.128V17.1205V17.1131V17.1056V17.0981V17.0906V17.0831V17.0755V17.068V17.0604V17.0528V17.0452V17.0375V17.0299V17.0222V17.0145V17.0068V16.9991V16.9913V16.9836V16.9758V16.968V16.9602V16.9524V16.9445V16.9367V16.9303C18.5143 16.9052 18.6211 16.8562 18.71 16.7773C18.8523 16.6508 18.9311 16.4628 18.9311 16.2234C18.9311 16.0298 18.8741 15.8459 18.7467 15.709C18.6574 15.6131 18.5404 15.5476 18.4011 15.5164V15.5127V15.5042V15.4957V15.4872V15.4787V15.4702V15.4617V15.4532V15.4448V15.4363V15.4279V15.4194V15.411V15.4026V15.3942V15.3858V15.3774V15.369V15.3607V15.3523V15.344V15.3356V15.3273V15.319V15.3107V15.3024V15.2941V15.2859V15.2776V15.2694V15.2611V15.2529V15.2447V15.2365V15.2283V15.2201V15.212V15.2039V15.1957V15.1876V15.1795V15.1714V15.1633V15.1553V15.1472V15.1392V15.1312V15.1232V15.1152V15.1072V15.0992V15.0913V15.0834V15.0754V15.0675V15.0597V15.0518V15.0439V15.0361V15.0283V15.0205V15.0127V15.0049V14.9972V14.9894V14.9817V14.974V14.9663V14.9586V14.951V14.9434V14.9357V14.9282V14.9206V14.913V14.9055V14.8979V14.8904V14.883V14.8755V14.868V14.8606V14.8532V14.8458V14.8384V14.8311V14.8238V14.8164V14.8092V14.8019V14.7946V14.7874V14.7802V14.773V14.7658V14.7587V14.7516V14.7445V14.7374V14.7303V14.7233V14.7163V14.7093V14.7023V14.6954V14.6885V14.6816V14.6747V14.6678V14.661V14.6542V14.6474V14.6406V14.6339V14.6272V14.6214C18.4869 14.6511 18.5491 14.6995 18.594 14.7529C18.6719 14.8457 18.7037 14.9611 18.7037 15.0432C18.7037 15.1192 18.7653 15.1809 18.8414 15.1809C18.9174 15.1809 18.9791 15.1192 18.9791 15.0432C18.9791 14.9019 18.9279 14.7223 18.8048 14.5758C18.7104 14.4635 18.5767 14.3743 18.4011 14.3359V14.3306V14.3253V14.32V14.3147V14.3095V14.3043V14.2991V14.2939V14.2888V14.2837V14.2787V14.2737V14.2687V14.2638V14.2588V14.254V14.2491V14.2443V14.2395V14.2348V14.23V14.2254V14.2207V14.2161V14.2115V14.207V14.2025V14.198V14.1936V14.1892V14.1848V14.1805V14.1762V14.1719V14.1677V14.1635V14.1593V14.1552V14.1511V14.1471V14.1431V14.1391V14.1352V14.1313V14.1274V14.1236V14.1198V14.116V14.1123V14.1087V14.105V14.1014V14.0979V14.0943V14.0909V14.0874V14.084V14.0806V14.0773V14.074V14.0708V14.0676V14.0644V14.0613V14.0582V14.0552V14.0521V14.0492V14.0463V14.0434V14.0405V14.0377V14.035V14.0322V14.0296V14.0269V14.0243V14.0218V14.0193V14.0168V14.0144V14.012V14.0096V14.0073V14.0051V14.0029V14.0007V13.9986V13.9965V13.9945V13.9925V13.9905V13.9886V13.9867V13.9849V13.9831V13.9814V13.9797V13.9781V13.9765V13.9749V13.9734V13.972V13.9706V13.9692V13.9679V13.9666V13.9654V13.9642V13.963V13.9619V13.9609ZM18.052 14.61C17.9519 14.6381 17.887 14.6938 17.843 14.7548C17.775 14.8493 17.751 14.9669 17.751 15.0432C17.751 15.2055 17.8066 15.3145 17.8829 15.3839C17.9288 15.4256 17.9863 15.4567 18.052 15.4754V15.4702V15.4617V15.4532V15.4448V15.4363V15.4279V15.4194V15.411V15.4026V15.3942V15.3858V15.3774V15.369V15.3607V15.3523V15.344V15.3356V15.3273V15.319V15.3107V15.3024V15.2941V15.2859V15.2776V15.2694V15.2611V15.2529V15.2447V15.2365V15.2283V15.2201V15.212V15.2039V15.1957V15.1876V15.1795V15.1714V15.1633V15.1553V15.1472V15.1392V15.1312V15.1232V15.1152V15.1072V15.0992V15.0913V15.0834V15.0754V15.0675V15.0597V15.0518V15.0439V15.0361V15.0283V15.0205V15.0127V15.0049V14.9972V14.9894V14.9817V14.974V14.9663V14.9586V14.951V14.9434V14.9357V14.9282V14.9206V14.913V14.9055V14.8979V14.8904V14.883V14.8755V14.868V14.8606V14.8532V14.8458V14.8384V14.8311V14.8238V14.8164V14.8092V14.8019V14.7946V14.7874V14.7802V14.773V14.7658V14.7587V14.7516V14.7445V14.7374V14.7303V14.7233V14.7163V14.7093V14.7023V14.6954V14.6885V14.6816V14.6747V14.6678V14.661V14.6542V14.6474V14.6406V14.6339V14.6272V14.6205V14.6138V14.61ZM18.4011 15.8027V15.8063V15.815V15.8237V15.8324V15.8412V15.8499V15.8586V15.8673V15.8761V15.8848V15.8935V15.9023V15.911V15.9198V15.9285V15.9372V15.946V15.9547V15.9635V15.9722V15.981V15.9897V15.9985V16.0072V16.016V16.0247V16.0335V16.0422V16.0509V16.0597V16.0684V16.0772V16.0859V16.0947V16.1034V16.1121V16.1209V16.1296V16.1383V16.147V16.1558V16.1645V16.1732V16.1819V16.1906V16.1993V16.2081V16.2168V16.2255V16.2342V16.2428V16.2515V16.2602V16.2689V16.2776V16.2862V16.2949V16.3036V16.3122V16.3209V16.3295V16.3382V16.3468V16.3554V16.364V16.3727V16.3813V16.3899V16.3985V16.4071V16.4156V16.4242V16.4328V16.4414V16.4499V16.4585V16.467V16.4755V16.4841V16.4926V16.5011V16.5096V16.5181V16.5266V16.535V16.5435V16.552V16.5604V16.5688V16.5773V16.5857V16.5941V16.6025V16.6109V16.6193V16.6276V16.636V16.6443V16.6444C18.45 16.6269 18.4923 16.6023 18.5271 16.5714C18.5998 16.5068 18.6558 16.3998 18.6558 16.2234C18.6558 16.0822 18.6145 15.9712 18.5451 15.8966C18.5093 15.8581 18.4621 15.8252 18.4011 15.8027Z"
        fill="currentColor" />
    <path fill-rule="evenodd" clip-rule="evenodd"
        d="M18.4011 13.9609C18.4011 13.8645 18.3229 13.7864 18.2266 13.7864C18.1302 13.7864 18.052 13.8645 18.052 13.9609V13.9619V13.963V13.9642V13.9654V13.9666V13.9679V13.9692V13.9706V13.972V13.9734V13.9749V13.9765V13.9781V13.9797V13.9814V13.9831V13.9849V13.9867V13.9886V13.9905V13.9925V13.9945V13.9965V13.9986V14.0007V14.0029V14.0051V14.0073V14.0096V14.012V14.0144V14.0168V14.0193V14.0218V14.0243V14.0269V14.0296V14.0322V14.035V14.0377V14.0405V14.0434V14.0463V14.0492V14.0521V14.0552V14.0582V14.0613V14.0644V14.0676V14.0708V14.074V14.0773V14.0806V14.084V14.0874V14.0909V14.0943V14.0979V14.1014V14.105V14.1087V14.1123V14.116V14.1198V14.1236V14.1274V14.1313V14.1352V14.1391V14.1431V14.1471V14.1511V14.1552V14.1593V14.1635V14.1677V14.1719V14.1762V14.1805V14.1848V14.1892V14.1936V14.198V14.2025V14.207V14.2115V14.2161V14.2207V14.2254V14.23V14.2348V14.2395V14.2443V14.2491V14.254V14.2588V14.2638V14.2687V14.2737V14.2787V14.2837V14.2888V14.2939V14.2991V14.3043V14.3095V14.3147V14.32V14.3253V14.328C17.8529 14.3628 17.7118 14.4658 17.6196 14.5939C17.5106 14.7453 17.4756 14.9228 17.4756 15.0432C17.4756 15.2742 17.5577 15.4603 17.6977 15.5876C17.7977 15.6785 17.9211 15.734 18.052 15.7576V15.7628V15.7715V15.7802V15.7889V15.7976V15.8063V15.815V15.8237V15.8324V15.8412V15.8499V15.8586V15.8673V15.8761V15.8848V15.8935V15.9023V15.911V15.9198V15.9285V15.9372V15.946V15.9547V15.9635V15.9722V15.981V15.9897V15.9985V16.0072V16.016V16.0247V16.0335V16.0422V16.0509V16.0597V16.0684V16.0772V16.0859V16.0947V16.1034V16.1121V16.1209V16.1296V16.1383V16.147V16.1558V16.1645V16.1732V16.1819V16.1906V16.1993V16.2081V16.2168V16.2255V16.2342V16.2428V16.2515V16.2602V16.2689V16.2776V16.2862V16.2949V16.3036V16.3122V16.3209V16.3295V16.3382V16.3468V16.3554V16.364V16.3727V16.3813V16.3899V16.3985V16.4071V16.4156V16.4242V16.4328V16.4414V16.4499V16.4585V16.467V16.4755V16.4841V16.4926V16.5011V16.5096V16.5181V16.5266V16.535V16.5435V16.552V16.5604V16.5688V16.5773V16.5857V16.5941V16.6025V16.6109V16.6193V16.6276V16.636V16.6443V16.6472C17.9781 16.6175 17.917 16.567 17.8683 16.5061C17.7861 16.4034 17.751 16.2855 17.751 16.2234C17.751 16.1473 17.6893 16.0857 17.6133 16.0857C17.5372 16.0857 17.4756 16.1473 17.4756 16.2234C17.4756 16.3579 17.5388 16.535 17.6533 16.6782C17.7459 16.7939 17.8792 16.8961 18.052 16.9347V16.9367V16.9445V16.9524V16.9602V16.968V16.9758V16.9836V16.9913V16.9991V17.0068V17.0145V17.0222V17.0299V17.0375V17.0452V17.0528V17.0604V17.068V17.0755V17.0831V17.0906V17.0981V17.1056V17.1131V17.1205V17.128V17.1354V17.1428V17.1502V17.1575V17.1648V17.1722V17.1795V17.1867V17.194V17.2012V17.2084V17.2156V17.2228V17.23V17.2371V17.2442V17.2513V17.2583V17.2654V17.2724V17.2794V17.2864V17.2933V17.3003V17.3072V17.3141V17.3209V17.3278V17.3346V17.3414V17.3481V17.3549V17.3616V17.3683V17.375V17.3816V17.3882V17.3948V17.4014V17.4079V17.4145V17.421V17.4274V17.4339V17.4403V17.4467C18.052 17.5431 18.1302 17.6212 18.2266 17.6212C18.3229 17.6212 18.4011 17.5431 18.4011 17.4467V17.4403V17.4339V17.4274V17.421V17.4145V17.4079V17.4014V17.3948V17.3882V17.3816V17.375V17.3683V17.3616V17.3549V17.3481V17.3414V17.3346V17.3278V17.3209V17.3141V17.3072V17.3003V17.2933V17.2864V17.2794V17.2724V17.2654V17.2583V17.2513V17.2442V17.2371V17.23V17.2228V17.2156V17.2084V17.2012V17.194V17.1867V17.1795V17.1722V17.1648V17.1575V17.1502V17.1428V17.1354V17.128V17.1205V17.1131V17.1056V17.0981V17.0906V17.0831V17.0755V17.068V17.0604V17.0528V17.0452V17.0375V17.0299V17.0222V17.0145V17.0068V16.9991V16.9913V16.9836V16.9758V16.968V16.9602V16.9524V16.9445V16.9367V16.9303C18.5143 16.9052 18.6211 16.8562 18.71 16.7773C18.8523 16.6508 18.9311 16.4628 18.9311 16.2234C18.9311 16.0298 18.8741 15.8459 18.7467 15.709C18.6574 15.6131 18.5404 15.5476 18.4011 15.5164V15.5127V15.5042V15.4957V15.4872V15.4787V15.4702V15.4617V15.4532V15.4448V15.4363V15.4279V15.4194V15.411V15.4026V15.3942V15.3858V15.3774V15.369V15.3607V15.3523V15.344V15.3356V15.3273V15.319V15.3107V15.3024V15.2941V15.2859V15.2776V15.2694V15.2611V15.2529V15.2447V15.2365V15.2283V15.2201V15.212V15.2039V15.1957V15.1876V15.1795V15.1714V15.1633V15.1553V15.1472V15.1392V15.1312V15.1232V15.1152V15.1072V15.0992V15.0913V15.0834V15.0754V15.0675V15.0597V15.0518V15.0439V15.0361V15.0283V15.0205V15.0127V15.0049V14.9972V14.9894V14.9817V14.974V14.9663V14.9586V14.951V14.9434V14.9357V14.9282V14.9206V14.913V14.9055V14.8979V14.8904V14.883V14.8755V14.868V14.8606V14.8532V14.8458V14.8384V14.8311V14.8238V14.8164V14.8092V14.8019V14.7946V14.7874V14.7802V14.773V14.7658V14.7587V14.7516V14.7445V14.7374V14.7303V14.7233V14.7163V14.7093V14.7023V14.6954V14.6885V14.6816V14.6747V14.6678V14.661V14.6542V14.6474V14.6406V14.6339V14.6272V14.6214C18.4869 14.6511 18.5491 14.6995 18.594 14.7529C18.6719 14.8457 18.7037 14.9611 18.7037 15.0432C18.7037 15.1192 18.7653 15.1809 18.8414 15.1809C18.9174 15.1809 18.9791 15.1192 18.9791 15.0432C18.9791 14.9019 18.9279 14.7223 18.8048 14.5758C18.7104 14.4635 18.5767 14.3743 18.4011 14.3359V14.3306V14.3253V14.32V14.3147V14.3095V14.3043V14.2991V14.2939V14.2888V14.2837V14.2787V14.2737V14.2687V14.2638V14.2588V14.254V14.2491V14.2443V14.2395V14.2348V14.23V14.2254V14.2207V14.2161V14.2115V14.207V14.2025V14.198V14.1936V14.1892V14.1848V14.1805V14.1762V14.1719V14.1677V14.1635V14.1593V14.1552V14.1511V14.1471V14.1431V14.1391V14.1352V14.1313V14.1274V14.1236V14.1198V14.116V14.1123V14.1087V14.105V14.1014V14.0979V14.0943V14.0909V14.0874V14.084V14.0806V14.0773V14.074V14.0708V14.0676V14.0644V14.0613V14.0582V14.0552V14.0521V14.0492V14.0463V14.0434V14.0405V14.0377V14.035V14.0322V14.0296V14.0269V14.0243V14.0218V14.0193V14.0168V14.0144V14.012V14.0096V14.0073V14.0051V14.0029V14.0007V13.9986V13.9965V13.9945V13.9925V13.9905V13.9886V13.9867V13.9849V13.9831V13.9814V13.9797V13.9781V13.9765V13.9749V13.9734V13.972V13.9706V13.9692V13.9679V13.9666V13.9654V13.9642V13.963V13.9619V13.9609ZM18.052 14.61C17.9519 14.6381 17.887 14.6938 17.843 14.7548C17.775 14.8493 17.751 14.9669 17.751 15.0432C17.751 15.2055 17.8066 15.3145 17.8829 15.3839C17.9288 15.4256 17.9863 15.4567 18.052 15.4754V15.4702V15.4617V15.4532V15.4448V15.4363V15.4279V15.4194V15.411V15.4026V15.3942V15.3858V15.3774V15.369V15.3607V15.3523V15.344V15.3356V15.3273V15.319V15.3107V15.3024V15.2941V15.2859V15.2776V15.2694V15.2611V15.2529V15.2447V15.2365V15.2283V15.2201V15.212V15.2039V15.1957V15.1876V15.1795V15.1714V15.1633V15.1553V15.1472V15.1392V15.1312V15.1232V15.1152V15.1072V15.0992V15.0913V15.0834V15.0754V15.0675V15.0597V15.0518V15.0439V15.0361V15.0283V15.0205V15.0127V15.0049V14.9972V14.9894V14.9817V14.974V14.9663V14.9586V14.951V14.9434V14.9357V14.9282V14.9206V14.913V14.9055V14.8979V14.8904V14.883V14.8755V14.868V14.8606V14.8532V14.8458V14.8384V14.8311V14.8238V14.8164V14.8092V14.8019V14.7946V14.7874V14.7802V14.773V14.7658V14.7587V14.7516V14.7445V14.7374V14.7303V14.7233V14.7163V14.7093V14.7023V14.6954V14.6885V14.6816V14.6747V14.6678V14.661V14.6542V14.6474V14.6406V14.6339V14.6272V14.6205V14.6138V14.61ZM18.4011 15.8027V15.8063V15.815V15.8237V15.8324V15.8412V15.8499V15.8586V15.8673V15.8761V15.8848V15.8935V15.9023V15.911V15.9198V15.9285V15.9372V15.946V15.9547V15.9635V15.9722V15.981V15.9897V15.9985V16.0072V16.016V16.0247V16.0335V16.0422V16.0509V16.0597V16.0684V16.0772V16.0859V16.0947V16.1034V16.1121V16.1209V16.1296V16.1383V16.147V16.1558V16.1645V16.1732V16.1819V16.1906V16.1993V16.2081V16.2168V16.2255V16.2342V16.2428V16.2515V16.2602V16.2689V16.2776V16.2862V16.2949V16.3036V16.3122V16.3209V16.3295V16.3382V16.3468V16.3554V16.364V16.3727V16.3813V16.3899V16.3985V16.4071V16.4156V16.4242V16.4328V16.4414V16.4499V16.4585V16.467V16.4755V16.4841V16.4926V16.5011V16.5096V16.5181V16.5266V16.535V16.5435V16.552V16.5604V16.5688V16.5773V16.5857V16.5941V16.6025V16.6109V16.6193V16.6276V16.636V16.6443V16.6444C18.45 16.6269 18.4923 16.6023 18.5271 16.5714C18.5998 16.5068 18.6558 16.3998 18.6558 16.2234C18.6558 16.0822 18.6145 15.9712 18.5451 15.8966C18.5093 15.8581 18.4621 15.8252 18.4011 15.8027Z"
        fill="currentColor" fill-opacity="0.2" />
    <defs>
        <clipPath id="clip0_1139_393">
            <rect width="6.66106" height="6.66106" fill="white"
                transform="translate(8.70703 5.22266)" />
        </clipPath>
    </defs>
</svg>