<svg width="24" height="24" viewBox="0 0 24 24" fill="none" xmlns="http://www.w3.org/2000/svg">
<path d="M5.00891 9.01345H19.1337M5.00891 9.01345V17.0847C5.00891 17.6199 5.2215 18.1331 5.59992 18.5116C5.97833 18.89 6.49157 19.1026 7.02673 19.1026H17.1158C17.651 19.1026 18.1642 18.89 18.5427 18.5116C18.9211 18.1331 19.1337 17.6199 19.1337 17.0847V9.01345M5.00891 9.01345C4.74133 9.01345 4.48471 8.90715 4.2955 8.71794C4.1063 8.52874 4 8.27212 4 8.00454V6.00891C4 5.74133 4.1063 5.48471 4.2955 5.2955C4.48471 5.1063 4.74133 5 5.00891 5H19.1337C19.4012 5 19.6579 5.1063 19.8471 5.2955C20.0363 5.48471 20.1426 5.74133 20.1426 6.00891V8.00454C20.1426 8.27212 20.0363 8.52874 19.8471 8.71794C19.6579 8.90715 19.4012 9.01345 19.1337 9.01345" stroke="#1C1C1C" stroke-linecap="round" stroke-linejoin="round"/>
<path d="M9.04297 15.0658L12.0697 12.0391L15.0964 15.0658" stroke="#1C1C1C" stroke-linecap="round" stroke-linejoin="round"/>
</svg>
