<svg width="24" height="24" viewBox="0 0 24 24" fill="none" xmlns="http://www.w3.org/2000/svg">
<path d="M14.8779 4H7.7166C7.65313 4 7.58994 4.0053 7.52828 4.02034C6.9662 4.15742 6 4.63541 6 5.63902C6 6.62461 6 14.4154 6 19.0022C6 19.5545 6.44772 20 7 20H13.8779C14.4302 20 14.8779 19.5523 14.8779 19V10.5561M14.8779 4V10.5561M14.8779 4C14.9037 4 15.233 4 16.3447 4C17.7343 4 17.8887 5.63902 17.9659 5.71707C18.0166 5.76829 18.0014 7.92372 17.9801 9.57271C17.9731 10.1186 17.5279 10.5561 16.982 10.5561H14.8779M8.31598 8.76098H10.4776H12.6391M8.31598 12.039H10.4776H12.6391M8.31598 15.239H12.6391" stroke="#1C1C1C" stroke-linecap="round"/>
<path d="M14.8779 4H7.7166C7.65313 4 7.58994 4.0053 7.52828 4.02034C6.9662 4.15742 6 4.63541 6 5.63902C6 6.62461 6 14.4154 6 19.0022C6 19.5545 6.44772 20 7 20H13.8779C14.4302 20 14.8779 19.5523 14.8779 19V10.5561M14.8779 4V10.5561M14.8779 4C14.9037 4 15.233 4 16.3447 4C17.7343 4 17.8887 5.63902 17.9659 5.71707C18.0166 5.76829 18.0014 7.92372 17.9801 9.57271C17.9731 10.1186 17.5279 10.5561 16.982 10.5561H14.8779M8.31598 8.76098H10.4776H12.6391M8.31598 12.039H10.4776H12.6391M8.31598 15.239H12.6391" stroke="black" stroke-opacity="0.2" stroke-linecap="round"/>
<g clip-path="url(#clip0_1769_83877)">
<rect x="12" y="14" width="8" height="8" rx="4" fill="#1C1C1C"/>
<rect x="12" y="14" width="8" height="8" rx="4" fill="black" fill-opacity="0.2"/>
<path d="M14 18.1861L15.6542 19.3346L18 16.668" stroke="white" stroke-width="0.666667" stroke-linecap="round" stroke-linejoin="round"/>
</g>
<defs>
<clipPath id="clip0_1769_83877">
<rect width="8" height="8" fill="white" transform="translate(12 14)"/>
</clipPath>
</defs>
</svg>
