<svg width="24" height="24" viewBox="0 0 24 24" fill="none" xmlns="http://www.w3.org/2000/svg">
<path d="M6.28516 10.8588H17.7137M8.57087 5.14453H15.428C16.0342 5.14453 16.6156 5.38535 17.0443 5.814C17.4729 6.24266 17.7137 6.82404 17.7137 7.43025V17.716C17.7137 18.3222 17.4729 18.9035 17.0443 19.3322C16.6156 19.7609 16.0342 20.0017 15.428 20.0017H8.57087C7.96466 20.0017 7.38328 19.7609 6.95463 19.3322C6.52597 18.9035 6.28516 18.3222 6.28516 17.716V7.43025C6.28516 6.82404 6.52597 6.24266 6.95463 5.814C7.38328 5.38535 7.96466 5.14453 8.57087 5.14453Z" stroke="#1C1C1C" stroke-linecap="round" stroke-linejoin="round"/>
<path d="M6.28516 10.8588H17.7137M8.57087 5.14453H15.428C16.0342 5.14453 16.6156 5.38535 17.0443 5.814C17.4729 6.24266 17.7137 6.82404 17.7137 7.43025V17.716C17.7137 18.3222 17.4729 18.9035 17.0443 19.3322C16.6156 19.7609 16.0342 20.0017 15.428 20.0017H8.57087C7.96466 20.0017 7.38328 19.7609 6.95463 19.3322C6.52597 18.9035 6.28516 18.3222 6.28516 17.716V7.43025C6.28516 6.82404 6.52597 6.24266 6.95463 5.814C7.38328 5.38535 7.96466 5.14453 8.57087 5.14453Z" stroke="black" stroke-opacity="0.2" stroke-linecap="round" stroke-linejoin="round"/>
<path d="M8.57254 14.2857C9.20373 14.2857 9.7154 13.774 9.7154 13.1429C9.7154 12.5117 9.20373 12 8.57254 12C7.94136 12 7.42969 12.5117 7.42969 13.1429C7.42969 13.774 7.94136 14.2857 8.57254 14.2857Z" fill="#1C1C1C"/>
<path d="M8.57254 14.2857C9.20373 14.2857 9.7154 13.774 9.7154 13.1429C9.7154 12.5117 9.20373 12 8.57254 12C7.94136 12 7.42969 12.5117 7.42969 13.1429C7.42969 13.774 7.94136 14.2857 8.57254 14.2857Z" fill="black" fill-opacity="0.2"/>
<path d="M10.8577 14.2857C11.4889 14.2857 12.0006 13.774 12.0006 13.1429C12.0006 12.5117 11.4889 12 10.8577 12C10.2265 12 9.71484 12.5117 9.71484 13.1429C9.71484 13.774 10.2265 14.2857 10.8577 14.2857Z" fill="#1C1C1C"/>
<path d="M10.8577 14.2857C11.4889 14.2857 12.0006 13.774 12.0006 13.1429C12.0006 12.5117 11.4889 12 10.8577 12C10.2265 12 9.71484 12.5117 9.71484 13.1429C9.71484 13.774 10.2265 14.2857 10.8577 14.2857Z" fill="black" fill-opacity="0.2"/>
<path d="M13.1429 14.2857C13.774 14.2857 14.2857 13.774 14.2857 13.1429C14.2857 12.5117 13.774 12 13.1429 12C12.5117 12 12 12.5117 12 13.1429C12 13.774 12.5117 14.2857 13.1429 14.2857Z" fill="#1C1C1C"/>
<path d="M13.1429 14.2857C13.774 14.2857 14.2857 13.774 14.2857 13.1429C14.2857 12.5117 13.774 12 13.1429 12C12.5117 12 12 12.5117 12 13.1429C12 13.774 12.5117 14.2857 13.1429 14.2857Z" fill="black" fill-opacity="0.2"/>
<path d="M15.428 14.2857C16.0592 14.2857 16.5709 13.774 16.5709 13.1429C16.5709 12.5117 16.0592 12 15.428 12C14.7968 12 14.2852 12.5117 14.2852 13.1429C14.2852 13.774 14.7968 14.2857 15.428 14.2857Z" fill="#1C1C1C"/>
<path d="M15.428 14.2857C16.0592 14.2857 16.5709 13.774 16.5709 13.1429C16.5709 12.5117 16.0592 12 15.428 12C14.7968 12 14.2852 12.5117 14.2852 13.1429C14.2852 13.774 14.7968 14.2857 15.428 14.2857Z" fill="black" fill-opacity="0.2"/>
<path d="M8.57254 16.5709C9.20373 16.5709 9.7154 16.0592 9.7154 15.428C9.7154 14.7968 9.20373 14.2852 8.57254 14.2852C7.94136 14.2852 7.42969 14.7968 7.42969 15.428C7.42969 16.0592 7.94136 16.5709 8.57254 16.5709Z" fill="#1C1C1C"/>
<path d="M8.57254 16.5709C9.20373 16.5709 9.7154 16.0592 9.7154 15.428C9.7154 14.7968 9.20373 14.2852 8.57254 14.2852C7.94136 14.2852 7.42969 14.7968 7.42969 15.428C7.42969 16.0592 7.94136 16.5709 8.57254 16.5709Z" fill="black" fill-opacity="0.2"/>
<path d="M10.8577 16.5709C11.4889 16.5709 12.0006 16.0592 12.0006 15.428C12.0006 14.7968 11.4889 14.2852 10.8577 14.2852C10.2265 14.2852 9.71484 14.7968 9.71484 15.428C9.71484 16.0592 10.2265 16.5709 10.8577 16.5709Z" fill="#1C1C1C"/>
<path d="M10.8577 16.5709C11.4889 16.5709 12.0006 16.0592 12.0006 15.428C12.0006 14.7968 11.4889 14.2852 10.8577 14.2852C10.2265 14.2852 9.71484 14.7968 9.71484 15.428C9.71484 16.0592 10.2265 16.5709 10.8577 16.5709Z" fill="black" fill-opacity="0.2"/>
<path d="M13.1429 16.5709C13.774 16.5709 14.2857 16.0592 14.2857 15.428C14.2857 14.7968 13.774 14.2852 13.1429 14.2852C12.5117 14.2852 12 14.7968 12 15.428C12 16.0592 12.5117 16.5709 13.1429 16.5709Z" fill="#1C1C1C"/>
<path d="M13.1429 16.5709C13.774 16.5709 14.2857 16.0592 14.2857 15.428C14.2857 14.7968 13.774 14.2852 13.1429 14.2852C12.5117 14.2852 12 14.7968 12 15.428C12 16.0592 12.5117 16.5709 13.1429 16.5709Z" fill="black" fill-opacity="0.2"/>
<path d="M15.428 16.5709C16.0592 16.5709 16.5709 16.0592 16.5709 15.428C16.5709 14.7968 16.0592 14.2852 15.428 14.2852C14.7968 14.2852 14.2852 14.7968 14.2852 15.428C14.2852 16.0592 14.7968 16.5709 15.428 16.5709Z" fill="#1C1C1C"/>
<path d="M15.428 16.5709C16.0592 16.5709 16.5709 16.0592 16.5709 15.428C16.5709 14.7968 16.0592 14.2852 15.428 14.2852C14.7968 14.2852 14.2852 14.7968 14.2852 15.428C14.2852 16.0592 14.7968 16.5709 15.428 16.5709Z" fill="black" fill-opacity="0.2"/>
<path d="M8.57254 18.856C9.20373 18.856 9.7154 18.3444 9.7154 17.7132C9.7154 17.082 9.20373 16.5703 8.57254 16.5703C7.94136 16.5703 7.42969 17.082 7.42969 17.7132C7.42969 18.3444 7.94136 18.856 8.57254 18.856Z" fill="#1C1C1C"/>
<path d="M8.57254 18.856C9.20373 18.856 9.7154 18.3444 9.7154 17.7132C9.7154 17.082 9.20373 16.5703 8.57254 16.5703C7.94136 16.5703 7.42969 17.082 7.42969 17.7132C7.42969 18.3444 7.94136 18.856 8.57254 18.856Z" fill="black" fill-opacity="0.2"/>
<path d="M10.8577 18.856C11.4889 18.856 12.0006 18.3444 12.0006 17.7132C12.0006 17.082 11.4889 16.5703 10.8577 16.5703C10.2265 16.5703 9.71484 17.082 9.71484 17.7132C9.71484 18.3444 10.2265 18.856 10.8577 18.856Z" fill="#1C1C1C"/>
<path d="M10.8577 18.856C11.4889 18.856 12.0006 18.3444 12.0006 17.7132C12.0006 17.082 11.4889 16.5703 10.8577 16.5703C10.2265 16.5703 9.71484 17.082 9.71484 17.7132C9.71484 18.3444 10.2265 18.856 10.8577 18.856Z" fill="black" fill-opacity="0.2"/>
<path d="M13.1429 18.856C13.774 18.856 14.2857 18.3444 14.2857 17.7132C14.2857 17.082 13.774 16.5703 13.1429 16.5703C12.5117 16.5703 12 17.082 12 17.7132C12 18.3444 12.5117 18.856 13.1429 18.856Z" fill="#1C1C1C"/>
<path d="M13.1429 18.856C13.774 18.856 14.2857 18.3444 14.2857 17.7132C14.2857 17.082 13.774 16.5703 13.1429 16.5703C12.5117 16.5703 12 17.082 12 17.7132C12 18.3444 12.5117 18.856 13.1429 18.856Z" fill="black" fill-opacity="0.2"/>
<path d="M15.428 18.856C16.0592 18.856 16.5709 18.3444 16.5709 17.7132C16.5709 17.082 16.0592 16.5703 15.428 16.5703C14.7968 16.5703 14.2852 17.082 14.2852 17.7132C14.2852 18.3444 14.7968 18.856 15.428 18.856Z" fill="#1C1C1C"/>
<path d="M15.428 18.856C16.0592 18.856 16.5709 18.3444 16.5709 17.7132C16.5709 17.082 16.0592 16.5703 15.428 16.5703C14.7968 16.5703 14.2852 17.082 14.2852 17.7132C14.2852 18.3444 14.7968 18.856 15.428 18.856Z" fill="black" fill-opacity="0.2"/>
</svg>
