<svg width="18" height="9" viewBox="0 0 18 9" fill="none" xmlns="http://www.w3.org/2000/svg">
<path d="M1 1C3.38776 4.45129 6.05412 6.17647 9 6.17647C11.9459 6.17647 14.6122 4.45129 17 1M3.35294 3.75106L1.47059 5.70588M14.6471 3.75106L16.5294 5.70588M10.8824 6.17647L11.8235 8.52941M7.11765 6.17647L6.17647 8.52941" stroke="#1C1C1C" stroke-width="0.941176" stroke-linecap="round" stroke-linejoin="round"/>
<path d="M1 1C3.38776 4.45129 6.05412 6.17647 9 6.17647C11.9459 6.17647 14.6122 4.45129 17 1M3.35294 3.75106L1.47059 5.70588M14.6471 3.75106L16.5294 5.70588M10.8824 6.17647L11.8235 8.52941M7.11765 6.17647L6.17647 8.52941" stroke="black" stroke-opacity="0.2" stroke-width="0.941176" stroke-linecap="round" stroke-linejoin="round"/>
</svg>
