<svg width="24" height="24" viewBox="0 0 24 24" fill="none" xmlns="http://www.w3.org/2000/svg">
<g clip-path="url(#clip0_1900_76761)">
<path d="M6.8166 3.03106L6.81671 7.74069M3.09419 8.16536L5.4839 5.77564C5.83739 5.42216 6.31681 5.22357 6.81671 5.22357C7.31661 5.22357 7.79603 5.42216 8.14951 5.77564L10.5392 8.16536C10.7159 8.34212 10.8152 8.58183 10.8151 8.83176L10.8151 17.8855C10.815 18.3853 10.6165 18.8646 10.2631 19.218C9.90964 19.5714 9.43034 19.77 8.93054 19.7701L4.70288 19.7701C4.20308 19.77 3.72377 19.5714 3.37036 19.218C3.01695 18.8646 2.81837 18.3853 2.8183 17.8855L2.8183 8.83176C2.81826 8.58183 2.9175 8.34212 3.09419 8.16536Z" stroke="#1C1C1C" stroke-linecap="round" stroke-linejoin="round"/>
<path d="M7.48334 8.43984C7.85138 8.0718 7.85138 7.47508 7.48334 7.10704C7.11529 6.73899 6.51858 6.73899 6.15053 7.10704C5.78249 7.47508 5.78249 8.0718 6.15053 8.43984C6.51858 8.80788 7.11529 8.80788 7.48334 8.43984Z" fill="#1C1C1C"/>
<path d="M5.9532 10.0195V14.2605L4.53955 12.8468V14.7317L6.89564 17.559L9.25173 14.7317V12.8468L7.83807 14.2605V10.0195" stroke="black" stroke-width="0.659704" stroke-linecap="round" stroke-linejoin="round"/>
<path d="M17.1831 2.99981L17.1832 7.70944M13.4606 8.13411L15.8504 5.74439C16.2038 5.39091 16.6833 5.19232 17.1832 5.19232C17.6831 5.19232 18.1625 5.39091 18.516 5.74439L20.9057 8.13411C21.0824 8.31087 21.1816 8.55058 21.1816 8.80051L21.1816 17.8542C21.1815 18.354 20.9829 18.8334 20.6295 19.1868C20.2761 19.5402 19.7968 19.7388 19.297 19.7388L15.0693 19.7388C14.5695 19.7388 14.0902 19.5402 13.7368 19.1868C13.3834 18.8334 13.1848 18.354 13.1848 17.8542L13.1848 8.80051C13.1847 8.55058 13.284 8.31087 13.4606 8.13411Z" stroke="#1C1C1C" stroke-linecap="round" stroke-linejoin="round"/>
<path d="M17.8498 8.40859C18.2178 8.04055 18.2178 7.44383 17.8498 7.07579C17.4817 6.70774 16.885 6.70774 16.517 7.07579C16.1489 7.44383 16.1489 8.04055 16.517 8.40859C16.885 8.77663 17.4817 8.77663 17.8498 8.40859Z" fill="#1C1C1C"/>
<path d="M14.906 10.9297H19.6182" stroke="black" stroke-width="0.659704" stroke-linecap="round" stroke-linejoin="round"/>
<path d="M14.906 11.875H19.6182" stroke="black" stroke-width="0.659704" stroke-linecap="round" stroke-linejoin="round"/>
<path d="M17.262 11.875V17.5296" stroke="black" stroke-width="0.659704" stroke-linecap="round" stroke-linejoin="round"/>
</g>
<defs>
<clipPath id="clip0_1900_76761">
<rect width="24" height="24" fill="white"/>
</clipPath>
</defs>
</svg>
