<svg width="24" height="24" viewBox="0 0 24 24" fill="none" xmlns="http://www.w3.org/2000/svg">
    <rect x="6" y="9.77734" width="0.825529" height="10.7319" rx="0.412764" fill="currentColor" />
    <rect x="6" y="9.77734" width="0.825529" height="10.7319" rx="0.412764" fill="currentColor"
        fill-opacity="0.2" />
    <rect x="9.30273" y="11.4297" width="0.825529" height="9.08081" rx="0.412764"
        fill="currentColor" />
    <rect x="9.30273" y="11.4297" width="0.825529" height="9.08081" rx="0.412764"
        fill="currentColor"
        fill-opacity="0.2" />
    <rect x="12.6035" y="13.9062" width="0.825529" height="6.60423" rx="0.412764"
        fill="currentColor" />
    <rect x="12.6035" y="13.9062" width="0.825529" height="6.60423" rx="0.412764"
        fill="currentColor"
        fill-opacity="0.2" />
    <rect x="15.9062" y="15.5547" width="0.825529" height="4.95317" rx="0.412764"
        fill="currentColor" />
    <rect x="15.9062" y="15.5547" width="0.825529" height="4.95317" rx="0.412764"
        fill="currentColor"
        fill-opacity="0.2" />
    <path fill-rule="evenodd" clip-rule="evenodd"
        d="M14.7174 12.2705C14.6521 12.0521 14.7763 11.8221 14.9947 11.7569L16.4148 11.3327L8.77969 6.78771C8.58381 6.6711 8.51954 6.41778 8.63614 6.2219C8.75275 6.02601 9.00607 5.96174 9.20196 6.07835L16.8035 10.6033L16.3814 9.19039C16.3162 8.97196 16.4404 8.742 16.6588 8.67676C16.8772 8.61151 17.1072 8.73569 17.1724 8.95412L17.8745 11.3045C17.8769 11.3114 17.8792 11.3184 17.8813 11.3255C17.8961 11.3748 17.9012 11.4247 17.8977 11.4732C17.8863 11.64 17.7735 11.7901 17.6039 11.8407C17.5923 11.8442 17.5806 11.8471 17.569 11.8496L15.231 12.5479C15.0126 12.6131 14.7826 12.489 14.7174 12.2705Z"
        fill="currentColor" />
    <path fill-rule="evenodd" clip-rule="evenodd"
        d="M14.7174 12.2705C14.6521 12.0521 14.7763 11.8221 14.9947 11.7569L16.4148 11.3327L8.77969 6.78771C8.58381 6.6711 8.51954 6.41778 8.63614 6.2219C8.75275 6.02601 9.00607 5.96174 9.20196 6.07835L16.8035 10.6033L16.3814 9.19039C16.3162 8.97196 16.4404 8.742 16.6588 8.67676C16.8772 8.61151 17.1072 8.73569 17.1724 8.95412L17.8745 11.3045C17.8769 11.3114 17.8792 11.3184 17.8813 11.3255C17.8961 11.3748 17.9012 11.4247 17.8977 11.4732C17.8863 11.64 17.7735 11.7901 17.6039 11.8407C17.5923 11.8442 17.5806 11.8471 17.569 11.8496L15.231 12.5479C15.0126 12.6131 14.7826 12.489 14.7174 12.2705Z"
        fill="currentColor" fill-opacity="0.2" />
</svg>