<svg width="24" height="24" viewBox="0 0 24 24" fill="none" xmlns="http://www.w3.org/2000/svg">
<path d="M5 6H19M10 9V17M14 9V17M7 6H17V18C17 18.5304 16.7893 19.0391 16.4142 19.4142C16.0391 19.7893 15.5304 20 15 20H9C8.46957 20 7.96086 19.7893 7.58579 19.4142C7.21071 19.0391 7 18.5304 7 18V6ZM12 4C12.5046 3.99984 12.9906 4.19041 13.3605 4.5335C13.7305 4.87659 13.9572 5.34684 13.995 5.85L14 6H10C10 5.46957 10.2107 4.96086 10.5858 4.58579C10.9609 4.21071 11.4696 4 12 4Z" stroke="#D41900" stroke-linecap="round" stroke-linejoin="round"/>
</svg>
