<svg width="24" height="24" viewBox="0 0 24 24" fill="none" xmlns="http://www.w3.org/2000/svg">
<path d="M4.5843 4.5843V4C4.42934 4 4.28072 4.06156 4.17114 4.17114C4.06156 4.28072 4 4.42934 4 4.5843H4.5843ZM13.1541 4.5843H13.7384C13.7384 4.42934 13.6768 4.28072 13.5672 4.17114C13.4577 4.06156 13.309 4 13.1541 4V4.5843ZM13.1541 9.25872V8.67442C12.9991 8.67442 12.8505 8.73598 12.7409 8.84556C12.6313 8.95514 12.5698 9.10375 12.5698 9.25872H13.1541ZM4.5843 5.1686H13.1541V4H4.5843V5.1686ZM12.5698 4.5843V17.0494H13.7384V4.5843H12.5698ZM5.1686 15.4913V4.5843H4V15.4913H5.1686ZM13.1541 9.84302H17.0494V8.67442H13.1541V9.84302ZM19.5814 12.375V15.4913H20.75V12.375H19.5814ZM13.7384 17.0494V9.25872H12.5698V17.0494H13.7384ZM17.7381 17.7381C17.6477 17.8286 17.5403 17.9003 17.4221 17.9493C17.304 17.9982 17.1773 18.0234 17.0494 18.0234C16.9215 18.0234 16.7949 17.9982 16.6767 17.9493C16.5585 17.9003 16.4512 17.8286 16.3607 17.7381L15.5349 18.5639C15.9367 18.9657 16.4816 19.1914 17.0498 19.1914C17.618 19.1914 18.1629 18.9657 18.5647 18.5639L17.7381 17.7381ZM16.3607 16.3607C16.4512 16.2703 16.5585 16.1985 16.6767 16.1496C16.7949 16.1006 16.9215 16.0754 17.0494 16.0754C17.1773 16.0754 17.304 16.1006 17.4221 16.1496C17.5403 16.1985 17.6477 16.2703 17.7381 16.3607L18.5639 15.5349C18.1621 15.1331 17.6172 14.9074 17.049 14.9074C16.4808 14.9074 15.9359 15.1331 15.5341 15.5349L16.3607 16.3607ZM8.38928 17.7381C8.29885 17.8286 8.19148 17.9003 8.07331 17.9493C7.95514 17.9982 7.82849 18.0234 7.70058 18.0234C7.57267 18.0234 7.44602 17.9982 7.32785 17.9493C7.20968 17.9003 7.10232 17.8286 7.01188 17.7381L6.18607 18.5639C6.58785 18.9657 7.13278 19.1914 7.70097 19.1914C8.26917 19.1914 8.81409 18.9657 9.21587 18.5639L8.38928 17.7381ZM7.01188 16.3607C7.10232 16.2703 7.20968 16.1985 7.32785 16.1496C7.44602 16.1006 7.57267 16.0754 7.70058 16.0754C7.82849 16.0754 7.95514 16.1006 8.07331 16.1496C8.19148 16.1985 8.29885 16.2703 8.38928 16.3607L9.21509 15.5349C8.81331 15.1331 8.26839 14.9074 7.70019 14.9074C7.132 14.9074 6.58707 15.1331 6.18529 15.5349L7.01188 16.3607ZM17.7381 16.3607C17.9282 16.5508 18.0233 16.7993 18.0233 17.0494H19.1919C19.1919 16.5017 18.9823 15.9525 18.5647 15.5341L17.7381 16.3607ZM18.0233 17.0494C18.0233 17.2995 17.9282 17.548 17.7381 17.7381L18.5647 18.5639C18.7639 18.3653 18.9212 18.1292 19.0289 17.8693C19.1367 17.6094 19.192 17.3308 19.1919 17.0494H18.0233ZM15.4913 16.4651H13.1541V17.6337H15.4913V16.4651ZM16.3607 17.7381C16.2701 17.6478 16.1982 17.5405 16.1493 17.4223C16.1004 17.3041 16.0753 17.1774 16.0756 17.0494H14.907C14.907 17.5971 15.1165 18.1463 15.5341 18.5647L16.3607 17.7381ZM16.0756 17.0494C16.0756 16.7993 16.1706 16.5508 16.3607 16.3607L15.5341 15.5349C15.3349 15.7336 15.1777 15.9697 15.0699 16.2296C14.9622 16.4894 14.9068 16.7681 14.907 17.0494H16.0756ZM7.01188 17.7381C6.92125 17.6478 6.84939 17.5405 6.80046 17.4223C6.75152 17.3041 6.72646 17.1774 6.72674 17.0494H5.55814C5.55814 17.5971 5.76771 18.1463 6.18529 18.5647L7.01188 17.7381ZM6.72674 17.0494C6.72674 16.7993 6.82179 16.5508 7.01188 16.3607L6.18529 15.5349C5.98611 15.7336 5.8289 15.9697 5.72114 16.2296C5.61339 16.4895 5.558 16.7681 5.55814 17.0494H6.72674ZM13.1541 16.4651H9.25872V17.6337H13.1541V16.4651ZM8.38928 16.3607C8.57937 16.5508 8.67442 16.7993 8.67442 17.0494H9.84302C9.84302 16.5017 9.63345 15.9525 9.21587 15.5341L8.38928 16.3607ZM8.67442 17.0494C8.67442 17.2995 8.57937 17.548 8.38928 17.7381L9.21587 18.5639C9.41505 18.3652 9.57227 18.1292 9.68002 17.8693C9.78777 17.6094 9.84317 17.3308 9.84302 17.0494H8.67442ZM19.5814 15.4913C19.5814 16.0288 19.1451 16.4651 18.6076 16.4651V17.6337C19.1758 17.6337 19.7207 17.408 20.1225 17.0062C20.5243 16.6044 20.75 16.0595 20.75 15.4913H19.5814ZM17.0494 9.84302C17.7209 9.84302 18.365 10.1098 18.8398 10.5846C19.3146 11.0595 19.5814 11.7035 19.5814 12.375H20.75C20.75 11.3935 20.3601 10.4523 19.6661 9.75829C18.9721 9.0643 18.0309 8.67442 17.0494 8.67442V9.84302ZM4 15.4913C4 16.0595 4.22572 16.6044 4.62751 17.0062C5.02929 17.408 5.57423 17.6337 6.14244 17.6337V16.4651C5.60488 16.4651 5.1686 16.0288 5.1686 15.4913H4Z" fill="#1C1C1C"/>
<path d="M4.5843 4.5843V4C4.42934 4 4.28072 4.06156 4.17114 4.17114C4.06156 4.28072 4 4.42934 4 4.5843H4.5843ZM13.1541 4.5843H13.7384C13.7384 4.42934 13.6768 4.28072 13.5672 4.17114C13.4577 4.06156 13.309 4 13.1541 4V4.5843ZM13.1541 9.25872V8.67442C12.9991 8.67442 12.8505 8.73598 12.7409 8.84556C12.6313 8.95514 12.5698 9.10375 12.5698 9.25872H13.1541ZM4.5843 5.1686H13.1541V4H4.5843V5.1686ZM12.5698 4.5843V17.0494H13.7384V4.5843H12.5698ZM5.1686 15.4913V4.5843H4V15.4913H5.1686ZM13.1541 9.84302H17.0494V8.67442H13.1541V9.84302ZM19.5814 12.375V15.4913H20.75V12.375H19.5814ZM13.7384 17.0494V9.25872H12.5698V17.0494H13.7384ZM17.7381 17.7381C17.6477 17.8286 17.5403 17.9003 17.4221 17.9493C17.304 17.9982 17.1773 18.0234 17.0494 18.0234C16.9215 18.0234 16.7949 17.9982 16.6767 17.9493C16.5585 17.9003 16.4512 17.8286 16.3607 17.7381L15.5349 18.5639C15.9367 18.9657 16.4816 19.1914 17.0498 19.1914C17.618 19.1914 18.1629 18.9657 18.5647 18.5639L17.7381 17.7381ZM16.3607 16.3607C16.4512 16.2703 16.5585 16.1985 16.6767 16.1496C16.7949 16.1006 16.9215 16.0754 17.0494 16.0754C17.1773 16.0754 17.304 16.1006 17.4221 16.1496C17.5403 16.1985 17.6477 16.2703 17.7381 16.3607L18.5639 15.5349C18.1621 15.1331 17.6172 14.9074 17.049 14.9074C16.4808 14.9074 15.9359 15.1331 15.5341 15.5349L16.3607 16.3607ZM8.38928 17.7381C8.29885 17.8286 8.19148 17.9003 8.07331 17.9493C7.95514 17.9982 7.82849 18.0234 7.70058 18.0234C7.57267 18.0234 7.44602 17.9982 7.32785 17.9493C7.20968 17.9003 7.10232 17.8286 7.01188 17.7381L6.18607 18.5639C6.58785 18.9657 7.13278 19.1914 7.70097 19.1914C8.26917 19.1914 8.81409 18.9657 9.21587 18.5639L8.38928 17.7381ZM7.01188 16.3607C7.10232 16.2703 7.20968 16.1985 7.32785 16.1496C7.44602 16.1006 7.57267 16.0754 7.70058 16.0754C7.82849 16.0754 7.95514 16.1006 8.07331 16.1496C8.19148 16.1985 8.29885 16.2703 8.38928 16.3607L9.21509 15.5349C8.81331 15.1331 8.26839 14.9074 7.70019 14.9074C7.132 14.9074 6.58707 15.1331 6.18529 15.5349L7.01188 16.3607ZM17.7381 16.3607C17.9282 16.5508 18.0233 16.7993 18.0233 17.0494H19.1919C19.1919 16.5017 18.9823 15.9525 18.5647 15.5341L17.7381 16.3607ZM18.0233 17.0494C18.0233 17.2995 17.9282 17.548 17.7381 17.7381L18.5647 18.5639C18.7639 18.3653 18.9212 18.1292 19.0289 17.8693C19.1367 17.6094 19.192 17.3308 19.1919 17.0494H18.0233ZM15.4913 16.4651H13.1541V17.6337H15.4913V16.4651ZM16.3607 17.7381C16.2701 17.6478 16.1982 17.5405 16.1493 17.4223C16.1004 17.3041 16.0753 17.1774 16.0756 17.0494H14.907C14.907 17.5971 15.1165 18.1463 15.5341 18.5647L16.3607 17.7381ZM16.0756 17.0494C16.0756 16.7993 16.1706 16.5508 16.3607 16.3607L15.5341 15.5349C15.3349 15.7336 15.1777 15.9697 15.0699 16.2296C14.9622 16.4894 14.9068 16.7681 14.907 17.0494H16.0756ZM7.01188 17.7381C6.92125 17.6478 6.84939 17.5405 6.80046 17.4223C6.75152 17.3041 6.72646 17.1774 6.72674 17.0494H5.55814C5.55814 17.5971 5.76771 18.1463 6.18529 18.5647L7.01188 17.7381ZM6.72674 17.0494C6.72674 16.7993 6.82179 16.5508 7.01188 16.3607L6.18529 15.5349C5.98611 15.7336 5.8289 15.9697 5.72114 16.2296C5.61339 16.4895 5.558 16.7681 5.55814 17.0494H6.72674ZM13.1541 16.4651H9.25872V17.6337H13.1541V16.4651ZM8.38928 16.3607C8.57937 16.5508 8.67442 16.7993 8.67442 17.0494H9.84302C9.84302 16.5017 9.63345 15.9525 9.21587 15.5341L8.38928 16.3607ZM8.67442 17.0494C8.67442 17.2995 8.57937 17.548 8.38928 17.7381L9.21587 18.5639C9.41505 18.3652 9.57227 18.1292 9.68002 17.8693C9.78777 17.6094 9.84317 17.3308 9.84302 17.0494H8.67442ZM19.5814 15.4913C19.5814 16.0288 19.1451 16.4651 18.6076 16.4651V17.6337C19.1758 17.6337 19.7207 17.408 20.1225 17.0062C20.5243 16.6044 20.75 16.0595 20.75 15.4913H19.5814ZM17.0494 9.84302C17.7209 9.84302 18.365 10.1098 18.8398 10.5846C19.3146 11.0595 19.5814 11.7035 19.5814 12.375H20.75C20.75 11.3935 20.3601 10.4523 19.6661 9.75829C18.9721 9.0643 18.0309 8.67442 17.0494 8.67442V9.84302ZM4 15.4913C4 16.0595 4.22572 16.6044 4.62751 17.0062C5.02929 17.408 5.57423 17.6337 6.14244 17.6337V16.4651C5.60488 16.4651 5.1686 16.0288 5.1686 15.4913H4Z" fill="black" fill-opacity="0.2"/>
<path d="M4.58398 8.47949H6.92119M4.58398 11.5958H8.47933" stroke="#1C1C1C" stroke-width="1.1686" stroke-linecap="round" stroke-linejoin="round"/>
<path d="M4.58398 8.47949H6.92119M4.58398 11.5958H8.47933" stroke="black" stroke-opacity="0.2" stroke-width="1.1686" stroke-linecap="round" stroke-linejoin="round"/>
</svg>
