<svg width="20" height="20" viewBox="0 0 20 20" fill="none" xmlns="http://www.w3.org/2000/svg">
<path d="M15.3567 7.69518L7.01958 16.0323C7.00677 16.0451 6.99072 16.0542 6.97314 16.0586L3.16172 17.0123C3.08848 17.0306 3.02212 16.9643 3.04043 16.891L3.99328 13.0796C3.99768 13.062 4.00677 13.046 4.01958 13.0331L13 4.05185C13.6667 3.38519 15.3 2.35185 16.5 3.55185C17.7 4.75185 17 6.05185 16.5 6.55185L15.3567 7.69518ZM15.3567 7.69518L14.2142 6.55273" stroke="#1C1C1C" stroke-linecap="round"/>
<path d="M15.3567 7.69518L7.01958 16.0323C7.00677 16.0451 6.99072 16.0542 6.97314 16.0586L3.16172 17.0123C3.08848 17.0306 3.02212 16.9643 3.04043 16.891L3.99328 13.0796C3.99768 13.062 4.00677 13.046 4.01958 13.0331L13 4.05185C13.6667 3.38519 15.3 2.35185 16.5 3.55185C17.7 4.75185 17 6.05185 16.5 6.55185L15.3567 7.69518ZM15.3567 7.69518L14.2142 6.55273" stroke="black" stroke-opacity="0.2" stroke-linecap="round"/>
</svg>
