<svg width="16" height="16" viewBox="0 0 16 16" fill="none" xmlns="http://www.w3.org/2000/svg">
    <path
        d="M13.3567 5.69518L5.01958 14.0323C5.00677 14.0451 4.99072 14.0542 4.97314 14.0586L1.16172 15.0123C1.08848 15.0306 1.02212 14.9643 1.04043 14.891L1.99328 11.0796C1.99768 11.062 2.00677 11.046 2.01958 11.0331L11 2.05185C11.6667 1.38519 13.3 0.351852 14.5 1.55185C15.7 2.75185 15 4.05185 14.5 4.55185L13.3567 5.69518ZM13.3567 5.69518L12.2142 4.55273"
        stroke="#1C1C1C" stroke-linecap="round" />
    <path
        d="M13.3567 5.69518L5.01958 14.0323C5.00677 14.0451 4.99072 14.0542 4.97314 14.0586L1.16172 15.0123C1.08848 15.0306 1.02212 14.9643 1.04043 14.891L1.99328 11.0796C1.99768 11.062 2.00677 11.046 2.01958 11.0331L11 2.05185C11.6667 1.38519 13.3 0.351852 14.5 1.55185C15.7 2.75185 15 4.05185 14.5 4.55185L13.3567 5.69518ZM13.3567 5.69518L12.2142 4.55273"
        stroke="black" stroke-opacity="0.2" stroke-linecap="round" />
</svg>