<svg width="28" height="39" viewBox="0 0 28 39" fill="none" xmlns="http://www.w3.org/2000/svg">
    <path fill-rule="evenodd" clip-rule="evenodd"
        d="M17.0058 0.0147185C17.0112 0.00928697 17.0074 0 16.9997 0H2C0.895431 0 0 0.89543 0 2V37C0 38.1046 0.895431 39 2 39H26C27.1046 39 28 38.1046 28 37V11.8495C28 11.3191 27.7893 10.8104 27.4142 10.4353L17.0058 0.0269121C17.0024 0.0235451 17.0024 0.0180855 17.0058 0.0147185Z"
        fill="#EFF4F6" />
    <g filter="url(#filter0_i_1195_48010)">
        <path d="M17 0L28 11H17V0Z" fill="#B2B9BF" />
    </g>
    <path d="M28 18L21 11L28 11L28 18Z" fill="#CAD1D7" />
    <defs>
        <filter id="filter0_i_1195_48010" x="16" y="0" width="12" height="11"
            filterUnits="userSpaceOnUse" color-interpolation-filters="sRGB">
            <feFlood flood-opacity="0" result="BackgroundImageFix" />
            <feBlend mode="normal" in="SourceGraphic" in2="BackgroundImageFix" result="shape" />
            <feColorMatrix in="SourceAlpha" type="matrix"
                values="0 0 0 0 0 0 0 0 0 0 0 0 0 0 0 0 0 0 127 0" result="hardAlpha" />
            <feOffset dx="-1" />
            <feGaussianBlur stdDeviation="1.1" />
            <feComposite in2="hardAlpha" operator="arithmetic" k2="-1" k3="1" />
            <feColorMatrix type="matrix" values="0 0 0 0 0 0 0 0 0 0 0 0 0 0 0 0 0 0 0.1 0" />
            <feBlend mode="normal" in2="shape" result="effect1_innerShadow_1195_48010" />
        </filter>
    </defs>
</svg>