<svg width="16" height="16" viewBox="0 0 16 16" fill="none" xmlns="http://www.w3.org/2000/svg">
<path d="M16 4.81252C16 4.22423 15.5523 3.74727 15 3.74727H13.293C13.7348 3.28309 14.0175 2.67458 14.0175 1.92517C14.0175 1.0024 13.52 0 12.1235 0C10.286 0 8.751 2.08415 8.02975 3.25246C7.308 2.08442 5.726 0.000266292 3.88875 0.000266292C2.49225 0.000266292 1.99475 1.00266 1.99475 1.92543C1.99475 2.67457 2.28525 3.28336 2.736 3.74754H1C0.44775 3.74754 0 4.2245 0 4.81278V8.00133H1.00875V14.9348C1.00875 15.523 1.45648 16 2.00875 16H14.0038C14.556 16 15.0038 15.523 15.0038 14.9348V8.00107H16L16 4.81252ZM12.1235 1.06551C12.7418 1.06551 13.0175 1.34223 13.0175 1.92545C13.0175 3.10867 11.7778 3.747 10.6118 3.747H8.919C9.62949 2.6229 10.88 1.06551 12.1235 1.06551ZM3.88873 1.06553C5.13248 1.06553 6.43022 2.62292 7.14072 3.74675H5.44747C4.28147 3.74675 2.99472 3.09189 2.99472 1.90867C2.99472 1.32572 3.27047 1.06553 3.88873 1.06553ZM15 6.93582H8.49998V4.81252H15V6.93582ZM0.999985 4.81252H7.49999V6.93582H0.999985V4.81252ZM2.00873 8.00107H7.49999V14.9345H2.00873V8.00107ZM14.004 14.9345H8.49998V8.00107H14.004V14.9345Z" fill="#6172F3"/>
</svg>
