<svg width="24" height="24" viewBox="0 0 24 24" fill="none" xmlns="http://www.w3.org/2000/svg">
    <path
        d="M11.9051 17.3379C8.93731 15.424 5.76124 16.3746 4.28232 17.2257C4.15925 17.2965 4 17.21 4 17.068V7.2878C4 7.22046 4.03751 7.15906 4.09796 7.1294C5.8601 6.26491 8.46462 5.44567 11.9115 7.13412C11.9661 7.16087 12.0324 7.15832 12.0849 7.12759C15.539 5.10443 18.6993 6.24955 19.9293 7.12622C19.9748 7.1587 20 7.20887 20 7.26482V17.0963C20 17.2328 19.852 17.3161 19.7317 17.2517C16.78 15.6727 14.235 16.0921 12.0968 17.3428C12.0375 17.3775 11.9628 17.3751 11.9051 17.3379Z"
        stroke="currentColor" stroke-width="0.888889" stroke-linecap="round" />
    <path
        d="M11.9051 17.3379C8.93731 15.424 5.76124 16.3746 4.28232 17.2257C4.15925 17.2965 4 17.21 4 17.068V7.2878C4 7.22046 4.03751 7.15906 4.09796 7.1294C5.8601 6.26491 8.46462 5.44567 11.9115 7.13412C11.9661 7.16087 12.0324 7.15832 12.0849 7.12759C15.539 5.10443 18.6993 6.24955 19.9293 7.12622C19.9748 7.1587 20 7.20887 20 7.26482V17.0963C20 17.2328 19.852 17.3161 19.7317 17.2517C16.78 15.6727 14.235 16.0921 12.0968 17.3428C12.0375 17.3775 11.9628 17.3751 11.9051 17.3379Z"
        stroke="currentColor" stroke-opacity="0.2" stroke-width="0.888889" stroke-linecap="round" />
    <path d="M12 7.33203V17.1098" stroke="currentColor" stroke-width="0.888889"
        stroke-linecap="round" />
    <path d="M12 7.33203V17.1098" stroke="currentColor" stroke-opacity="0.2" stroke-width="0.888889"
        stroke-linecap="round" />
</svg>