<svg width="24" height="24" viewBox="0 0 24 24" fill="none" xmlns="http://www.w3.org/2000/svg">
<path fill-rule="evenodd" clip-rule="evenodd" d="M7.46386 6H15.6787C15.8641 5.99984 16.0454 6.0541 16.2002 6.15605C16.3549 6.25801 16.4764 6.40317 16.5494 6.57353L19.1426 12.6249V16.4105C19.1426 16.9125 18.9432 17.394 18.5882 17.7489C18.2332 18.1039 17.7518 18.3033 17.2498 18.3033H5.89282C5.39081 18.3033 4.90937 18.1039 4.55439 17.7489C4.19942 17.394 4 16.9125 4 16.4105V12.6249L6.59317 6.57353C6.66619 6.40317 6.78763 6.25801 6.94242 6.15605C7.0972 6.0541 7.27852 5.99984 7.46386 6Z" stroke="#1C1C1C" stroke-linecap="round" stroke-linejoin="round"/>
<path fill-rule="evenodd" clip-rule="evenodd" d="M7.46386 6H15.6787C15.8641 5.99984 16.0454 6.0541 16.2002 6.15605C16.3549 6.25801 16.4764 6.40317 16.5494 6.57353L19.1426 12.6249V16.4105C19.1426 16.9125 18.9432 17.394 18.5882 17.7489C18.2332 18.1039 17.7518 18.3033 17.2498 18.3033H5.89282C5.39081 18.3033 4.90937 18.1039 4.55439 17.7489C4.19942 17.394 4 16.9125 4 16.4105V12.6249L6.59317 6.57353C6.66619 6.40317 6.78763 6.25801 6.94242 6.15605C7.0972 6.0541 7.27852 5.99984 7.46386 6Z" stroke="black" stroke-opacity="0.2" stroke-linecap="round" stroke-linejoin="round"/>
<path d="M4 12.6248H7.78564C8.03665 12.6248 8.27737 12.7245 8.45486 12.902C8.63234 13.0794 8.73206 13.3202 8.73206 13.5712V14.5176C8.73206 14.7686 8.83177 15.0093 9.00925 15.1868C9.18674 15.3643 9.42746 15.464 9.67847 15.464H13.4641C13.7151 15.464 13.9558 15.3643 14.1333 15.1868C14.3108 15.0093 14.4105 14.7686 14.4105 14.5176V13.5712C14.4105 13.3202 14.5102 13.0794 14.6877 12.902C14.8652 12.7245 15.1059 12.6248 15.3569 12.6248H19.1426" stroke="#1C1C1C" stroke-linecap="round" stroke-linejoin="round"/>
<path d="M4 12.6248H7.78564C8.03665 12.6248 8.27737 12.7245 8.45486 12.902C8.63234 13.0794 8.73206 13.3202 8.73206 13.5712V14.5176C8.73206 14.7686 8.83177 15.0093 9.00925 15.1868C9.18674 15.3643 9.42746 15.464 9.67847 15.464H13.4641C13.7151 15.464 13.9558 15.3643 14.1333 15.1868C14.3108 15.0093 14.4105 14.7686 14.4105 14.5176V13.5712C14.4105 13.3202 14.5102 13.0794 14.6877 12.902C14.8652 12.7245 15.1059 12.6248 15.3569 12.6248H19.1426" stroke="black" stroke-opacity="0.2" stroke-linecap="round" stroke-linejoin="round"/>
</svg>
