<svg width="24" height="24" viewBox="0 0 24 24" fill="none" xmlns="http://www.w3.org/2000/svg">
    <path
        d="M6 15.3137C6 15.08 6.18942 14.8906 6.42308 14.8906C6.65674 14.8906 6.84615 15.08 6.84615 15.3137V19.9675H6V15.3137Z"
        fill="currentColor" />
    <path
        d="M6 15.3137C6 15.08 6.18942 14.8906 6.42308 14.8906C6.65674 14.8906 6.84615 15.08 6.84615 15.3137V19.9675H6V15.3137Z"
        fill="currentColor" fill-opacity="0.2" />
    <path
        d="M9.38477 13.6184C9.38477 13.3847 9.57418 13.1953 9.80784 13.1953C10.0415 13.1953 10.2309 13.3847 10.2309 13.6184V19.9645H9.38477V13.6184Z"
        fill="currentColor" />
    <path
        d="M9.38477 13.6184C9.38477 13.3847 9.57418 13.1953 9.80784 13.1953C10.0415 13.1953 10.2309 13.3847 10.2309 13.6184V19.9645H9.38477V13.6184Z"
        fill="currentColor" fill-opacity="0.2" />
    <path
        d="M12.7695 11.0793C12.7695 10.8457 12.9589 10.6562 13.1926 10.6562C13.4263 10.6562 13.6157 10.8457 13.6157 11.0793V19.9639H12.7695V11.0793Z"
        fill="currentColor" />
    <path
        d="M12.7695 11.0793C12.7695 10.8457 12.9589 10.6562 13.1926 10.6562C13.4263 10.6562 13.6157 10.8457 13.6157 11.0793V19.9639H12.7695V11.0793Z"
        fill="currentColor" fill-opacity="0.2" />
    <path
        d="M16.1543 9.39183C16.1543 9.15817 16.3437 8.96875 16.5774 8.96875C16.811 8.96875 17.0005 9.15817 17.0005 9.39183V19.9688H16.1543V9.39183Z"
        fill="currentColor" />
    <path
        d="M16.1543 9.39183C16.1543 9.15817 16.3437 8.96875 16.5774 8.96875C16.811 8.96875 17.0005 9.15817 17.0005 9.39183V19.9688H16.1543V9.39183Z"
        fill="currentColor" fill-opacity="0.2" />
    <path fill-rule="evenodd" clip-rule="evenodd"
        d="M11.9482 5.09853C11.9809 4.86716 12.1949 4.70607 12.4263 4.73872L14.9398 5.09345C15.0732 5.11228 15.1832 5.19138 15.2462 5.29934C15.2928 5.37879 15.3139 5.47396 15.3001 5.57225L14.9453 8.0858C14.9127 8.31717 14.6986 8.47826 14.4673 8.4456C14.2359 8.41295 14.0748 8.19892 14.1075 7.96756L14.3192 6.46703L6.81827 11.6363C6.62588 11.7688 6.36242 11.7204 6.22984 11.528C6.09725 11.3356 6.14573 11.0721 6.33813 10.9395L13.8122 5.78885L12.308 5.57657C12.0767 5.54392 11.9156 5.32989 11.9482 5.09853Z"
        fill="currentColor" />
    <path fill-rule="evenodd" clip-rule="evenodd"
        d="M11.9482 5.09853C11.9809 4.86716 12.1949 4.70607 12.4263 4.73872L14.9398 5.09345C15.0732 5.11228 15.1832 5.19138 15.2462 5.29934C15.2928 5.37879 15.3139 5.47396 15.3001 5.57225L14.9453 8.0858C14.9127 8.31717 14.6986 8.47826 14.4673 8.4456C14.2359 8.41295 14.0748 8.19892 14.1075 7.96756L14.3192 6.46703L6.81827 11.6363C6.62588 11.7688 6.36242 11.7204 6.22984 11.528C6.09725 11.3356 6.14573 11.0721 6.33813 10.9395L13.8122 5.78885L12.308 5.57657C12.0767 5.54392 11.9156 5.32989 11.9482 5.09853Z"
        fill="currentColor" fill-opacity="0.2" />
</svg>