<svg width="24" height="24" viewBox="0 0 24 24" fill="none" xmlns="http://www.w3.org/2000/svg">
    <path
        d="M12 20C16.4183 20 20 16.4183 20 12C20 7.58172 16.4183 4 12 4C7.58172 4 4 7.58172 4 12C4 16.4183 7.58172 20 12 20Z"
        stroke="currentColor" stroke-linecap="round" stroke-linejoin="round" />
    <path
        d="M12 20C16.4183 20 20 16.4183 20 12C20 7.58172 16.4183 4 12 4C7.58172 4 4 7.58172 4 12C4 16.4183 7.58172 20 12 20Z"
        stroke="currentColor" stroke-opacity="0.2" stroke-linecap="round" stroke-linejoin="round" />
    <path d="M12 16V12H11M11 16H13" stroke="currentColor" stroke-linecap="round"
        stroke-linejoin="round" />
    <path d="M12 16V12H11M11 16H13" stroke="currentColor" stroke-opacity="0.2"
        stroke-linecap="round"
        stroke-linejoin="round" />
    <path
        d="M12 10C12.5523 10 13 9.55228 13 9C13 8.44772 12.5523 8 12 8C11.4477 8 11 8.44772 11 9C11 9.55228 11.4477 10 12 10Z"
        fill="currentColor" />
    <path
        d="M12 10C12.5523 10 13 9.55228 13 9C13 8.44772 12.5523 8 12 8C11.4477 8 11 8.44772 11 9C11 9.55228 11.4477 10 12 10Z"
        fill="currentColor" fill-opacity="0.2" />
</svg>