<svg width="22" height="22" viewBox="0 0 22 22" fill="none" xmlns="http://www.w3.org/2000/svg">
<path d="M11 21C16.5228 21 21 16.5228 21 11C21 5.47715 16.5228 1 11 1C5.47715 1 1 5.47715 1 11C1 16.5228 5.47715 21 11 21Z" fill="white" stroke="white" stroke-width="1.41667" stroke-linecap="round" stroke-linejoin="round"/>
<path d="M11 16V11H9.75M9.75 16H12.25" stroke="#616161" stroke-width="1.41667" stroke-linecap="round" stroke-linejoin="round"/>
<path d="M11.5378 7.25C11.5378 7.54915 11.2952 7.79167 10.9961 7.79167C10.6969 7.79167 10.4544 7.54915 10.4544 7.25C10.4544 6.95085 10.6969 6.70833 10.9961 6.70833C11.2952 6.70833 11.5378 6.95085 11.5378 7.25Z" fill="#616161" stroke="#616161" stroke-width="1.41667"/>
</svg>
