<svg width="18" height="18" viewBox="0 0 18 18" fill="none" xmlns="http://www.w3.org/2000/svg">
<path d="M9.00391 17.0039C13.4222 17.0039 17.0039 13.4222 17.0039 9.00391C17.0039 4.58563 13.4222 1.00391 9.00391 1.00391C4.58563 1.00391 1.00391 4.58563 1.00391 9.00391C1.00391 13.4222 4.58563 17.0039 9.00391 17.0039Z" stroke="#1F235B" stroke-linecap="round" stroke-linejoin="round"/>
<path d="M9.00391 13.0078V9.00781H8.00391M8.00391 13.0078H10.0039" stroke="#1F235B" stroke-width="1.41667" stroke-linecap="round" stroke-linejoin="round"/>
<path d="M9.00391 7.00391C9.55619 7.00391 10.0039 6.55619 10.0039 6.00391C10.0039 5.45162 9.55619 5.00391 9.00391 5.00391C8.45162 5.00391 8.00391 5.45162 8.00391 6.00391C8.00391 6.55619 8.45162 7.00391 9.00391 7.00391Z" fill="#1F235B"/>
</svg>
