<svg width="24" height="24" viewBox="0 0 24 24" fill="none" xmlns="http://www.w3.org/2000/svg">
<path fill-rule="evenodd" clip-rule="evenodd" d="M11.9287 19.8494L12.5522 19.1469C13.2597 18.3366 13.8961 17.5679 14.4622 16.8366L14.9296 16.2201C16.8812 13.5907 17.8574 11.5038 17.8574 9.96132C17.8574 6.66891 15.2033 4 11.9287 4C8.65409 4 6 6.66891 6 9.96132C6 11.5038 6.97626 13.5907 8.9278 16.2201L9.39518 16.8366C10.2029 17.8716 11.048 18.8759 11.9287 19.8494Z" stroke="#1C1C1C" stroke-linecap="round" stroke-linejoin="round"/>
<path fill-rule="evenodd" clip-rule="evenodd" d="M11.9287 19.8494L12.5522 19.1469C13.2597 18.3366 13.8961 17.5679 14.4622 16.8366L14.9296 16.2201C16.8812 13.5907 17.8574 11.5038 17.8574 9.96132C17.8574 6.66891 15.2033 4 11.9287 4C8.65409 4 6 6.66891 6 9.96132C6 11.5038 6.97626 13.5907 8.9278 16.2201L9.39518 16.8366C10.2029 17.8716 11.048 18.8759 11.9287 19.8494Z" stroke="black" stroke-opacity="0.2" stroke-linecap="round" stroke-linejoin="round"/>
<path d="M11.9283 12.3991C13.2926 12.3991 14.3986 11.2931 14.3986 9.92879C14.3986 8.56449 13.2926 7.4585 11.9283 7.4585C10.564 7.4585 9.45801 8.56449 9.45801 9.92879C9.45801 11.2931 10.564 12.3991 11.9283 12.3991Z" stroke="#1C1C1C" stroke-linecap="round" stroke-linejoin="round"/>
<path d="M11.9283 12.3991C13.2926 12.3991 14.3986 11.2931 14.3986 9.92879C14.3986 8.56449 13.2926 7.4585 11.9283 7.4585C10.564 7.4585 9.45801 8.56449 9.45801 9.92879C9.45801 11.2931 10.564 12.3991 11.9283 12.3991Z" stroke="black" stroke-opacity="0.2" stroke-linecap="round" stroke-linejoin="round"/>
</svg>
