<svg width="141" height="26" viewBox="0 0 141 26" fill="none" xmlns="http://www.w3.org/2000/svg">
<path d="M0.0188807 7.11199C1.46685 0.265791 12.568 0.200645 17.6842 1.34167C8.89972 3.10208 7.03356 7.50324 7.06574 9.45928C7.16227 10.565 8.62954 12.9932 13.7264 13.8604C18.8232 14.7276 19.4216 17.5769 18.4563 19.5329C14.3055 26.5747 5.10294 25.6293 0.98428 24.2275C3.36538 23.7385 8.64885 21.9976 10.7339 18.9461C13.3403 15.1318 10.6374 13.567 5.32818 12.1978C1.08081 11.1024 -0.174243 9.55703 0.0188807 7.11199Z" fill="#424242"/>
<ellipse cx="13.5282" cy="8.57817" rx="2.60634" ry="2.64067" fill="#424242"/>
<ellipse cx="5.23134" cy="17.1836" rx="2.60634" ry="2.64067" fill="#424242"/>
<path d="M28.5385 16.1014H31.3662C31.426 16.5801 31.6168 16.9991 31.9385 17.3581C32.2601 17.7172 32.6865 17.994 33.2176 18.1885C33.7488 18.383 34.3547 18.4802 35.0354 18.4802C35.6713 18.4802 36.2361 18.3792 36.7298 18.1773C37.2235 17.9753 37.6125 17.6985 37.8968 17.3469C38.1811 16.9953 38.3232 16.5951 38.3232 16.1463C38.3232 15.5628 38.0875 15.0877 37.6163 14.7212C37.1525 14.3546 36.4007 14.0517 35.3609 13.8123L33.2625 13.3298C31.7888 13.0006 30.7004 12.4658 29.9972 11.7252C29.294 10.9771 28.9425 10.0009 28.9425 8.79652C28.9425 8.06342 29.0846 7.39764 29.3688 6.79919C29.6531 6.19325 30.0608 5.67709 30.5919 5.25069C31.1231 4.81681 31.7589 4.48392 32.4995 4.25202C33.2401 4.02012 34.063 3.90417 34.9681 3.90417C35.8209 3.90417 36.6026 4.02012 37.3133 4.25202C38.0314 4.48392 38.6561 4.80933 39.1872 5.22825C39.7183 5.64717 40.1372 6.14837 40.444 6.73186C40.7507 7.30787 40.9227 7.94373 40.9601 8.63943H38.1885C38.1212 8.16815 37.9417 7.76045 37.6499 7.41634C37.3657 7.06475 36.9916 6.79545 36.5278 6.60843C36.0715 6.41393 35.5479 6.31668 34.9569 6.31668C34.336 6.31668 33.7937 6.41019 33.3299 6.59721C32.8661 6.78422 32.5032 7.04979 32.2414 7.3939C31.9871 7.73801 31.8599 8.13822 31.8599 8.59454C31.8599 9.14063 32.0806 9.58573 32.5219 9.92984C32.9633 10.2665 33.6852 10.5507 34.6876 10.7826L36.5503 11.209C37.6425 11.4559 38.5326 11.7813 39.2209 12.1853C39.9091 12.5817 40.414 13.0755 40.7357 13.6664C41.0574 14.2574 41.2182 14.9643 41.2182 15.7872C41.2182 16.8345 40.9601 17.7434 40.444 18.5139C39.9278 19.2769 39.1947 19.8679 38.2446 20.2868C37.2946 20.6982 36.165 20.904 34.8559 20.904C33.6141 20.904 32.5294 20.7095 31.6018 20.3205C30.6742 19.924 29.9411 19.3667 29.4025 18.6485C28.8714 17.9304 28.5834 17.0813 28.5385 16.1014ZM48.265 18.5139C48.826 18.5139 49.3272 18.4054 49.7686 18.1885C50.2174 17.9641 50.569 17.6611 50.8234 17.2796C51.0777 16.8981 51.2049 16.4717 51.2049 16.0004V15.0242L48.4333 15.2037C47.6553 15.2561 47.0793 15.4206 46.7053 15.6974C46.3312 15.9742 46.1442 16.3632 46.1442 16.8644C46.1442 17.3806 46.3424 17.7845 46.7389 18.0763C47.1429 18.368 47.6516 18.5139 48.265 18.5139ZM47.4458 20.702C46.6604 20.702 45.9609 20.5524 45.3475 20.2531C44.7341 19.9464 44.2516 19.52 43.9 18.9739C43.5559 18.4204 43.3839 17.7696 43.3839 17.0215C43.3839 15.9144 43.7841 15.0466 44.5845 14.4182C45.3924 13.7899 46.5444 13.4308 48.0406 13.341L51.2049 13.1503V12.1179C51.2049 11.5195 51.0066 11.0594 50.6102 10.7377C50.2137 10.4086 49.6414 10.244 48.8934 10.244C48.25 10.244 47.7189 10.3525 47.3 10.5694C46.8811 10.7864 46.608 11.1043 46.4808 11.5232H43.8551C43.9299 10.8051 44.1918 10.1804 44.6406 9.64931C45.0969 9.11819 45.6991 8.70675 46.4472 8.41501C47.1952 8.12326 48.0555 7.97739 49.028 7.97739C50.0753 7.97739 50.9655 8.14196 51.6986 8.47111C52.4392 8.80026 53.0002 9.27528 53.3817 9.89618C53.7633 10.5096 53.954 11.2502 53.954 12.1179V20.5H51.2722V18.8169H51.0814C50.7373 19.4153 50.2436 19.8791 49.6003 20.2083C48.9644 20.5374 48.2463 20.702 47.4458 20.702ZM57.4213 20.5V3.47778H60.2041V20.5H57.4213ZM68.8779 10.1879C68.3243 10.1879 67.8306 10.3114 67.3967 10.5582C66.9703 10.8051 66.63 11.1529 66.3756 11.6018C66.1213 12.0506 65.9717 12.5742 65.9268 13.1727H71.7056C71.6832 12.5668 71.5522 12.0394 71.3129 11.5905C71.081 11.1417 70.7556 10.7976 70.3366 10.5582C69.9252 10.3114 69.439 10.1879 68.8779 10.1879ZM71.728 17.1225H74.365C74.2004 17.8631 73.8712 18.5064 73.3775 19.0525C72.8838 19.5911 72.2554 20.01 71.4924 20.3092C70.7369 20.601 69.8766 20.7469 68.9116 20.7469C67.7072 20.7469 66.6711 20.4925 65.8034 19.9838C64.9431 19.4752 64.2811 18.7495 63.8173 17.807C63.3535 16.8569 63.1216 15.7236 63.1216 14.407C63.1216 13.0904 63.3535 11.9534 63.8173 10.9958C64.2885 10.0308 64.9543 9.2865 65.8146 8.76286C66.6823 8.23921 67.7072 7.97739 68.8891 7.97739C70.0561 7.97739 71.0548 8.22425 71.8851 8.71797C72.723 9.2117 73.3663 9.92236 73.8151 10.85C74.264 11.7776 74.4884 12.8847 74.4884 14.1714V15.069H65.9156V15.2149C65.938 15.8957 66.0764 16.4866 66.3307 16.9878C66.5926 17.4816 66.9479 17.8631 67.3967 18.1324C67.8531 18.4017 68.3842 18.5363 68.9901 18.5363C69.6783 18.5363 70.2544 18.4166 70.7182 18.1773C71.1894 17.9304 71.5261 17.5788 71.728 17.1225ZM76.8336 16.1014H79.6613C79.7211 16.5801 79.9119 16.9991 80.2335 17.3581C80.5552 17.7172 80.9816 17.994 81.5127 18.1885C82.0439 18.383 82.6498 18.4802 83.3305 18.4802C83.9664 18.4802 84.5312 18.3792 85.0249 18.1773C85.5186 17.9753 85.9076 17.6985 86.1919 17.3469C86.4761 16.9953 86.6183 16.5951 86.6183 16.1463C86.6183 15.5628 86.3826 15.0877 85.9114 14.7212C85.4476 14.3546 84.6957 14.0517 83.6559 13.8123L81.5576 13.3298C80.0839 13.0006 78.9955 12.4658 78.2923 11.7252C77.5891 10.9771 77.2375 10.0009 77.2375 8.79652C77.2375 8.06342 77.3797 7.39764 77.6639 6.79919C77.9482 6.19325 78.3559 5.67709 78.887 5.25069C79.4181 4.81681 80.054 4.48392 80.7946 4.25202C81.5352 4.02012 82.358 3.90417 83.2632 3.90417C84.116 3.90417 84.8977 4.02012 85.6084 4.25202C86.3265 4.48392 86.9512 4.80933 87.4823 5.22825C88.0134 5.64717 88.4323 6.14837 88.739 6.73186C89.0457 7.30787 89.2178 7.94373 89.2552 8.63943H86.4836C86.4163 8.16815 86.2368 7.76045 85.945 7.41634C85.6608 7.06475 85.2867 6.79545 84.8229 6.60843C84.3666 6.41393 83.843 6.31668 83.252 6.31668C82.6311 6.31668 82.0887 6.41019 81.6249 6.59721C81.1611 6.78422 80.7983 7.04979 80.5365 7.3939C80.2822 7.73801 80.155 8.13822 80.155 8.59454C80.155 9.14063 80.3757 9.58573 80.817 9.92984C81.2584 10.2665 81.9803 10.5507 82.9827 10.7826L84.8454 11.209C85.9375 11.4559 86.8277 11.7813 87.516 12.1853C88.2042 12.5817 88.7091 13.0755 89.0308 13.6664C89.3525 14.2574 89.5133 14.9643 89.5133 15.7872C89.5133 16.8345 89.2552 17.7434 88.739 18.5139C88.2229 19.2769 87.4898 19.8679 86.5397 20.2868C85.5897 20.6982 84.4601 20.904 83.151 20.904C81.9092 20.904 80.8245 20.7095 79.8969 20.3205C78.9693 19.924 78.2362 19.3667 77.6976 18.6485C77.1665 17.9304 76.8785 17.0813 76.8336 16.1014ZM103.079 12.3536H100.431C100.304 11.7551 100.012 11.2651 99.5561 10.8836C99.0997 10.5021 98.4901 10.3114 97.727 10.3114C96.7695 10.3114 96.0215 10.6629 95.4829 11.3661C94.9517 12.0693 94.6862 13.0568 94.6862 14.3285C94.6862 15.6151 94.9555 16.6175 95.4941 17.3357C96.0327 18.0538 96.777 18.4129 97.727 18.4129C98.4527 18.4129 99.0474 18.2446 99.5112 17.908C99.9825 17.5713 100.289 17.0851 100.431 16.4492H103.079C102.982 17.302 102.705 18.0538 102.249 18.7046C101.8 19.348 101.194 19.8492 100.431 20.2083C99.6758 20.5673 98.7781 20.7469 97.7383 20.7469C96.504 20.7469 95.4492 20.4925 94.574 19.9838C93.6987 19.4752 93.0292 18.742 92.5654 17.7845C92.1016 16.827 91.8697 15.675 91.8697 14.3285C91.8697 12.9969 92.1016 11.8598 92.5654 10.9173C93.0292 9.96724 93.6987 9.24162 94.574 8.74042C95.4492 8.23173 96.5002 7.97739 97.727 7.97739C98.7743 7.97739 99.6795 8.16441 100.443 8.53844C101.213 8.90499 101.819 9.41741 102.26 10.0757C102.709 10.734 102.982 11.4933 103.079 12.3536ZM111.035 20.7469C109.808 20.7469 108.754 20.4925 107.871 19.9838C106.988 19.4677 106.311 18.7346 105.84 17.7845C105.369 16.827 105.133 15.6862 105.133 14.3621C105.133 13.038 105.372 11.901 105.851 10.9509C106.33 9.99342 107.007 9.26032 107.882 8.75164C108.765 8.23547 109.816 7.97739 111.035 7.97739C112.254 7.97739 113.306 8.23547 114.188 8.75164C115.071 9.26032 115.748 9.99342 116.219 10.9509C116.698 11.901 116.937 13.038 116.937 14.3621C116.937 15.6862 116.698 16.827 116.219 17.7845C115.748 18.7346 115.071 19.4677 114.188 19.9838C113.313 20.4925 112.262 20.7469 111.035 20.7469ZM111.035 18.4129C112.008 18.4129 112.756 18.0613 113.279 17.3581C113.81 16.6475 114.076 15.6488 114.076 14.3621C114.076 13.0829 113.81 12.088 113.279 11.3773C112.748 10.6667 112 10.3114 111.035 10.3114C110.063 10.3114 109.311 10.6667 108.78 11.3773C108.249 12.088 107.983 13.0829 107.983 14.3621C107.983 15.6488 108.249 16.6475 108.78 17.3581C109.311 18.0613 110.063 18.4129 111.035 18.4129ZM130.425 8.22425V20.5H127.743V18.5475H127.552C127.253 19.2507 126.801 19.7931 126.195 20.1746C125.589 20.5561 124.818 20.7469 123.883 20.7469C122.993 20.7469 122.23 20.5673 121.594 20.2083C120.958 19.8492 120.472 19.333 120.135 18.6598C119.799 17.979 119.63 17.1599 119.63 16.2024V8.22425H122.413V15.5067C122.413 16.4417 122.611 17.1412 123.008 17.605C123.404 18.0688 124.018 18.3007 124.848 18.3007C125.753 18.3007 126.445 18.0389 126.924 17.5152C127.403 16.9916 127.642 16.2772 127.642 15.372V8.22425H130.425ZM134.723 5.21703H137.494V8.3028H140.12V10.5246H137.494V16.5502C137.494 17.1561 137.629 17.6012 137.898 17.8855C138.167 18.1623 138.594 18.3007 139.177 18.3007C139.372 18.3007 139.536 18.2969 139.671 18.2895C139.806 18.2745 139.955 18.2595 140.12 18.2446V20.4215C139.918 20.4589 139.69 20.4888 139.435 20.5112C139.189 20.5411 138.93 20.5561 138.661 20.5561C137.719 20.5561 136.959 20.4439 136.383 20.2195C135.807 19.9951 135.385 19.6397 135.115 19.1535C134.854 18.6598 134.723 18.0164 134.723 17.2235V10.5246H132.781V8.3028H134.723V5.21703Z" fill="#424242"/>
</svg>
