<svg width="24" height="24" viewBox="0 0 24 24" fill="none" xmlns="http://www.w3.org/2000/svg">
<path d="M1.71387 11.9999L11.9996 1.71423L22.2853 11.9999M3.99958 13.1428V17.7142C3.99958 18.3204 4.2404 18.9018 4.66905 19.3305C5.09771 19.7591 5.67909 19.9999 6.2853 19.9999H17.7139C18.3201 19.9999 18.9015 19.7591 19.3301 19.3305C19.7588 18.9018 19.9996 18.3204 19.9996 17.7142V13.1428" stroke="#1C1C1C" stroke-linecap="round" stroke-linejoin="round"/>
<path d="M1.71387 11.9999L11.9996 1.71423L22.2853 11.9999M3.99958 13.1428V17.7142C3.99958 18.3204 4.2404 18.9018 4.66905 19.3305C5.09771 19.7591 5.67909 19.9999 6.2853 19.9999H17.7139C18.3201 19.9999 18.9015 19.7591 19.3301 19.3305C19.7588 18.9018 19.9996 18.3204 19.9996 17.7142V13.1428" stroke="black" stroke-opacity="0.2" stroke-linecap="round" stroke-linejoin="round"/>
</svg>
