<svg width="24" height="24" viewBox="0 0 24 24" fill="none" xmlns="http://www.w3.org/2000/svg">
    <path
        d="M11.9998 13.1412C12.631 13.1412 13.1426 12.6295 13.1426 11.9983C13.1426 11.3671 12.631 10.8555 11.9998 10.8555C11.3686 10.8555 10.8569 11.3671 10.8569 11.9983C10.8569 12.6295 11.3686 13.1412 11.9998 13.1412Z"
        fill="currentColor" />
    <path
        d="M11.9998 13.1412C12.631 13.1412 13.1426 12.6295 13.1426 11.9983C13.1426 11.3671 12.631 10.8555 11.9998 10.8555C11.3686 10.8555 10.8569 11.3671 10.8569 11.9983C10.8569 12.6295 11.3686 13.1412 11.9998 13.1412Z"
        fill="currentColor" fill-opacity="0.2" />
    <path
        d="M11.9998 7.42634C12.631 7.42634 13.1426 6.91466 13.1426 6.28348C13.1426 5.6523 12.631 5.14062 11.9998 5.14062C11.3686 5.14062 10.8569 5.6523 10.8569 6.28348C10.8569 6.91466 11.3686 7.42634 11.9998 7.42634Z"
        fill="currentColor" />
    <path
        d="M11.9998 7.42634C12.631 7.42634 13.1426 6.91466 13.1426 6.28348C13.1426 5.6523 12.631 5.14062 11.9998 5.14062C11.3686 5.14062 10.8569 5.6523 10.8569 6.28348C10.8569 6.91466 11.3686 7.42634 11.9998 7.42634Z"
        fill="currentColor" fill-opacity="0.2" />
    <path
        d="M11.9998 18.856C12.631 18.856 13.1426 18.3444 13.1426 17.7132C13.1426 17.082 12.631 16.5703 11.9998 16.5703C11.3686 16.5703 10.8569 17.082 10.8569 17.7132C10.8569 18.3444 11.3686 18.856 11.9998 18.856Z"
        fill="currentColor" />
    <path
        d="M11.9998 18.856C12.631 18.856 13.1426 18.3444 13.1426 17.7132C13.1426 17.082 12.631 16.5703 11.9998 16.5703C11.3686 16.5703 10.8569 17.082 10.8569 17.7132C10.8569 18.3444 11.3686 18.856 11.9998 18.856Z"
        fill="currentColor" fill-opacity="0.2" />
</svg>