
<svg width="19" height="20" viewBox="0 0 19 20" fill="none" xmlns="http://www.w3.org/2000/svg">
<path d="M11.1426 8.85718V19.1429L5.42836 13.4286H1.99979C1.69669 13.4286 1.406 13.3082 1.19167 13.0939C0.977341 12.8795 0.856934 12.5889 0.856934 12.2857V7.71432C0.856934 7.41122 0.977341 7.12053 1.19167 6.9062C1.406 6.69187 1.69669 6.57146 1.99979 6.57146H5.42836L7.14265 4.85718M8.88093 3.11889L11.1426 0.857178V6.57146M4.2855 2.00003L17.9998 15.7143M13.4284 7.71432V8.85718M15.9655 13.6663C15.5804 14.2092 14.7346 14.8926 13.4284 15.7143M13.4284 11.1429V12.2857M16.8569 11.7143V10C16.8569 7.91089 15.9049 6.19661 13.9998 4.85718" stroke="white" stroke-linecap="round" stroke-linejoin="round"/>
</svg>
