<svg width="121" height="120" viewBox="0 0 121 120" fill="none" xmlns="http://www.w3.org/2000/svg">
<path d="M20.5005 42.8532L60.5005 19.9961L94.7405 39.5618C96.4905 40.5615 97.9451 42.0061 98.9567 43.7493C99.9682 45.4924 100.501 47.4721 100.5 49.4875V76.219C100.501 78.2344 99.9682 80.214 98.9567 81.9572C97.9451 83.7004 96.4905 85.145 94.7405 86.1447L66.1691 102.47C64.4426 103.457 62.4887 103.975 60.5005 103.975C58.5122 103.975 56.5584 103.457 54.8319 102.47L26.2605 86.1447C24.5105 85.145 23.0559 83.7004 22.0443 81.9572C21.0327 80.214 20.5001 78.2344 20.5005 76.219V60.2075" stroke="#9E9E9E" stroke-width="3.95082" stroke-linecap="round" stroke-linejoin="round"/>
<path d="M55.0811 62.7986C56.746 63.6949 58.6073 64.164 60.4982 64.164C62.3891 64.164 64.2504 63.6949 65.9153 62.7986L97.6411 45.7129M60.4982 65.7129V102.856" stroke="#9E9E9E" stroke-width="3.95082" stroke-linecap="round" stroke-linejoin="round"/>
<path fill-rule="evenodd" clip-rule="evenodd" d="M20.5003 42.856L60.5003 65.7132L43.3574 71.4275L3.35742 48.5703L20.5003 42.856ZM60.5003 19.9989L100.5 42.856L111.929 31.4275L71.9289 8.57031L60.5003 19.9989Z" stroke="#9E9E9E" stroke-width="3.95082" stroke-linecap="round" stroke-linejoin="round"/>
</svg>
