<svg width="24" height="24" viewBox="0 0 24 24" fill="none" xmlns="http://www.w3.org/2000/svg">
<path d="M12.0013 23.3334C18.2605 23.3334 23.3346 18.2593 23.3346 12.0001C23.3346 5.74085 18.2605 0.666748 12.0013 0.666748C5.74207 0.666748 0.667969 5.74085 0.667969 12.0001C0.667969 18.2593 5.74207 23.3334 12.0013 23.3334Z" fill="#6AB9FF"/>
<path d="M12.0007 17.6668V12.0001H10.584M10.584 17.6668H13.4173" stroke="white" stroke-width="1.41667" stroke-linecap="round" stroke-linejoin="round"/>
<path d="M12.0007 9.16671C12.7831 9.16671 13.4173 8.53244 13.4173 7.75004C13.4173 6.96764 12.7831 6.33337 12.0007 6.33337C11.2182 6.33337 10.584 6.96764 10.584 7.75004C10.584 8.53244 11.2182 9.16671 12.0007 9.16671Z" fill="white"/>
</svg>
