<svg width="24" height="24" viewBox="0 0 24 24" fill="none" xmlns="http://www.w3.org/2000/svg">
    <path
        d="M14.2358 18.5C13.5688 19.5 12.7358 20 11.7358 20C10.7358 20 9.90279 19.5 9.23579 18.5M16.8208 17H6.65079C6.35862 17.0001 6.07166 16.9227 5.81924 16.7756C5.56681 16.6285 5.35796 16.417 5.21405 16.1627C5.07014 15.9085 4.99632 15.6206 5.00014 15.3284C5.00396 15.0363 5.08528 14.7504 5.23579 14.5C6.21722 12.8643 6.73569 10.9926 6.73579 9.085V8C6.73579 6.93913 7.15721 5.92172 7.90736 5.17157C8.6575 4.42143 9.67492 4 10.7358 4H12.7358C13.7967 4 14.8141 4.42143 15.5642 5.17157C16.3144 5.92172 16.7358 6.93913 16.7358 8V9.085C16.7358 10.992 17.2538 12.865 18.2358 14.5C18.3863 14.7504 18.4676 15.0363 18.4714 15.3284C18.4753 15.6206 18.4014 15.9085 18.2575 16.1627C18.1136 16.417 17.9048 16.6285 17.6523 16.7756C17.3999 16.9227 17.1129 17.0001 16.8208 17Z"
        stroke="#1C1C1C" stroke-linecap="round" stroke-linejoin="round" />
    <path
        d="M14.2358 18.5C13.5688 19.5 12.7358 20 11.7358 20C10.7358 20 9.90279 19.5 9.23579 18.5M16.8208 17H6.65079C6.35862 17.0001 6.07166 16.9227 5.81924 16.7756C5.56681 16.6285 5.35796 16.417 5.21405 16.1627C5.07014 15.9085 4.99632 15.6206 5.00014 15.3284C5.00396 15.0363 5.08528 14.7504 5.23579 14.5C6.21722 12.8643 6.73569 10.9926 6.73579 9.085V8C6.73579 6.93913 7.15721 5.92172 7.90736 5.17157C8.6575 4.42143 9.67492 4 10.7358 4H12.7358C13.7967 4 14.8141 4.42143 15.5642 5.17157C16.3144 5.92172 16.7358 6.93913 16.7358 8V9.085C16.7358 10.992 17.2538 12.865 18.2358 14.5C18.3863 14.7504 18.4676 15.0363 18.4714 15.3284C18.4753 15.6206 18.4014 15.9085 18.2575 16.1627C18.1136 16.417 17.9048 16.6285 17.6523 16.7756C17.3999 16.9227 17.1129 17.0001 16.8208 17Z"
        stroke="black" stroke-opacity="0.2" stroke-linecap="round" stroke-linejoin="round" />
</svg>