<svg width="18" height="12" viewBox="0 0 18 12" fill="none" xmlns="http://www.w3.org/2000/svg">
    <path fill-rule="evenodd" clip-rule="evenodd"
        d="M9 11.3529C11.9459 11.3529 14.6122 9.62776 17 6.17647C14.6122 2.72518 11.9459 1 9 1C6.05412 1 3.38776 2.72518 1 6.17647C3.38776 9.62776 6.05412 11.3529 9 11.3529Z"
        stroke="#1C1C1C" stroke-linecap="round" stroke-linejoin="round" />
    <path fill-rule="evenodd" clip-rule="evenodd"
        d="M9 11.3529C11.9459 11.3529 14.6122 9.62776 17 6.17647C14.6122 2.72518 11.9459 1 9 1C6.05412 1 3.38776 2.72518 1 6.17647C3.38776 9.62776 6.05412 11.3529 9 11.3529Z"
        stroke="black" stroke-opacity="0.2" stroke-linecap="round" stroke-linejoin="round" />
    <path fill-rule="evenodd" clip-rule="evenodd"
        d="M8.99899 2.88281C9.17311 2.88281 9.34346 2.89599 9.51005 2.92234C9.44002 3.29796 9.46252 3.68497 9.5756 4.04994C9.68868 4.41491 9.88894 4.74685 10.1591 5.01707C10.4292 5.2873 10.7611 5.48767 11.126 5.60087C11.4909 5.71408 11.8779 5.73671 12.2536 5.66681C12.3578 6.33202 12.2558 7.01321 11.9611 7.61863C11.6664 8.22405 11.1932 8.72462 10.6054 9.05293C10.0175 9.38124 9.34315 9.52152 8.67312 9.45487C8.0031 9.38822 7.36959 9.11784 6.85792 8.68016C6.34625 8.24247 5.98099 7.65849 5.81135 7.00688C5.6417 6.35527 5.67581 5.66732 5.90908 5.03569C6.14236 4.40406 6.56359 3.85908 7.11605 3.47416C7.66851 3.08924 8.32566 2.88286 8.99899 2.88281Z"
        stroke="#1C1C1C" stroke-linecap="round" stroke-linejoin="round" />
    <path fill-rule="evenodd" clip-rule="evenodd"
        d="M8.99899 2.88281C9.17311 2.88281 9.34346 2.89599 9.51005 2.92234C9.44002 3.29796 9.46252 3.68497 9.5756 4.04994C9.68868 4.41491 9.88894 4.74685 10.1591 5.01707C10.4292 5.2873 10.7611 5.48767 11.126 5.60087C11.4909 5.71408 11.8779 5.73671 12.2536 5.66681C12.3578 6.33202 12.2558 7.01321 11.9611 7.61863C11.6664 8.22405 11.1932 8.72462 10.6054 9.05293C10.0175 9.38124 9.34315 9.52152 8.67312 9.45487C8.0031 9.38822 7.36959 9.11784 6.85792 8.68016C6.34625 8.24247 5.98099 7.65849 5.81135 7.00688C5.6417 6.35527 5.67581 5.66732 5.90908 5.03569C6.14236 4.40406 6.56359 3.85908 7.11605 3.47416C7.66851 3.08924 8.32566 2.88286 8.99899 2.88281Z"
        stroke="black" stroke-opacity="0.2" stroke-linecap="round" stroke-linejoin="round" />
</svg>