<svg width="24" height="24" viewBox="0 0 24 24" fill="none" xmlns="http://www.w3.org/2000/svg">
    <path fill-rule="evenodd" clip-rule="evenodd"
        d="M12 20C16.4183 20 20 16.4183 20 12C20 7.58172 16.4183 4 12 4C7.58172 4 4 7.58172 4 12C4 16.4183 7.58172 20 12 20ZM11.9998 19.1128C15.9271 19.1128 19.1109 15.9291 19.1109 12.0017C19.1109 8.07438 15.9271 4.89062 11.9998 4.89062C8.07242 4.89062 4.88867 8.07438 4.88867 12.0017C4.88867 15.9291 8.07242 19.1128 11.9998 19.1128Z"
        fill="currentColor" />
    <path fill-rule="evenodd" clip-rule="evenodd"
        d="M12 20C16.4183 20 20 16.4183 20 12C20 7.58172 16.4183 4 12 4C7.58172 4 4 7.58172 4 12C4 16.4183 7.58172 20 12 20ZM11.9998 19.1128C15.9271 19.1128 19.1109 15.9291 19.1109 12.0017C19.1109 8.07438 15.9271 4.89062 11.9998 4.89062C8.07242 4.89062 4.88867 8.07438 4.88867 12.0017C4.88867 15.9291 8.07242 19.1128 11.9998 19.1128Z"
        fill="currentColor" fill-opacity="0.2" />
    <path d="M9.33398 9.33594H14.6673M9.33398 10.2635H14.6673M12.0007 10.4954V14.6693"
        stroke="currentColor" stroke-width="0.666667" stroke-linecap="round" />
    <path d="M9.33398 9.33594H14.6673M9.33398 10.2635H14.6673M12.0007 10.4954V14.6693"
        stroke="currentColor" stroke-opacity="0.2" stroke-width="0.666667" stroke-linecap="round" />
</svg>