<svg width="24" height="24" viewBox="0 0 24 24" fill="none" xmlns="http://www.w3.org/2000/svg">
    <path
        d="M4.1259 18.783L5.55277 4.9899C5.61095 4.42745 6.0849 4 6.65036 4H16.7979C17.3634 4 17.8373 4.42745 17.8955 4.9899L19.3224 18.783C19.3897 19.4339 18.8791 20 18.2248 20H5.22349C4.56916 20 4.05857 19.4339 4.1259 18.783Z"
        stroke="currentColor" stroke-width="1.10345" stroke-linecap="round" />
    <path
        d="M4.1259 18.783L5.55277 4.9899C5.61095 4.42745 6.0849 4 6.65036 4H16.7979C17.3634 4 17.8373 4.42745 17.8955 4.9899L19.3224 18.783C19.3897 19.4339 18.8791 20 18.2248 20H5.22349C4.56916 20 4.05857 19.4339 4.1259 18.783Z"
        stroke="currentColor" stroke-opacity="0.2" stroke-width="1.10345" stroke-linecap="round" />
    <path
        d="M7.8619 8.41406C7.8328 10.0692 8.92055 10.621 11.7174 10.621C14.482 10.621 15.5787 10.0692 15.6477 8.41406"
        stroke="currentColor" stroke-width="1.10345" stroke-linecap="round" />
    <path
        d="M7.8619 8.41406C7.8328 10.0692 8.92055 10.621 11.7174 10.621C14.482 10.621 15.5787 10.0692 15.6477 8.41406"
        stroke="currentColor" stroke-opacity="0.2" stroke-width="1.10345" stroke-linecap="round" />
</svg>