<svg width="24" height="24" viewBox="0 0 24 24" fill="currentColor"
    xmlns="http://www.w3.org/2000/svg">
    <path fill-rule="evenodd" clip-rule="evenodd"
        d="M12.0703 16.9115L15.6499 18.7649C15.7912 18.838 15.9477 18.8766 16.1067 18.8776C16.2658 18.8787 16.4228 18.8421 16.565 18.7709L19.5837 17.2616C19.7512 17.1779 19.8922 17.0492 19.9907 16.8899C20.0893 16.7306 20.1415 16.547 20.1416 16.3596V13.571C20.1415 13.3837 20.0893 13.2001 19.9907 13.0408C19.8922 12.8815 19.7512 12.7528 19.5837 12.6691L16.106 10.9297L12.6151 12.7377C12.4509 12.8227 12.3133 12.9513 12.2172 13.1093C12.1211 13.2673 12.0703 13.4486 12.0703 13.6336V16.9115Z"
        stroke="currentColor" stroke-linecap="round" stroke-linejoin="round" />
    <path fill-rule="evenodd" clip-rule="evenodd"
        d="M4.54481 17.1935L7.57962 18.7654C7.72087 18.8384 7.8774 18.877 8.03643 18.8781C8.19546 18.8791 8.35249 18.8426 8.4947 18.7714L12.0713 16.9836V13.5715C12.0712 13.3842 12.0189 13.2006 11.9204 13.0413C11.8219 12.882 11.6809 12.7532 11.5134 12.6695L8.03564 10.9301L4.54481 12.7381C4.38062 12.8232 4.24296 12.9517 4.14688 13.1097C4.05079 13.2677 3.99999 13.4491 4 13.634V16.2976C3.99999 16.4825 4.05079 16.6638 4.14688 16.8218C4.24296 16.9798 4.38062 17.1084 4.54481 17.1935ZM8.03564 10.8585L11.6153 12.7119C11.7565 12.7849 11.913 12.8236 12.0721 12.8246C12.2311 12.8257 12.3881 12.7891 12.5303 12.7179L16.1069 10.9301V7.51801C16.1068 7.33069 16.0546 7.1471 15.956 6.9878C15.8575 6.8285 15.7166 6.69977 15.549 6.61604L12.5303 5.10671C12.3881 5.03553 12.2311 4.99897 12.0721 5.00002C11.913 5.00107 11.7565 5.03971 11.6153 5.11276L8.58046 6.68465C8.41626 6.76971 8.2786 6.89827 8.18252 7.05627C8.08644 7.21427 8.03563 7.39564 8.03564 7.58056V10.8585Z"
        stroke="currentColor" stroke-linecap="round" stroke-linejoin="round" />
    <path
        d="M8.3833 7.07031L11.6189 8.6876C11.7589 8.75757 11.9133 8.794 12.0699 8.794C12.2264 8.794 12.3808 8.75757 12.5208 8.6876L15.7221 7.08746M12.4189 13.1238L15.6545 14.7411C15.7946 14.811 15.949 14.8475 16.1055 14.8475C16.2621 14.8475 16.4165 14.811 16.5565 14.7411L19.7568 13.1409M4.34766 13.1238L7.58323 14.7411C7.72327 14.811 7.87767 14.8475 8.03422 14.8475C8.19076 14.8475 8.34516 14.811 8.4852 14.7411L11.6855 13.1409M12.0699 8.91359V12.9492M16.1055 14.9671V18.4982M8.03422 14.9671V18.4982"
        stroke="currentColor" stroke-linecap="round" stroke-linejoin="round" />
</svg>