<svg width="24" height="24" viewBox="0 0 24 24" fill="none" xmlns="http://www.w3.org/2000/svg">
<path fill-rule="evenodd" clip-rule="evenodd" d="M7.29772 5.52786C8.6645 4.53484 10.3106 4 12 4V4.89072C11.9999 4.89072 11.9999 4.89072 11.9998 4.89072C8.07243 4.89072 4.88867 8.07447 4.88867 12.0018C4.88867 15.9292 8.07243 19.1129 11.9998 19.1129C15.9271 19.1129 19.1109 15.9292 19.1109 12.0018C19.1109 11.2341 18.9892 10.4948 18.7642 9.80219L19.6085 9.52786C20.1305 11.1346 20.1305 12.8654 19.6085 14.4721C19.0864 16.0789 18.0691 17.4791 16.7023 18.4721C15.3355 19.4652 13.6894 20 12 20C10.3106 20 8.6645 19.4652 7.29772 18.4721C5.93094 17.4791 4.91361 16.0789 4.39155 14.4721C3.86948 12.8654 3.86948 11.1346 4.39155 9.52786C4.91361 7.92112 5.93094 6.52089 7.29772 5.52786Z" fill="#1C1C1C"/>
<path fill-rule="evenodd" clip-rule="evenodd" d="M7.29772 5.52786C8.6645 4.53484 10.3106 4 12 4V4.89072C11.9999 4.89072 11.9999 4.89072 11.9998 4.89072C8.07243 4.89072 4.88867 8.07447 4.88867 12.0018C4.88867 15.9292 8.07243 19.1129 11.9998 19.1129C15.9271 19.1129 19.1109 15.9292 19.1109 12.0018C19.1109 11.2341 18.9892 10.4948 18.7642 9.80219L19.6085 9.52786C20.1305 11.1346 20.1305 12.8654 19.6085 14.4721C19.0864 16.0789 18.0691 17.4791 16.7023 18.4721C15.3355 19.4652 13.6894 20 12 20C10.3106 20 8.6645 19.4652 7.29772 18.4721C5.93094 17.4791 4.91361 16.0789 4.39155 14.4721C3.86948 12.8654 3.86948 11.1346 4.39155 9.52786C4.91361 7.92112 5.93094 6.52089 7.29772 5.52786Z" fill="black" fill-opacity="0.2"/>
<path d="M9 9H16M9 10.2174H16M12.5 10.5217V16" stroke="#1C1C1C" stroke-width="0.88" stroke-linecap="round"/>
<path d="M9 9H16M9 10.2174H16M12.5 10.5217V16" stroke="black" stroke-opacity="0.2" stroke-width="0.88" stroke-linecap="round"/>
<path d="M15 1.75L15 7M15 7L20.25 7M15 7L21 1" stroke="#1C1C1C" stroke-width="0.75" stroke-linecap="round" stroke-linejoin="round"/>
<path d="M15 1.75L15 7M15 7L20.25 7M15 7L21 1" stroke="black" stroke-opacity="0.2" stroke-width="0.75" stroke-linecap="round" stroke-linejoin="round"/>
</svg>
