<svg width="24" height="24" viewBox="0 0 24 24" fill="none" xmlns="http://www.w3.org/2000/svg">
<path d="M4 6H6.12429C6.21651 6 6.2943 6.06867 6.30574 6.16018L6.57143 8.28571M6.57143 8.28571L7.2 13.3143C7.2 14.0762 7.74857 15.6 9.94286 15.6C12.1242 15.6 15.0886 15.6 16.3211 15.6C16.3361 15.6 16.3497 15.5983 16.3642 15.5946C16.9824 15.4342 18.2671 14.856 18.6286 13.7714C18.9757 12.7301 19.6248 9.95896 19.9505 8.50717C19.9762 8.39303 19.889 8.28571 19.772 8.28571H6.57143Z" stroke="white" stroke-width="0.914286" stroke-linecap="round"/>
<circle cx="9.02952" cy="17.8869" r="0.914286" fill="white"/>
<circle cx="17.258" cy="17.8869" r="0.914286" fill="white"/>
<path d="M11 12H15" stroke="white" stroke-linecap="round" stroke-linejoin="round"/>
</svg>
