<svg width="24" height="24" viewBox="0 0 24 24" fill="none" xmlns="http://www.w3.org/2000/svg">
    <path fill-rule="evenodd" clip-rule="evenodd"
        d="M12.0002 4C12.4013 4 12.7967 4.02971 13.1819 4.08686L13.7625 5.84571C14.271 5.99086 14.7545 6.19771 15.2025 6.45829L16.871 5.65371C17.4619 6.10743 17.9876 6.64229 18.431 7.24114L17.5967 8.89486C17.8493 9.34743 18.0482 9.83429 18.1842 10.3463L19.9327 10.9554C20.0291 11.6949 20.0226 12.4441 19.9133 13.1817L18.1545 13.7623C18.0103 14.2657 17.8046 14.7493 17.5419 15.2023L18.3465 16.8709C17.8921 17.4619 17.3579 17.9869 16.759 18.4309L15.1053 17.5966C14.6478 17.852 14.1603 18.0494 13.6539 18.184L13.0447 19.9326C12.3053 20.0289 11.5561 20.0224 10.8185 19.9131L10.2379 18.1543C9.73451 18.0101 9.25085 17.8044 8.79789 17.5417L7.12932 18.3463C6.5383 17.892 6.01328 17.3577 5.56932 16.7589L6.4036 15.1051C6.14876 14.6474 5.95146 14.1599 5.81618 13.6537L4.0676 13.0434C3.97137 12.3044 3.97791 11.5556 4.08703 10.8183L5.84589 10.2377C5.99103 9.72914 6.19789 9.24572 6.45846 8.79771L5.65389 7.12914C6.10822 6.53812 6.64247 6.0131 7.24132 5.56914L8.89503 6.40343C9.3525 6.14797 9.84009 5.95063 10.3465 5.816L10.9567 4.06743C11.3027 4.02242 11.6513 3.99989 12.0002 4Z"
        stroke="currentColor" stroke-width="1.06629" stroke-linecap="round" stroke-linejoin="round" />
    <path fill-rule="evenodd" clip-rule="evenodd"
        d="M12.0002 4C12.4013 4 12.7967 4.02971 13.1819 4.08686L13.7625 5.84571C14.271 5.99086 14.7545 6.19771 15.2025 6.45829L16.871 5.65371C17.4619 6.10743 17.9876 6.64229 18.431 7.24114L17.5967 8.89486C17.8493 9.34743 18.0482 9.83429 18.1842 10.3463L19.9327 10.9554C20.0291 11.6949 20.0226 12.4441 19.9133 13.1817L18.1545 13.7623C18.0103 14.2657 17.8046 14.7493 17.5419 15.2023L18.3465 16.8709C17.8921 17.4619 17.3579 17.9869 16.759 18.4309L15.1053 17.5966C14.6478 17.852 14.1603 18.0494 13.6539 18.184L13.0447 19.9326C12.3053 20.0289 11.5561 20.0224 10.8185 19.9131L10.2379 18.1543C9.73451 18.0101 9.25085 17.8044 8.79789 17.5417L7.12932 18.3463C6.5383 17.892 6.01328 17.3577 5.56932 16.7589L6.4036 15.1051C6.14876 14.6474 5.95146 14.1599 5.81618 13.6537L4.0676 13.0434C3.97137 12.3044 3.97791 11.5556 4.08703 10.8183L5.84589 10.2377C5.99103 9.72914 6.19789 9.24572 6.45846 8.79771L5.65389 7.12914C6.10822 6.53812 6.64247 6.0131 7.24132 5.56914L8.89503 6.40343C9.3525 6.14797 9.84009 5.95063 10.3465 5.816L10.9567 4.06743C11.3027 4.02242 11.6513 3.99989 12.0002 4Z"
        stroke="currentColor" stroke-opacity="0.2" stroke-width="1.06629" stroke-linecap="round"
        stroke-linejoin="round" />
    <path
        d="M12.0008 15.4275C13.8944 15.4275 15.4294 13.8924 15.4294 11.9989C15.4294 10.1053 13.8944 8.57031 12.0008 8.57031C10.1073 8.57031 8.57227 10.1053 8.57227 11.9989C8.57227 13.8924 10.1073 15.4275 12.0008 15.4275Z"
        stroke="currentColor" stroke-width="1.14286" stroke-linecap="round" stroke-linejoin="round" />
    <path
        d="M12.0008 15.4275C13.8944 15.4275 15.4294 13.8924 15.4294 11.9989C15.4294 10.1053 13.8944 8.57031 12.0008 8.57031C10.1073 8.57031 8.57227 10.1053 8.57227 11.9989C8.57227 13.8924 10.1073 15.4275 12.0008 15.4275Z"
        stroke="currentColor" stroke-opacity="0.2" stroke-width="1.14286" stroke-linecap="round"
        stroke-linejoin="round" />
</svg>