<svg width="30" height="30" viewBox="0 0 30 30" fill="none" xmlns="http://www.w3.org/2000/svg">
<circle cx="15" cy="15" r="15" fill="#F5F8FF"/>
<path d="M8.01399 10.6859C9.08707 5.61221 17.314 5.56393 21.1056 6.40954C14.5955 7.71416 13.2125 10.9758 13.2364 12.4254C13.3079 13.2449 14.3953 15.0444 18.1725 15.6871C21.9497 16.3297 22.3932 18.4413 21.6778 19.8909C18.6016 25.1095 11.7817 24.4089 8.72944 23.37C10.4941 23.0076 14.4096 21.7174 15.9548 19.456C17.8863 16.6293 15.8833 15.4696 11.9487 14.4549C8.80098 13.6431 7.87087 12.4979 8.01399 10.6859Z" fill="#6172F3"/>
<ellipse cx="18.0292" cy="11.7734" rx="1.93154" ry="1.95698" fill="#6172F3"/>
<ellipse cx="11.8768" cy="18.1523" rx="1.93154" ry="1.95698" fill="#6172F3"/>
</svg>
