<svg width="24" height="24" viewBox="0 0 24 24" fill="none" xmlns="http://www.w3.org/2000/svg">
    <path
        d="M8.5 7.5V16.5M12 11V16.5M15.5 9V16.5M20 6V18C20 19.1046 19.1046 20 18 20H6C4.89543 20 4 19.1046 4 18V6C4 4.89543 4.89543 4 6 4H18C19.1046 4 20 4.89543 20 6Z"
        stroke="currentColor" stroke-linecap="round" />
    <path
        d="M8.5 7.5V16.5M12 11V16.5M15.5 9V16.5M20 6V18C20 19.1046 19.1046 20 18 20H6C4.89543 20 4 19.1046 4 18V6C4 4.89543 4.89543 4 6 4H18C19.1046 4 20 4.89543 20 6Z"
        stroke="currentColor" stroke-opacity="0.2" stroke-linecap="round" />
</svg>