<svg width="24" height="24" viewBox="0 0 24 24" fill="none" xmlns="http://www.w3.org/2000/svg">
<path d="M9 9H16M9 10.2174H16M12.5 10.5217V16" stroke="white" stroke-width="0.875" stroke-linecap="round"/>
<path d="M4.52288 14.16C4.07734 12.2716 4.33326 10.2857 5.24298 8.57194C6.15271 6.8582 7.65425 5.53348 9.46801 4.84443C11.2818 4.15538 13.2841 4.14898 15.1023 4.8264C16.9204 5.50382 18.4304 6.81891 19.3511 8.52679C20.2717 10.2347 20.5404 12.2189 20.1069 14.1101C19.6735 16.0013 18.5675 17.6706 16.9949 18.807C15.4223 19.9435 13.4903 20.4697 11.5587 20.2877C9.62698 20.1057 7.82727 19.2279 6.49464 17.8177" stroke="white" stroke-linecap="round" stroke-linejoin="round"/>
<path d="M7.38306 11.4764L4.47505 14.223L1.72852 11.3149" stroke="white" stroke-linecap="round" stroke-linejoin="round"/>
</svg>
