<svg width="24" height="24" viewBox="0 0 24 24" fill="none" xmlns="http://www.w3.org/2000/svg">
<path fill-rule="evenodd" clip-rule="evenodd" d="M12.668 17.9844L14.2949 18.8268C14.3591 18.86 14.4303 18.8775 14.5026 18.878C14.5748 18.8785 14.6462 18.8619 14.7108 18.8295L16.0828 18.1435C16.159 18.1055 16.2231 18.047 16.2678 17.9746C16.3126 17.9022 16.3364 17.8187 16.3364 17.7336V16.4661C16.3364 16.381 16.3126 16.2975 16.2678 16.2251C16.2231 16.1527 16.159 16.0942 16.0828 16.0562L14.5022 15.2656L12.9156 16.0874C12.841 16.126 12.7784 16.1844 12.7347 16.2563C12.6911 16.3281 12.668 16.4105 12.668 16.4946V17.9844Z" stroke="#1C1C1C" stroke-width="0.7" stroke-linecap="round" stroke-linejoin="round"/>
<path fill-rule="evenodd" clip-rule="evenodd" d="M12.668 17.9844L14.2949 18.8268C14.3591 18.86 14.4303 18.8775 14.5026 18.878C14.5748 18.8785 14.6462 18.8619 14.7108 18.8295L16.0828 18.1435C16.159 18.1055 16.2231 18.047 16.2678 17.9746C16.3126 17.9022 16.3364 17.8187 16.3364 17.7336V16.4661C16.3364 16.381 16.3126 16.2975 16.2678 16.2251C16.2231 16.1527 16.159 16.0942 16.0828 16.0562L14.5022 15.2656L12.9156 16.0874C12.841 16.126 12.7784 16.1844 12.7347 16.2563C12.6911 16.3281 12.668 16.4105 12.668 16.4946V17.9844Z" stroke="black" stroke-opacity="0.2" stroke-width="0.7" stroke-linecap="round" stroke-linejoin="round"/>
<path fill-rule="evenodd" clip-rule="evenodd" d="M9.24762 18.1123L10.627 18.8267C10.6912 18.86 10.7623 18.8775 10.8346 18.878C10.9069 18.8785 10.9782 18.8619 11.0429 18.8295L12.6684 18.0169V16.4661C12.6684 16.381 12.6447 16.2975 12.5999 16.2251C12.5551 16.1527 12.491 16.0942 12.4149 16.0561L10.8342 15.2656L9.24762 16.0873C9.17299 16.126 9.11043 16.1844 9.06676 16.2562C9.02309 16.328 8.99999 16.4105 9 16.4945V17.7051C8.99999 17.7892 9.02309 17.8716 9.06676 17.9434C9.11043 18.0152 9.17299 18.0737 9.24762 18.1123ZM10.8342 15.233L12.4612 16.0754C12.5254 16.1086 12.5965 16.1262 12.6688 16.1267C12.7411 16.1271 12.8125 16.1105 12.8771 16.0782L14.5027 15.2656V13.7148C14.5026 13.6296 14.4789 13.5462 14.4341 13.4738C14.3893 13.4014 14.3252 13.3429 14.2491 13.3048L12.8771 12.6188C12.8125 12.5865 12.7411 12.5698 12.6688 12.5703C12.5965 12.5708 12.5254 12.5884 12.4612 12.6216L11.0818 13.336C11.0072 13.3747 10.9447 13.4331 10.901 13.5049C10.8573 13.5767 10.8342 13.6591 10.8342 13.7432V15.233Z" stroke="#1C1C1C" stroke-width="0.7" stroke-linecap="round" stroke-linejoin="round"/>
<path fill-rule="evenodd" clip-rule="evenodd" d="M9.24762 18.1123L10.627 18.8267C10.6912 18.86 10.7623 18.8775 10.8346 18.878C10.9069 18.8785 10.9782 18.8619 11.0429 18.8295L12.6684 18.0169V16.4661C12.6684 16.381 12.6447 16.2975 12.5999 16.2251C12.5551 16.1527 12.491 16.0942 12.4149 16.0561L10.8342 15.2656L9.24762 16.0873C9.17299 16.126 9.11043 16.1844 9.06676 16.2562C9.02309 16.328 8.99999 16.4105 9 16.4945V17.7051C8.99999 17.7892 9.02309 17.8716 9.06676 17.9434C9.11043 18.0152 9.17299 18.0737 9.24762 18.1123ZM10.8342 15.233L12.4612 16.0754C12.5254 16.1086 12.5965 16.1262 12.6688 16.1267C12.7411 16.1271 12.8125 16.1105 12.8771 16.0782L14.5027 15.2656V13.7148C14.5026 13.6296 14.4789 13.5462 14.4341 13.4738C14.3893 13.4014 14.3252 13.3429 14.2491 13.3048L12.8771 12.6188C12.8125 12.5865 12.7411 12.5698 12.6688 12.5703C12.5965 12.5708 12.5254 12.5884 12.4612 12.6216L11.0818 13.336C11.0072 13.3747 10.9447 13.4331 10.901 13.5049C10.8573 13.5767 10.8342 13.6591 10.8342 13.7432V15.233Z" stroke="black" stroke-opacity="0.2" stroke-width="0.7" stroke-linecap="round" stroke-linejoin="round"/>
<path d="M10.9944 13.5117L12.465 14.2468C12.5286 14.2786 12.5988 14.2951 12.6699 14.2951C12.7411 14.2951 12.8113 14.2786 12.8749 14.2468L14.3299 13.5195M12.8286 16.2631L14.2992 16.9981C14.3628 17.0299 14.433 17.0465 14.5042 17.0465C14.5753 17.0465 14.6455 17.0299 14.7091 16.9981L16.1637 16.2709M9.16016 16.2631L10.6307 16.9981C10.6944 17.0299 10.7646 17.0465 10.8357 17.0465C10.9069 17.0465 10.977 17.0299 11.0407 16.9981L12.4952 16.2709M12.6699 14.3495V16.1837M14.5042 17.1008V18.7058M10.8357 17.1008V18.7058" stroke="#1C1C1C" stroke-width="0.7" stroke-linecap="round" stroke-linejoin="round"/>
<path d="M10.9944 13.5117L12.465 14.2468C12.5286 14.2786 12.5988 14.2951 12.6699 14.2951C12.7411 14.2951 12.8113 14.2786 12.8749 14.2468L14.3299 13.5195M12.8286 16.2631L14.2992 16.9981C14.3628 17.0299 14.433 17.0465 14.5042 17.0465C14.5753 17.0465 14.6455 17.0299 14.7091 16.9981L16.1637 16.2709M9.16016 16.2631L10.6307 16.9981C10.6944 17.0299 10.7646 17.0465 10.8357 17.0465C10.9069 17.0465 10.977 17.0299 11.0407 16.9981L12.4952 16.2709M12.6699 14.3495V16.1837M14.5042 17.1008V18.7058M10.8357 17.1008V18.7058" stroke="black" stroke-opacity="0.2" stroke-width="0.7" stroke-linecap="round" stroke-linejoin="round"/>
<path d="M5 9.33711V19.5C5 19.7761 5.22386 20 5.5 20H7C7.27614 20 7.5 19.7761 7.5 19.5V11.2692C7.5 10.9931 7.72386 10.7692 8 10.7692H17.1878C17.464 10.7692 17.6878 10.9931 17.6878 11.2692V19.5C17.6878 19.7761 17.9117 20 18.1878 20H19.5C19.7761 20 20 19.7761 20 19.5V9.33711C20 9.15317 19.899 8.98408 19.7371 8.89687L12.7371 5.12764C12.5891 5.04796 12.4109 5.04796 12.2629 5.12764L5.26295 8.89687C5.101 8.98408 5 9.15317 5 9.33711Z" stroke="black"/>
</svg>
