<svg width="113" height="113" viewBox="0 0 113 113" fill="none" xmlns="http://www.w3.org/2000/svg">
<g filter="url(#filter0_d_1351_52048)">
<rect x="20.5447" y="7" width="81.2035" height="81.2035" rx="22.1464" transform="rotate(11.0362 20.5447 7)" fill="#F5F8FF"/>
<path fill-rule="evenodd" clip-rule="evenodd" d="M51.0155 63.5445L56.8448 68.1663C57.0749 68.3486 57.3448 68.4739 57.6325 68.5319C57.9202 68.59 58.2175 68.5793 58.5003 68.5006L64.5015 66.833C64.8346 66.7406 65.1354 66.5572 65.3702 66.3034C65.605 66.0497 65.7644 65.7356 65.8308 65.3963L66.816 60.345C66.882 60.0057 66.8522 59.6546 66.73 59.3313C66.6078 59.0079 66.398 58.7249 66.124 58.5141L60.439 54.1347L53.4769 56.1764C53.1494 56.2725 52.8547 56.4567 52.6248 56.709C52.3949 56.9612 52.2388 57.2718 52.1735 57.6068L51.0155 63.5445Z" stroke="#6172F3" stroke-width="1.84553" stroke-linecap="round" stroke-linejoin="round"/>
<path fill-rule="evenodd" clip-rule="evenodd" d="M37.284 61.397L42.226 65.3164C42.456 65.4987 42.7259 65.624 43.0136 65.682C43.3013 65.7401 43.5987 65.7294 43.8814 65.6507L50.9917 63.6758L52.1971 57.4951C52.2631 57.1557 52.2334 56.8047 52.1111 56.4814C51.9889 56.158 51.7791 55.875 51.5052 55.6641L45.8201 51.2848L38.8581 53.3265C38.5306 53.4226 38.2358 53.6068 38.006 53.8591C37.7761 54.1113 37.62 54.4219 37.5547 54.7569L36.6137 59.5816C36.5483 59.9166 36.5763 60.2631 36.6945 60.5832C36.8127 60.9034 37.0167 61.1849 37.284 61.397ZM45.8454 51.1551L51.6748 55.7769C51.9048 55.9591 52.1747 56.0844 52.4624 56.1425C52.7501 56.2006 53.0475 56.1899 53.3302 56.1112L60.4405 54.1363L61.6459 47.9556C61.7119 47.6162 61.6822 47.2652 61.5599 46.9418C61.4377 46.6185 61.2279 46.3355 60.954 46.1246L56.0192 42.3242C55.7867 42.145 55.5152 42.0233 55.2268 41.969C54.9383 41.9147 54.6411 41.9294 54.3595 42.0118L48.3069 43.787C47.9794 43.8831 47.6846 44.0673 47.4548 44.3196C47.2249 44.5718 47.0688 44.8824 47.0035 45.2174L45.8454 51.1551Z" stroke="#6172F3" stroke-width="1.84553" stroke-linecap="round" stroke-linejoin="round"/>
<path d="M47.8136 44.416L53.1032 48.4886C53.3321 48.6649 53.5989 48.7854 53.8825 48.8407C54.1661 48.896 54.4586 48.8846 54.737 48.8073L61.1011 47.0398M52.9852 56.807L58.2747 60.8796C58.5037 61.0559 58.7705 61.1764 59.0541 61.2317C59.3376 61.287 59.6302 61.2756 59.9086 61.1983L66.2708 59.4304M38.3648 53.9555L43.6544 58.0282C43.8833 58.2044 44.1501 58.3249 44.4337 58.3802C44.7173 58.4355 45.0098 58.4241 45.2882 58.3468L51.6505 56.5789M53.8402 49.0573L52.4145 56.3675M59.0118 61.4483L57.7643 67.8448M44.3914 58.5969L43.1439 64.9933" stroke="#6172F3" stroke-width="1.84553" stroke-linecap="round" stroke-linejoin="round"/>
</g>
<defs>
<filter id="filter0_d_1351_52048" x="-3" y="-3" width="119.246" height="119.247" filterUnits="userSpaceOnUse" color-interpolation-filters="sRGB">
<feFlood flood-opacity="0" result="BackgroundImageFix"/>
<feColorMatrix in="SourceAlpha" type="matrix" values="0 0 0 0 0 0 0 0 0 0 0 0 0 0 0 0 0 0 127 0" result="hardAlpha"/>
<feOffset dx="4" dy="2"/>
<feGaussianBlur stdDeviation="6"/>
<feComposite in2="hardAlpha" operator="out"/>
<feColorMatrix type="matrix" values="0 0 0 0 0.380392 0 0 0 0 0.447059 0 0 0 0 0.952941 0 0 0 0.15 0"/>
<feBlend mode="normal" in2="BackgroundImageFix" result="effect1_dropShadow_1351_52048"/>
<feBlend mode="normal" in="SourceGraphic" in2="effect1_dropShadow_1351_52048" result="shape"/>
</filter>
</defs>
</svg>
