<svg width="88" height="88" viewBox="0 0 88 88" fill="none" xmlns="http://www.w3.org/2000/svg">
<g filter="url(#filter0_d_1351_52011)">
<rect x="5" y="22.8306" width="56.7811" height="56.7811" rx="15.4858" transform="rotate(-16.1885 5 22.8306)" fill="#F5F8FF"/>
<g clip-path="url(#clip0_1351_52011)">
<path d="M38.0176 33.4017L30.376 35.6201C30.0075 35.7271 29.6966 35.976 29.5117 36.3122C29.3267 36.6484 29.2829 37.0443 29.3899 37.4128L33.8268 52.6961C33.9338 53.0645 34.1827 53.3754 34.5189 53.5604C34.8551 53.7453 35.251 53.7891 35.6195 53.6821L50.9028 49.2452C51.2713 49.1383 51.5821 48.8893 51.7671 48.5531C51.952 48.2169 51.9958 47.821 51.8888 47.4525L49.6704 39.8109" stroke="#1C1C1C" stroke-width="1.29048" stroke-linecap="round" stroke-linejoin="round"/>
<path d="M38.0176 33.4017L30.376 35.6201C30.0075 35.7271 29.6966 35.976 29.5117 36.3122C29.3267 36.6484 29.2829 37.0443 29.3899 37.4128L33.8268 52.6961C33.9338 53.0645 34.1827 53.3754 34.5189 53.5604C34.8551 53.7453 35.251 53.7891 35.6195 53.6821L50.9028 49.2452C51.2713 49.1383 51.5821 48.8893 51.7671 48.5531C51.952 48.2169 51.9958 47.821 51.8888 47.4525L49.6704 39.8109" stroke="black" stroke-opacity="0.2" stroke-width="1.29048" stroke-linecap="round" stroke-linejoin="round"/>
<path d="M38.0187 33.4013L38.8786 36.3634C38.5009 36.1823 38.0788 36.1143 37.6633 36.1677C37.2478 36.2212 36.8566 36.3938 36.537 36.6646C36.2174 36.9355 35.9831 37.2931 35.8622 37.6942C35.7414 38.0953 35.7393 38.5228 35.8561 38.9252C35.9729 39.3275 36.2036 39.6874 36.5205 39.9615C36.8373 40.2355 37.2267 40.412 37.6417 40.4696C38.0566 40.5273 38.4794 40.4635 38.8589 40.2862C39.2384 40.1088 39.5585 39.8254 39.7805 39.4701L41.5004 45.3944C41.7224 45.0392 42.0425 44.7557 42.422 44.5784C42.8016 44.401 43.2243 44.3373 43.6393 44.3949C44.0542 44.4525 44.4436 44.629 44.7605 44.9031C45.0773 45.1771 45.3081 45.5371 45.4249 45.9394C45.5417 46.3417 45.5395 46.7692 45.4187 47.1704C45.2978 47.5715 45.0635 47.9291 44.7439 48.1999C44.4243 48.4708 44.0332 48.6434 43.6176 48.6968C43.2021 48.7502 42.78 48.6823 42.4023 48.5011L43.2623 51.4633" stroke="#1C1C1C" stroke-width="1.29048" stroke-linecap="round" stroke-linejoin="round"/>
<path d="M38.0187 33.4013L38.8786 36.3634C38.5009 36.1823 38.0788 36.1143 37.6633 36.1677C37.2478 36.2212 36.8566 36.3938 36.537 36.6646C36.2174 36.9355 35.9831 37.2931 35.8622 37.6942C35.7414 38.0953 35.7393 38.5228 35.8561 38.9252C35.9729 39.3275 36.2036 39.6874 36.5205 39.9615C36.8373 40.2355 37.2267 40.412 37.6417 40.4696C38.0566 40.5273 38.4794 40.4635 38.8589 40.2862C39.2384 40.1088 39.5585 39.8254 39.7805 39.4701L41.5004 45.3944C41.7224 45.0392 42.0425 44.7557 42.422 44.5784C42.8016 44.401 43.2243 44.3373 43.6393 44.3949C44.0542 44.4525 44.4436 44.629 44.7605 44.9031C45.0773 45.1771 45.3081 45.5371 45.4249 45.9394C45.5417 46.3417 45.5395 46.7692 45.4187 47.1704C45.2978 47.5715 45.0635 47.9291 44.7439 48.1999C44.4243 48.4708 44.0332 48.6434 43.6176 48.6968C43.2021 48.7502 42.78 48.6823 42.4023 48.5011L43.2623 51.4633" stroke="black" stroke-opacity="0.2" stroke-width="1.29048" stroke-linecap="round" stroke-linejoin="round"/>
<path d="M31.6073 45.0512L34.5694 44.1912C34.3883 44.5689 34.3203 44.991 34.3737 45.4065C34.4272 45.8221 34.5998 46.2132 34.8706 46.5328C35.1415 46.8524 35.4991 47.0868 35.9002 47.2076C36.3013 47.3284 36.7288 47.3306 37.1312 47.2138C37.5335 47.097 37.8934 46.8662 38.1675 46.5494C38.4415 46.2325 38.618 45.8431 38.6756 45.4282C38.7333 45.0132 38.6695 44.5905 38.4922 44.2109C38.3148 43.8314 38.0314 43.5113 37.6761 43.2893L43.6004 41.5694C43.2452 41.3474 42.9617 41.0273 42.7844 40.6478C42.607 40.2683 42.5433 39.8455 42.6009 39.4306C42.6585 39.0156 42.835 38.6262 43.1091 38.3094C43.3831 37.9925 43.7431 37.7618 44.1454 37.645C44.5477 37.5282 44.9752 37.5303 45.3764 37.6511C45.7775 37.772 46.1351 38.0063 46.4059 38.3259C46.6768 38.6455 46.8494 39.0367 46.9028 39.4522C46.9562 39.8677 46.8883 40.2898 46.7071 40.6675L49.6693 39.8076" stroke="#1C1C1C" stroke-width="1.29048" stroke-linecap="round" stroke-linejoin="round"/>
<path d="M31.6073 45.0512L34.5694 44.1912C34.3883 44.5689 34.3203 44.991 34.3737 45.4065C34.4272 45.8221 34.5998 46.2132 34.8706 46.5328C35.1415 46.8524 35.4991 47.0868 35.9002 47.2076C36.3013 47.3284 36.7288 47.3306 37.1312 47.2138C37.5335 47.097 37.8934 46.8662 38.1675 46.5494C38.4415 46.2325 38.618 45.8431 38.6756 45.4282C38.7333 45.0132 38.6695 44.5905 38.4922 44.2109C38.3148 43.8314 38.0314 43.5113 37.6761 43.2893L43.6004 41.5694C43.2452 41.3474 42.9617 41.0273 42.7844 40.6478C42.607 40.2683 42.5433 39.8455 42.6009 39.4306C42.6585 39.0156 42.835 38.6262 43.1091 38.3094C43.3831 37.9925 43.7431 37.7618 44.1454 37.645C44.5477 37.5282 44.9752 37.5303 45.3764 37.6511C45.7775 37.772 46.1351 38.0063 46.4059 38.3259C46.6768 38.6455 46.8494 39.0367 46.9028 39.4522C46.9562 39.8677 46.8883 40.2898 46.7071 40.6675L49.6693 39.8076" stroke="black" stroke-opacity="0.2" stroke-width="1.29048" stroke-linecap="round" stroke-linejoin="round"/>
<path d="M43.6904 27.2636L49.9983 27.3821C50.3025 27.3878 50.5919 27.5141 50.8029 27.7332C51.014 27.9524 51.1293 28.2464 51.1236 28.5505L51.0051 34.8584" stroke="#1C1C1C" stroke-width="1.29048" stroke-linecap="round" stroke-linejoin="round"/>
<path d="M43.6904 27.2636L49.9983 27.3821C50.3025 27.3878 50.5919 27.5141 50.8029 27.7332C51.014 27.9524 51.1293 28.2464 51.1236 28.5505L51.0051 34.8584" stroke="black" stroke-opacity="0.2" stroke-width="1.29048" stroke-linecap="round" stroke-linejoin="round"/>
<path d="M43.6923 27.263L43.6464 29.7082C43.403 29.4821 43.0994 29.3313 42.7722 29.274C42.445 29.2167 42.1083 29.2553 41.8025 29.3852C41.4968 29.5151 41.2352 29.7307 41.0494 30.006C40.8635 30.2812 40.7612 30.6044 40.755 30.9365C40.7488 31.2686 40.8388 31.5954 41.0142 31.8775C41.1896 32.1596 41.4429 32.3848 41.7435 32.5261C42.0442 32.6674 42.3792 32.7186 42.7083 32.6736C43.0374 32.6286 43.3465 32.4894 43.5982 32.2726L43.5522 34.7178" stroke="#1C1C1C" stroke-width="1.29048" stroke-linecap="round" stroke-linejoin="round"/>
<path d="M43.6923 27.263L43.6464 29.7082C43.403 29.4821 43.0994 29.3313 42.7722 29.274C42.445 29.2167 42.1083 29.2553 41.8025 29.3852C41.4968 29.5151 41.2352 29.7307 41.0494 30.006C40.8635 30.2812 40.7612 30.6044 40.755 30.9365C40.7488 31.2686 40.8388 31.5954 41.0142 31.8775C41.1896 32.1596 41.4429 32.3848 41.7435 32.5261C42.0442 32.6674 42.3792 32.7186 42.7083 32.6736C43.0374 32.6286 43.3465 32.4894 43.5982 32.2726L43.5522 34.7178" stroke="black" stroke-opacity="0.2" stroke-width="1.29048" stroke-linecap="round" stroke-linejoin="round"/>
<path d="M51.0051 34.8584L48.56 34.8125C48.786 34.5691 48.9368 34.2655 48.9941 33.9383C49.0514 33.6111 49.0128 33.2744 48.8829 32.9687C48.7531 32.6629 48.5375 32.4014 48.2622 32.2155C47.9869 32.0296 47.6637 31.9274 47.3316 31.9211C46.9995 31.9149 46.6727 32.0049 46.3906 32.1803C46.1086 32.3557 45.8833 32.609 45.742 32.9097C45.6008 33.2103 45.5495 33.5454 45.5945 33.8745C45.6395 34.2036 45.7788 34.5126 45.9955 34.7643L43.5504 34.7184" stroke="#1C1C1C" stroke-width="1.14709" stroke-linecap="round" stroke-linejoin="round"/>
<path d="M51.0051 34.8584L48.56 34.8125C48.786 34.5691 48.9368 34.2655 48.9941 33.9383C49.0514 33.6111 49.0128 33.2744 48.8829 32.9687C48.7531 32.6629 48.5375 32.4014 48.2622 32.2155C47.9869 32.0296 47.6637 31.9274 47.3316 31.9211C46.9995 31.9149 46.6727 32.0049 46.3906 32.1803C46.1086 32.3557 45.8833 32.609 45.742 32.9097C45.6008 33.2103 45.5495 33.5454 45.5945 33.8745C45.6395 34.2036 45.7788 34.5126 45.9955 34.7643L43.5504 34.7184" stroke="black" stroke-opacity="0.2" stroke-width="1.14709" stroke-linecap="round" stroke-linejoin="round"/>
</g>
</g>
<defs>
<filter id="filter0_d_1351_52011" x="-3" y="-3" width="94.3601" height="94.3604" filterUnits="userSpaceOnUse" color-interpolation-filters="sRGB">
<feFlood flood-opacity="0" result="BackgroundImageFix"/>
<feColorMatrix in="SourceAlpha" type="matrix" values="0 0 0 0 0 0 0 0 0 0 0 0 0 0 0 0 0 0 127 0" result="hardAlpha"/>
<feOffset dx="4" dy="2"/>
<feGaussianBlur stdDeviation="6"/>
<feComposite in2="hardAlpha" operator="out"/>
<feColorMatrix type="matrix" values="0 0 0 0 0.380392 0 0 0 0 0.447059 0 0 0 0 0.952941 0 0 0 0.15 0"/>
<feBlend mode="normal" in2="BackgroundImageFix" result="effect1_dropShadow_1351_52011"/>
<feBlend mode="normal" in="SourceGraphic" in2="effect1_dropShadow_1351_52011" result="shape"/>
</filter>
<clipPath id="clip0_1351_52011">
<rect width="30.9715" height="30.9715" fill="white" transform="translate(20.991 31.626) rotate(-16.1885)"/>
</clipPath>
</defs>
</svg>
