<svg width="84" height="84" viewBox="0 0 84 84" fill="none" xmlns="http://www.w3.org/2000/svg">
<g filter="url(#filter0_d_1351_52020)">
<rect x="6" y="17.228" width="55.2463" height="55.2463" rx="15.0672" transform="rotate(-9.61525 6 17.228)" fill="#F5F8FF"/>
<path fill-rule="evenodd" clip-rule="evenodd" d="M41.3275 33.8166C41.2504 33.4786 41.4619 33.142 41.7999 33.0649L45.4723 32.2268C45.8103 32.1497 46.1469 32.3612 46.224 32.6992C46.2263 32.7091 46.2283 32.719 46.2301 32.729L47.0614 36.3718C47.1385 36.7098 46.927 37.0464 46.589 37.1235C46.251 37.2006 45.9144 36.9892 45.8373 36.6511L45.3358 34.4535L40.2502 41.8421C40.1911 41.928 40.1145 41.9945 40.0285 42.0403C39.8238 42.1536 39.5638 42.1475 39.3604 42.003L35.5137 39.2709L32.3879 43.6718C32.1871 43.9545 31.7952 44.0209 31.5125 43.8201C31.2299 43.6194 31.1635 43.2274 31.3642 42.9448L34.4769 38.5623C34.8748 38.0022 35.6478 37.8666 36.2119 38.2547C36.2838 38.2874 36.3536 38.3273 36.4204 38.3748L39.5719 40.6131L44.2686 33.7894L42.0793 34.289C41.7412 34.3662 41.4047 34.1547 41.3275 33.8166Z" fill="#1C1C1C"/>
<path fill-rule="evenodd" clip-rule="evenodd" d="M41.3275 33.8166C41.2504 33.4786 41.4619 33.142 41.7999 33.0649L45.4723 32.2268C45.8103 32.1497 46.1469 32.3612 46.224 32.6992C46.2263 32.7091 46.2283 32.719 46.2301 32.729L47.0614 36.3718C47.1385 36.7098 46.927 37.0464 46.589 37.1235C46.251 37.2006 45.9144 36.9892 45.8373 36.6511L45.3358 34.4535L40.2502 41.8421C40.1911 41.928 40.1145 41.9945 40.0285 42.0403C39.8238 42.1536 39.5638 42.1475 39.3604 42.003L35.5137 39.2709L32.3879 43.6718C32.1871 43.9545 31.7952 44.0209 31.5125 43.8201C31.2299 43.6194 31.1635 43.2274 31.3642 42.9448L34.4769 38.5623C34.8748 38.0022 35.6478 37.8666 36.2119 38.2547C36.2838 38.2874 36.3536 38.3273 36.4204 38.3748L39.5719 40.6131L44.2686 33.7894L42.0793 34.289C41.7412 34.3662 41.4047 34.1547 41.3275 33.8166Z" fill="black" fill-opacity="0.2"/>
<path fill-rule="evenodd" clip-rule="evenodd" d="M26.3724 32.2425C26.3145 31.9007 26.5447 31.5766 26.8866 31.5187C27.2284 31.4608 27.5525 31.6909 27.6104 32.0328L30.4416 48.7449C30.5575 49.4287 31.2056 49.889 31.8893 49.7732L48.6018 46.9419C48.9437 46.884 49.2677 47.1142 49.3256 47.456C49.3836 47.7979 49.1534 48.1219 48.8115 48.1799L30.8612 51.2208C30.8611 51.2209 30.8611 51.2209 30.8611 51.221C30.8611 51.2211 30.8611 51.2211 30.861 51.2212L30.2421 51.326C29.9003 51.3839 29.5762 51.1537 29.5183 50.8119L26.3724 32.2425Z" fill="#1C1C1C"/>
<path fill-rule="evenodd" clip-rule="evenodd" d="M26.3724 32.2425C26.3145 31.9007 26.5447 31.5766 26.8866 31.5187C27.2284 31.4608 27.5525 31.6909 27.6104 32.0328L30.4416 48.7449C30.5575 49.4287 31.2056 49.889 31.8893 49.7732L48.6018 46.9419C48.9437 46.884 49.2677 47.1142 49.3256 47.456C49.3836 47.7979 49.1534 48.1219 48.8115 48.1799L30.8612 51.2208C30.8611 51.2209 30.8611 51.2209 30.8611 51.221C30.8611 51.2211 30.8611 51.2211 30.861 51.2212L30.2421 51.326C29.9003 51.3839 29.5762 51.1537 29.5183 50.8119L26.3724 32.2425Z" fill="black" fill-opacity="0.2"/>
</g>
<defs>
<filter id="filter0_d_1351_52020" x="-2" y="-2" width="87.698" height="87.6982" filterUnits="userSpaceOnUse" color-interpolation-filters="sRGB">
<feFlood flood-opacity="0" result="BackgroundImageFix"/>
<feColorMatrix in="SourceAlpha" type="matrix" values="0 0 0 0 0 0 0 0 0 0 0 0 0 0 0 0 0 0 127 0" result="hardAlpha"/>
<feOffset dx="4" dy="2"/>
<feGaussianBlur stdDeviation="6"/>
<feComposite in2="hardAlpha" operator="out"/>
<feColorMatrix type="matrix" values="0 0 0 0 0.380392 0 0 0 0 0.447059 0 0 0 0 0.952941 0 0 0 0.15 0"/>
<feBlend mode="normal" in2="BackgroundImageFix" result="effect1_dropShadow_1351_52020"/>
<feBlend mode="normal" in="SourceGraphic" in2="effect1_dropShadow_1351_52020" result="shape"/>
</filter>
</defs>
</svg>
