<svg width="113" height="92" viewBox="0 0 113 92" fill="none" xmlns="http://www.w3.org/2000/svg">
<g filter="url(#filter0_d_1351_52002)">
<rect x="30.5811" y="4" width="77.68" height="77.68" rx="21.1855" transform="rotate(21.5882 30.5811 4)" fill="#F5F8FF"/>
<g clip-path="url(#clip0_1351_52002)">
<path d="M44.5894 48.8361L38.8363 46.5596C38.6388 46.4815 38.4154 46.5782 38.3372 46.7757L33.0831 60.0541C33.005 60.2516 33.1018 60.475 33.2992 60.5531L42.5967 64.2321M61.318 58.8661L66.5033 60.9179C66.7008 60.996 66.7975 61.2195 66.7194 61.417L62.6322 71.7463C62.554 71.9438 62.3306 72.0405 62.1331 71.9624L53.5033 68.5477M42.5967 64.2321L50.9284 43.176C51.0065 42.9786 51.2299 42.8818 51.4274 42.9599L61.6189 46.9926C61.8164 47.0707 61.9131 47.2942 61.835 47.4917L53.5033 68.5477M42.5967 64.2321L53.5033 68.5477" stroke="#1C1C1C" stroke-width="1.67997" stroke-linecap="round"/>
<path d="M44.5894 48.8361L38.8363 46.5596C38.6388 46.4815 38.4154 46.5782 38.3372 46.7757L33.0831 60.0541C33.005 60.2516 33.1018 60.475 33.2992 60.5531L42.5967 64.2321M61.318 58.8661L66.5033 60.9179C66.7008 60.996 66.7975 61.2195 66.7194 61.417L62.6322 71.7463C62.554 71.9438 62.3306 72.0405 62.1331 71.9624L53.5033 68.5477M42.5967 64.2321L50.9284 43.176C51.0065 42.9786 51.2299 42.8818 51.4274 42.9599L61.6189 46.9926C61.8164 47.0707 61.9131 47.2942 61.835 47.4917L53.5033 68.5477M42.5967 64.2321L53.5033 68.5477" stroke="black" stroke-opacity="0.2" stroke-width="1.67997" stroke-linecap="round"/>
<path d="M52.5258 47.4594C52.6111 47.2437 52.8551 47.138 53.0708 47.2234L56.9761 48.7687C57.1918 48.854 57.2975 49.098 57.2121 49.3137C57.1268 49.5294 56.8828 49.6351 56.6671 49.5497L52.7618 48.0044C52.5461 47.9191 52.4404 47.6751 52.5258 47.4594Z" fill="#1C1C1C"/>
<path d="M52.5258 47.4594C52.6111 47.2437 52.8551 47.138 53.0708 47.2234L56.9761 48.7687C57.1918 48.854 57.2975 49.098 57.2121 49.3137C57.1268 49.5294 56.8828 49.6351 56.6671 49.5497L52.7618 48.0044C52.5461 47.9191 52.4404 47.6751 52.5258 47.4594Z" fill="black" fill-opacity="0.2"/>
<path d="M52.0107 48.7611C52.096 48.5455 52.34 48.4398 52.5557 48.5251L56.461 50.0704C56.6767 50.1558 56.7824 50.3998 56.697 50.6155C56.6117 50.8312 56.3677 50.9368 56.152 50.8515L54.668 50.2643L53.7307 49.8934L52.2467 49.3062C52.031 49.2209 51.9253 48.9768 52.0107 48.7611Z" fill="#1C1C1C"/>
<path d="M52.0107 48.7611C52.096 48.5455 52.34 48.4398 52.5557 48.5251L56.461 50.0704C56.6767 50.1558 56.7824 50.3998 56.697 50.6155C56.6117 50.8312 56.3677 50.9368 56.152 50.8515L54.668 50.2643L53.7307 49.8934L52.2467 49.3062C52.031 49.2209 51.9253 48.9768 52.0107 48.7611Z" fill="black" fill-opacity="0.2"/>
<path d="M52.551 54.2445C52.8098 54.3469 53.1027 54.2201 53.2051 53.9613L54.668 50.2643L53.7307 49.8934L52.2678 53.5904C52.1654 53.8493 52.2922 54.1421 52.551 54.2445Z" fill="#1C1C1C"/>
<path d="M52.551 54.2445C52.8098 54.3469 53.1027 54.2201 53.2051 53.9613L54.668 50.2643L53.7307 49.8934L52.2678 53.5904C52.1654 53.8493 52.2922 54.1421 52.551 54.2445Z" fill="black" fill-opacity="0.2"/>
<path d="M40.7707 49.7542L41.4135 52.1066M41.4135 52.1066L43.5517 50.6797M41.4135 52.1066L40.3368 54.8278M39.9931 51.7195L42.7142 52.7962M39.5146 52.9288L42.2357 54.0056" stroke="#1C1C1C" stroke-width="0.665981" stroke-linecap="round"/>
<path d="M40.7707 49.7542L41.4135 52.1066M41.4135 52.1066L43.5517 50.6797M41.4135 52.1066L40.3368 54.8278M39.9931 51.7195L42.7142 52.7962M39.5146 52.9288L42.2357 54.0056" stroke="black" stroke-opacity="0.2" stroke-width="0.665981" stroke-linecap="round"/>
<path fill-rule="evenodd" clip-rule="evenodd" d="M61.6402 61.7822C61.7028 61.624 61.6253 61.445 61.4671 61.3824C61.3089 61.3197 61.1298 61.3973 61.0672 61.5555L61.0666 61.5572L61.0658 61.559L61.0651 61.5609L61.0643 61.5628L61.0635 61.5648L61.0627 61.5669L61.0619 61.5691L61.061 61.5713L61.06 61.5737L61.0591 61.5761L61.0581 61.5785L61.0571 61.5811L61.0561 61.5837L61.055 61.5864L61.0539 61.5892L61.0528 61.592L61.0516 61.5949L61.0505 61.5979L61.0492 61.601L61.048 61.6041L61.0467 61.6073L61.0454 61.6106L61.0441 61.6139L61.0428 61.6173L61.0414 61.6208L61.04 61.6244L61.0385 61.628L61.0371 61.6317L61.0356 61.6355L61.0341 61.6393L61.0325 61.6433L61.0309 61.6472L61.0293 61.6513L61.0277 61.6554L61.026 61.6596L61.0243 61.6639L61.0226 61.6682L61.0209 61.6726L61.0191 61.6771L61.0173 61.6816L61.0155 61.6862L61.0137 61.6909L61.0118 61.6956L61.0099 61.7004L61.008 61.7053L61.006 61.7102L61.004 61.7152L61.002 61.7203L61 61.7254L60.9979 61.7306L60.9959 61.7359L60.9937 61.7412L60.9916 61.7466L60.9894 61.7521L60.9873 61.7576L60.9851 61.7632L60.9828 61.7688L60.9806 61.7745L60.9783 61.7803L60.976 61.7862L60.9736 61.7921L60.9713 61.798L60.9689 61.8041L60.9665 61.8102L60.964 61.8163L60.9616 61.8225L60.9591 61.8288L60.9566 61.8351L60.954 61.8415L60.9515 61.848L60.9489 61.8545L60.9463 61.8611L60.9437 61.8678L60.941 61.8745L60.9383 61.8812L60.9356 61.888L60.9329 61.8949L60.9302 61.9019L60.9274 61.9089L60.9246 61.9159L60.9218 61.923L60.919 61.9302L60.9161 61.9374L60.9132 61.9447L60.9103 61.9521L60.9074 61.9595L60.9044 61.9669L60.9015 61.9744L60.8985 61.982L60.8954 61.9896L60.8924 61.9973L60.8893 62.0051L60.8863 62.0129L60.8832 62.0207L60.88 62.0286L60.8769 62.0366L60.8737 62.0446L60.8705 62.0527L60.8673 62.0608L60.8641 62.069L60.8608 62.0772L60.8575 62.0855L60.8542 62.0938L60.8509 62.1022L60.8476 62.1106L60.8442 62.1191L60.8408 62.1277L60.8374 62.1363L60.834 62.1449L60.8306 62.1536L60.8288 62.158C60.4793 62.0857 60.1807 62.1632 59.9461 62.3136C59.6689 62.4913 59.4961 62.7599 59.4179 62.9576C59.2679 63.3368 59.2817 63.6957 59.4289 63.9956C59.534 64.2098 59.7006 64.381 59.9002 64.5049L59.8968 64.5134L59.8912 64.5277L59.8855 64.542L59.8798 64.5563L59.8742 64.5706L59.8685 64.5849L59.8629 64.5992L59.8572 64.6135L59.8515 64.6278L59.8459 64.6421L59.8402 64.6565L59.8345 64.6708L59.8289 64.6851L59.8232 64.6995L59.8175 64.7138L59.8118 64.7281L59.8062 64.7425L59.8005 64.7568L59.7948 64.7712L59.7891 64.7855L59.7835 64.7999L59.7778 64.8142L59.7721 64.8286L59.7664 64.843L59.7607 64.8573L59.7551 64.8717L59.7494 64.886L59.7437 64.9004L59.738 64.9147L59.7323 64.9291L59.7266 64.9435L59.721 64.9578L59.7153 64.9722L59.7096 64.9865L59.7039 65.0009L59.6982 65.0152L59.6926 65.0296L59.6869 65.0439L59.6812 65.0583L59.6755 65.0726L59.6699 65.087L59.6642 65.1013L59.6585 65.1156L59.6529 65.13L59.6472 65.1443L59.6415 65.1586L59.6358 65.1729L59.6302 65.1872L59.6245 65.2016L59.6189 65.2159L59.6132 65.2302L59.6076 65.2444L59.6019 65.2587L59.5962 65.273L59.5906 65.2873L59.585 65.3016L59.5793 65.3158L59.5737 65.3301L59.568 65.3443L59.5624 65.3586L59.5568 65.3728L59.5511 65.387L59.5455 65.4012L59.5399 65.4154L59.5343 65.4296L59.5287 65.4438L59.523 65.458L59.5174 65.4722L59.5118 65.4864L59.5062 65.5005L59.5006 65.5147L59.495 65.5288L59.4894 65.5429L59.4839 65.557L59.4783 65.5711L59.4727 65.5852L59.4671 65.5993L59.4616 65.6134L59.456 65.6274L59.4504 65.6415L59.4449 65.6555L59.4393 65.6695L59.4338 65.6835L59.4283 65.6975L59.4227 65.7115L59.4172 65.7255L59.4117 65.7394L59.4062 65.7534L59.4007 65.7673L59.3952 65.7812L59.3897 65.7951L59.3842 65.809L59.3787 65.8229L59.3732 65.8367L59.3677 65.8506L59.3622 65.8644L59.3568 65.8782L59.3513 65.892L59.3459 65.9057L59.3404 65.9195L59.335 65.9332L59.3296 65.947L59.3241 65.9607L59.3224 65.9652C59.2202 65.8685 59.1528 65.7459 59.1123 65.6143C59.0442 65.3923 59.063 65.1758 59.1034 65.0738C59.1528 64.949 59.0916 64.8078 58.9668 64.7584C58.842 64.709 58.7007 64.7701 58.6513 64.895C58.5639 65.1159 58.5526 65.4476 58.6476 65.757C58.7244 66.0072 58.8769 66.2615 59.1356 66.4372L59.1343 66.4405L59.1292 66.4534L59.1241 66.4663L59.119 66.4791L59.1139 66.492L59.1089 66.5048L59.1038 66.5175L59.0988 66.5303L59.0937 66.543L59.0887 66.5556L59.0837 66.5683L59.0787 66.5809L59.0737 66.5935L59.0688 66.6061L59.0638 66.6186L59.0588 66.6311L59.0539 66.6436L59.049 66.6561L59.0441 66.6685L59.0392 66.6809L59.0343 66.6932L59.0294 66.7056L59.0245 66.7179L59.0197 66.7301L59.0148 66.7424L59.01 66.7546L59.0052 66.7668L59.0004 66.7789L58.9956 66.791L58.9908 66.8031L58.986 66.8151L58.9813 66.8271L58.9766 66.8391L58.9718 66.8511L58.9671 66.863L58.9624 66.8748L58.9577 66.8867L58.9531 66.8985L58.9484 66.9103L58.9438 66.922L58.9391 66.9337L58.9345 66.9454L58.9299 66.957L58.9253 66.9686L58.9207 66.9802L58.9162 66.9917L58.9116 67.0032L58.9071 67.0146L58.9026 67.026L58.8981 67.0374L58.8936 67.0488L58.8891 67.0601L58.8847 67.0713L58.8802 67.0825L58.8758 67.0937L58.8714 67.1049L58.867 67.116L58.8626 67.1271L58.8583 67.1381L58.8539 67.1491L58.8496 67.16L58.8453 67.171L58.841 67.1818L58.8367 67.1927L58.8324 67.2034L58.8281 67.2142L58.8239 67.2249L58.8197 67.2356L58.8155 67.2462L58.8113 67.2568L58.8071 67.2673L58.803 67.2778C58.7404 67.436 58.8179 67.6151 58.9761 67.6777C59.1343 67.7403 59.3133 67.6628 59.3759 67.5045L59.3801 67.494L59.3843 67.4835L59.3885 67.4729L59.3927 67.4623L59.3969 67.4516L59.4011 67.4409L59.4054 67.4302L59.4096 67.4194L59.4139 67.4085L59.4182 67.3977L59.4225 67.3868L59.4269 67.3758L59.4312 67.3648L59.4356 67.3538L59.44 67.3427L59.4444 67.3316L59.4488 67.3205L59.4532 67.3093L59.4577 67.298L59.4621 67.2868L59.4666 67.2755L59.4711 67.2641L59.4756 67.2528L59.4801 67.2414L59.4846 67.2299L59.4892 67.2184L59.4937 67.2069L59.4983 67.1953L59.5029 67.1837L59.5075 67.1721L59.5121 67.1604L59.5167 67.1487L59.5214 67.137L59.526 67.1252L59.5307 67.1134L59.5354 67.1016L59.5401 67.0897L59.5448 67.0778L59.5495 67.0658L59.5543 67.0539L59.559 67.0419L59.5638 67.0298L59.5686 67.0177L59.5734 67.0056L59.5782 66.9935L59.583 66.9813L59.5878 66.9691L59.5927 66.9569L59.5975 66.9446L59.6024 66.9323L59.6073 66.92L59.6121 66.9076L59.617 66.8952L59.622 66.8828L59.6269 66.8703L59.6318 66.8579L59.6368 66.8454L59.6417 66.8328L59.6467 66.8202L59.6517 66.8077L59.6567 66.795L59.6617 66.7824L59.6667 66.7697L59.6717 66.757L59.6768 66.7442L59.6818 66.7315L59.6869 66.7187L59.692 66.7059L59.6971 66.693L59.7021 66.6801L59.7073 66.6672L59.7115 66.6566C59.9137 66.689 60.1208 66.678 60.318 66.6061C60.6336 66.4909 60.8852 66.2335 61.0408 65.8405C61.1665 65.5227 61.1923 65.1837 61.0721 64.8763C60.9879 64.6608 60.8383 64.4773 60.6298 64.3357L60.6322 64.3297L60.6377 64.3157L60.6433 64.3017L60.6488 64.2878L60.6543 64.2738L60.6598 64.2599L60.6653 64.246L60.6708 64.2321L60.6763 64.2182L60.6818 64.2043L60.6873 64.1904L60.6928 64.1766L60.6983 64.1627L60.7037 64.1489L60.7092 64.1351L60.7146 64.1213L60.7201 64.1076L60.7255 64.0938L60.731 64.0801L60.7364 64.0664L60.7418 64.0527L60.7472 64.039L60.7526 64.0253L60.758 64.0117L60.7634 63.998L60.7688 63.9844L60.7742 63.9708L60.7796 63.9573L60.7849 63.9437L60.7903 63.9302L60.7956 63.9167L60.801 63.9032L60.8063 63.8897L60.8116 63.8763L60.8169 63.8628L60.8222 63.8494L60.8275 63.836L60.8328 63.8227L60.8381 63.8093L60.8434 63.796L60.8486 63.7827L60.8539 63.7694L60.8591 63.7561L60.8644 63.7429L60.8696 63.7297L60.8748 63.7165L60.88 63.7033L60.8852 63.6902L60.8904 63.6771L60.8956 63.664L60.9008 63.6509L60.9059 63.6379L60.9111 63.6249L60.9162 63.6119L60.9214 63.5989L60.9265 63.586L60.9316 63.573L60.9367 63.5601L60.9418 63.5473L60.9469 63.5344L60.9519 63.5216L60.957 63.5088L60.962 63.4961L60.9671 63.4834L60.9721 63.4707L60.9771 63.458L60.9821 63.4453L60.9871 63.4327L60.9921 63.4201L60.9971 63.4076L61.002 63.395L61.007 63.3825L61.0119 63.3701L61.0168 63.3576L61.0217 63.3452L61.0266 63.3328L61.0315 63.3205L61.0364 63.3081L61.0413 63.2959L61.0461 63.2836L61.051 63.2714L61.0558 63.2592L61.0606 63.247L61.0654 63.2349L61.0702 63.2228L61.075 63.2107L61.0797 63.1987L61.0845 63.1867L61.0892 63.1747L61.0939 63.1628L61.0986 63.1509L61.1033 63.139L61.108 63.1272L61.1127 63.1154L61.1173 63.1036L61.122 63.0919L61.1266 63.0802L61.1312 63.0685L61.1358 63.0569L61.1404 63.0453L61.145 63.0338L61.1495 63.0223L61.1541 63.0108L61.1586 62.9994L61.1631 62.988L61.1676 62.9766L61.1721 62.9653L61.1766 62.954L61.181 62.9427L61.1854 62.9315L61.1899 62.9203L61.1943 62.9092L61.1987 62.8981L61.203 62.887L61.2074 62.876L61.2112 62.8664C61.3328 62.9709 61.4034 63.0907 61.4424 63.2076C61.5101 63.4105 61.4873 63.6206 61.434 63.7553C61.3846 63.8801 61.4458 64.0214 61.5706 64.0708C61.6954 64.1202 61.8367 64.059 61.8861 63.9342C61.9778 63.7022 62.0105 63.3741 61.9036 63.0537C61.8216 62.8081 61.6601 62.5749 61.3967 62.3977L61.4001 62.3891L61.4035 62.3804L61.407 62.3717L61.4104 62.363L61.4138 62.3544L61.4172 62.3459L61.4205 62.3374L61.4239 62.3289L61.4272 62.3205L61.4305 62.3122L61.4338 62.3039L61.437 62.2957L61.4403 62.2875L61.4435 62.2794L61.4467 62.2713L61.4499 62.2633L61.453 62.2553L61.4561 62.2474L61.4592 62.2396L61.4623 62.2318L61.4654 62.224L61.4684 62.2164L61.4714 62.2087L61.4744 62.2012L61.4774 62.1936L61.4804 62.1862L61.4833 62.1788L61.4862 62.1714L61.4891 62.1641L61.4919 62.1569L61.4948 62.1497L61.4976 62.1426L61.5004 62.1356L61.5032 62.1286L61.5059 62.1216L61.5086 62.1148L61.5113 62.1079L61.514 62.1012L61.5167 62.0945L61.5193 62.0878L61.5219 62.0813L61.5245 62.0747L61.527 62.0683L61.5296 62.0619L61.5321 62.0555L61.5345 62.0493L61.537 62.043L61.5394 62.0369L61.5418 62.0308L61.5442 62.0248L61.5466 62.0188L61.5489 62.0129L61.5512 62.007L61.5535 62.0013L61.5558 61.9956L61.558 61.9899L61.5602 61.9843L61.5624 61.9788L61.5646 61.9733L61.5667 61.9679L61.5688 61.9626L61.5709 61.9573L61.573 61.9521L61.575 61.947L61.577 61.9419L61.579 61.9369L61.5809 61.932L61.5829 61.9271L61.5848 61.9223L61.5866 61.9176L61.5885 61.9129L61.5903 61.9083L61.5921 61.9038L61.5939 61.8993L61.5956 61.8949L61.5973 61.8906L61.599 61.8863L61.6007 61.8821L61.6023 61.878L61.6039 61.874L61.6055 61.87L61.607 61.8661L61.6085 61.8622L61.61 61.8585L61.6115 61.8547L61.6129 61.8511L61.6144 61.8475L61.6157 61.8441L61.6171 61.8406L61.6184 61.8373L61.6197 61.834L61.621 61.8308L61.6222 61.8277L61.6234 61.8246L61.6246 61.8216L61.6258 61.8187L61.6269 61.8159L61.628 61.8131L61.6291 61.8104L61.6301 61.8078L61.6311 61.8052L61.6321 61.8028L61.633 61.8004L61.6339 61.7981L61.6348 61.7958L61.6357 61.7936L61.6365 61.7915L61.6373 61.7895L61.6381 61.7876L61.6388 61.7857L61.6395 61.7839L61.6402 61.7822ZM60.6457 62.6209C60.463 62.602 60.3202 62.6513 60.2084 62.7229C60.0354 62.8338 59.9196 63.0112 59.87 63.1364C59.7645 63.403 59.7851 63.6179 59.8653 63.7814C59.9135 63.8797 59.9877 63.9682 60.0835 64.0415L60.0868 64.0332L60.0924 64.0192L60.0979 64.0053L60.1034 63.9914L60.1088 63.9776L60.1143 63.9637L60.1198 63.9498L60.1253 63.936L60.1308 63.9222L60.1362 63.9084L60.1417 63.8946L60.1471 63.8808L60.1526 63.8671L60.158 63.8534L60.1634 63.8396L60.1688 63.8259L60.1743 63.8123L60.1797 63.7986L60.1851 63.7849L60.1905 63.7713L60.1958 63.7577L60.2012 63.7441L60.2066 63.7305L60.2119 63.717L60.2173 63.7035L60.2226 63.6899L60.228 63.6765L60.2333 63.663L60.2386 63.6495L60.244 63.6361L60.2493 63.6227L60.2546 63.6093L60.2599 63.5959L60.2651 63.5826L60.2704 63.5693L60.2757 63.556L60.2809 63.5427L60.2862 63.5294L60.2914 63.5162L60.2966 63.503L60.3019 63.4898L60.3071 63.4766L60.3123 63.4635L60.3175 63.4504L60.3226 63.4373L60.3278 63.4242L60.333 63.4112L60.3381 63.3981L60.3433 63.3851L60.3484 63.3722L60.3535 63.3592L60.3586 63.3463L60.3637 63.3334L60.3688 63.3206L60.3739 63.3077L60.379 63.2949L60.384 63.2821L60.3891 63.2694L60.3941 63.2566L60.3991 63.2439L60.4041 63.2313L60.4092 63.2186L60.4141 63.206L60.4191 63.1934L60.4241 63.1808L60.4291 63.1683L60.434 63.1558L60.4389 63.1433L60.4439 63.1309L60.4488 63.1185L60.4537 63.1061L60.4586 63.0937L60.4634 63.0814L60.4683 63.0691L60.4731 63.0569L60.478 63.0447L60.4828 63.0325L60.4876 63.0203L60.4924 63.0082L60.4972 62.9961L60.502 62.984L60.5067 62.972L60.5115 62.96L60.5162 62.948L60.521 62.9361L60.5257 62.9242L60.5304 62.9123L60.535 62.9005L60.5397 62.8887L60.5444 62.8769L60.549 62.8652L60.5536 62.8535L60.5582 62.8418L60.5628 62.8302L60.5674 62.8186L60.572 62.8071L60.5766 62.7955L60.5811 62.7841L60.5856 62.7726L60.5901 62.7612L60.5946 62.7499L60.5991 62.7385L60.6036 62.7272L60.608 62.716L60.6125 62.7048L60.6169 62.6936L60.6213 62.6825L60.6257 62.6714L60.6301 62.6603L60.6344 62.6493L60.6388 62.6383L60.6431 62.6274L60.6457 62.6209ZM60.4439 64.8056L60.4415 64.8116L60.4358 64.8259L60.4302 64.8402L60.4245 64.8545L60.4189 64.8689L60.4132 64.8832L60.4075 64.8975L60.4018 64.9118L60.3962 64.9262L60.3905 64.9405L60.3848 64.9549L60.3791 64.9692L60.3735 64.9836L60.3678 64.9979L60.3621 65.0123L60.3564 65.0266L60.3508 65.041L60.3451 65.0553L60.3394 65.0697L60.3337 65.084L60.328 65.0984L60.3223 65.1128L60.3167 65.1271L60.311 65.1415L60.3053 65.1558L60.2996 65.1702L60.2939 65.1845L60.2883 65.1989L60.2826 65.2133L60.2769 65.2276L60.2712 65.242L60.2655 65.2563L60.2599 65.2707L60.2542 65.285L60.2485 65.2993L60.2428 65.3137L60.2372 65.328L60.2315 65.3424L60.2258 65.3567L60.2202 65.371L60.2145 65.3853L60.2088 65.3996L60.2032 65.414L60.1975 65.4283L60.1918 65.4426L60.1862 65.4569L60.1805 65.4712L60.1749 65.4855L60.1692 65.4997L60.1636 65.514L60.1579 65.5283L60.1523 65.5425L60.1466 65.5568L60.141 65.571L60.1354 65.5853L60.1297 65.5995L60.1241 65.6137L60.1185 65.628L60.1129 65.6422L60.1072 65.6564L60.1016 65.6706L60.096 65.6847L60.0904 65.6989L60.0848 65.7131L60.0792 65.7272L60.0736 65.7414L60.068 65.7555L60.0624 65.7696L60.0568 65.7838L60.0513 65.7979L60.0457 65.8119L60.0401 65.826L60.0345 65.8401L60.029 65.8542L60.0234 65.8682L60.0179 65.8822L60.0123 65.8963L60.0068 65.9103L60.0012 65.9243L59.9957 65.9382L59.9902 65.9522L59.9847 65.9662L59.9791 65.9801L59.9736 65.994L59.9681 66.0079L59.9626 66.0218L59.9571 66.0357L59.9517 66.0496L59.9462 66.0634L59.9407 66.0773L59.9352 66.0911L59.9298 66.1049L59.9243 66.1187L59.9189 66.1325L59.9134 66.1462L59.908 66.16L59.9025 66.1737L59.8972 66.1873C59.9888 66.1903 60.0743 66.1775 60.1513 66.1494C60.3127 66.0905 60.4741 65.9512 60.5887 65.6616C60.6804 65.4299 60.6848 65.2208 60.6193 65.0533C60.5855 64.9668 60.5294 64.8821 60.4439 64.8056Z" fill="#1C1C1C"/>
<path fill-rule="evenodd" clip-rule="evenodd" d="M61.6402 61.7822C61.7028 61.624 61.6253 61.445 61.4671 61.3824C61.3089 61.3197 61.1298 61.3973 61.0672 61.5555L61.0666 61.5572L61.0658 61.559L61.0651 61.5609L61.0643 61.5628L61.0635 61.5648L61.0627 61.5669L61.0619 61.5691L61.061 61.5713L61.06 61.5737L61.0591 61.5761L61.0581 61.5785L61.0571 61.5811L61.0561 61.5837L61.055 61.5864L61.0539 61.5892L61.0528 61.592L61.0516 61.5949L61.0505 61.5979L61.0492 61.601L61.048 61.6041L61.0467 61.6073L61.0454 61.6106L61.0441 61.6139L61.0428 61.6173L61.0414 61.6208L61.04 61.6244L61.0385 61.628L61.0371 61.6317L61.0356 61.6355L61.0341 61.6393L61.0325 61.6433L61.0309 61.6472L61.0293 61.6513L61.0277 61.6554L61.026 61.6596L61.0243 61.6639L61.0226 61.6682L61.0209 61.6726L61.0191 61.6771L61.0173 61.6816L61.0155 61.6862L61.0137 61.6909L61.0118 61.6956L61.0099 61.7004L61.008 61.7053L61.006 61.7102L61.004 61.7152L61.002 61.7203L61 61.7254L60.9979 61.7306L60.9959 61.7359L60.9937 61.7412L60.9916 61.7466L60.9894 61.7521L60.9873 61.7576L60.9851 61.7632L60.9828 61.7688L60.9806 61.7745L60.9783 61.7803L60.976 61.7862L60.9736 61.7921L60.9713 61.798L60.9689 61.8041L60.9665 61.8102L60.964 61.8163L60.9616 61.8225L60.9591 61.8288L60.9566 61.8351L60.954 61.8415L60.9515 61.848L60.9489 61.8545L60.9463 61.8611L60.9437 61.8678L60.941 61.8745L60.9383 61.8812L60.9356 61.888L60.9329 61.8949L60.9302 61.9019L60.9274 61.9089L60.9246 61.9159L60.9218 61.923L60.919 61.9302L60.9161 61.9374L60.9132 61.9447L60.9103 61.9521L60.9074 61.9595L60.9044 61.9669L60.9015 61.9744L60.8985 61.982L60.8954 61.9896L60.8924 61.9973L60.8893 62.0051L60.8863 62.0129L60.8832 62.0207L60.88 62.0286L60.8769 62.0366L60.8737 62.0446L60.8705 62.0527L60.8673 62.0608L60.8641 62.069L60.8608 62.0772L60.8575 62.0855L60.8542 62.0938L60.8509 62.1022L60.8476 62.1106L60.8442 62.1191L60.8408 62.1277L60.8374 62.1363L60.834 62.1449L60.8306 62.1536L60.8288 62.158C60.4793 62.0857 60.1807 62.1632 59.9461 62.3136C59.6689 62.4913 59.4961 62.7599 59.4179 62.9576C59.2679 63.3368 59.2817 63.6957 59.4289 63.9956C59.534 64.2098 59.7006 64.381 59.9002 64.5049L59.8968 64.5134L59.8912 64.5277L59.8855 64.542L59.8798 64.5563L59.8742 64.5706L59.8685 64.5849L59.8629 64.5992L59.8572 64.6135L59.8515 64.6278L59.8459 64.6421L59.8402 64.6565L59.8345 64.6708L59.8289 64.6851L59.8232 64.6995L59.8175 64.7138L59.8118 64.7281L59.8062 64.7425L59.8005 64.7568L59.7948 64.7712L59.7891 64.7855L59.7835 64.7999L59.7778 64.8142L59.7721 64.8286L59.7664 64.843L59.7607 64.8573L59.7551 64.8717L59.7494 64.886L59.7437 64.9004L59.738 64.9147L59.7323 64.9291L59.7266 64.9435L59.721 64.9578L59.7153 64.9722L59.7096 64.9865L59.7039 65.0009L59.6982 65.0152L59.6926 65.0296L59.6869 65.0439L59.6812 65.0583L59.6755 65.0726L59.6699 65.087L59.6642 65.1013L59.6585 65.1156L59.6529 65.13L59.6472 65.1443L59.6415 65.1586L59.6358 65.1729L59.6302 65.1872L59.6245 65.2016L59.6189 65.2159L59.6132 65.2302L59.6076 65.2444L59.6019 65.2587L59.5962 65.273L59.5906 65.2873L59.585 65.3016L59.5793 65.3158L59.5737 65.3301L59.568 65.3443L59.5624 65.3586L59.5568 65.3728L59.5511 65.387L59.5455 65.4012L59.5399 65.4154L59.5343 65.4296L59.5287 65.4438L59.523 65.458L59.5174 65.4722L59.5118 65.4864L59.5062 65.5005L59.5006 65.5147L59.495 65.5288L59.4894 65.5429L59.4839 65.557L59.4783 65.5711L59.4727 65.5852L59.4671 65.5993L59.4616 65.6134L59.456 65.6274L59.4504 65.6415L59.4449 65.6555L59.4393 65.6695L59.4338 65.6835L59.4283 65.6975L59.4227 65.7115L59.4172 65.7255L59.4117 65.7394L59.4062 65.7534L59.4007 65.7673L59.3952 65.7812L59.3897 65.7951L59.3842 65.809L59.3787 65.8229L59.3732 65.8367L59.3677 65.8506L59.3622 65.8644L59.3568 65.8782L59.3513 65.892L59.3459 65.9057L59.3404 65.9195L59.335 65.9332L59.3296 65.947L59.3241 65.9607L59.3224 65.9652C59.2202 65.8685 59.1528 65.7459 59.1123 65.6143C59.0442 65.3923 59.063 65.1758 59.1034 65.0738C59.1528 64.949 59.0916 64.8078 58.9668 64.7584C58.842 64.709 58.7007 64.7701 58.6513 64.895C58.5639 65.1159 58.5526 65.4476 58.6476 65.757C58.7244 66.0072 58.8769 66.2615 59.1356 66.4372L59.1343 66.4405L59.1292 66.4534L59.1241 66.4663L59.119 66.4791L59.1139 66.492L59.1089 66.5048L59.1038 66.5175L59.0988 66.5303L59.0937 66.543L59.0887 66.5556L59.0837 66.5683L59.0787 66.5809L59.0737 66.5935L59.0688 66.6061L59.0638 66.6186L59.0588 66.6311L59.0539 66.6436L59.049 66.6561L59.0441 66.6685L59.0392 66.6809L59.0343 66.6932L59.0294 66.7056L59.0245 66.7179L59.0197 66.7301L59.0148 66.7424L59.01 66.7546L59.0052 66.7668L59.0004 66.7789L58.9956 66.791L58.9908 66.8031L58.986 66.8151L58.9813 66.8271L58.9766 66.8391L58.9718 66.8511L58.9671 66.863L58.9624 66.8748L58.9577 66.8867L58.9531 66.8985L58.9484 66.9103L58.9438 66.922L58.9391 66.9337L58.9345 66.9454L58.9299 66.957L58.9253 66.9686L58.9207 66.9802L58.9162 66.9917L58.9116 67.0032L58.9071 67.0146L58.9026 67.026L58.8981 67.0374L58.8936 67.0488L58.8891 67.0601L58.8847 67.0713L58.8802 67.0825L58.8758 67.0937L58.8714 67.1049L58.867 67.116L58.8626 67.1271L58.8583 67.1381L58.8539 67.1491L58.8496 67.16L58.8453 67.171L58.841 67.1818L58.8367 67.1927L58.8324 67.2034L58.8281 67.2142L58.8239 67.2249L58.8197 67.2356L58.8155 67.2462L58.8113 67.2568L58.8071 67.2673L58.803 67.2778C58.7404 67.436 58.8179 67.6151 58.9761 67.6777C59.1343 67.7403 59.3133 67.6628 59.3759 67.5045L59.3801 67.494L59.3843 67.4835L59.3885 67.4729L59.3927 67.4623L59.3969 67.4516L59.4011 67.4409L59.4054 67.4302L59.4096 67.4194L59.4139 67.4085L59.4182 67.3977L59.4225 67.3868L59.4269 67.3758L59.4312 67.3648L59.4356 67.3538L59.44 67.3427L59.4444 67.3316L59.4488 67.3205L59.4532 67.3093L59.4577 67.298L59.4621 67.2868L59.4666 67.2755L59.4711 67.2641L59.4756 67.2528L59.4801 67.2414L59.4846 67.2299L59.4892 67.2184L59.4937 67.2069L59.4983 67.1953L59.5029 67.1837L59.5075 67.1721L59.5121 67.1604L59.5167 67.1487L59.5214 67.137L59.526 67.1252L59.5307 67.1134L59.5354 67.1016L59.5401 67.0897L59.5448 67.0778L59.5495 67.0658L59.5543 67.0539L59.559 67.0419L59.5638 67.0298L59.5686 67.0177L59.5734 67.0056L59.5782 66.9935L59.583 66.9813L59.5878 66.9691L59.5927 66.9569L59.5975 66.9446L59.6024 66.9323L59.6073 66.92L59.6121 66.9076L59.617 66.8952L59.622 66.8828L59.6269 66.8703L59.6318 66.8579L59.6368 66.8454L59.6417 66.8328L59.6467 66.8202L59.6517 66.8077L59.6567 66.795L59.6617 66.7824L59.6667 66.7697L59.6717 66.757L59.6768 66.7442L59.6818 66.7315L59.6869 66.7187L59.692 66.7059L59.6971 66.693L59.7021 66.6801L59.7073 66.6672L59.7115 66.6566C59.9137 66.689 60.1208 66.678 60.318 66.6061C60.6336 66.4909 60.8852 66.2335 61.0408 65.8405C61.1665 65.5227 61.1923 65.1837 61.0721 64.8763C60.9879 64.6608 60.8383 64.4773 60.6298 64.3357L60.6322 64.3297L60.6377 64.3157L60.6433 64.3017L60.6488 64.2878L60.6543 64.2738L60.6598 64.2599L60.6653 64.246L60.6708 64.2321L60.6763 64.2182L60.6818 64.2043L60.6873 64.1904L60.6928 64.1766L60.6983 64.1627L60.7037 64.1489L60.7092 64.1351L60.7146 64.1213L60.7201 64.1076L60.7255 64.0938L60.731 64.0801L60.7364 64.0664L60.7418 64.0527L60.7472 64.039L60.7526 64.0253L60.758 64.0117L60.7634 63.998L60.7688 63.9844L60.7742 63.9708L60.7796 63.9573L60.7849 63.9437L60.7903 63.9302L60.7956 63.9167L60.801 63.9032L60.8063 63.8897L60.8116 63.8763L60.8169 63.8628L60.8222 63.8494L60.8275 63.836L60.8328 63.8227L60.8381 63.8093L60.8434 63.796L60.8486 63.7827L60.8539 63.7694L60.8591 63.7561L60.8644 63.7429L60.8696 63.7297L60.8748 63.7165L60.88 63.7033L60.8852 63.6902L60.8904 63.6771L60.8956 63.664L60.9008 63.6509L60.9059 63.6379L60.9111 63.6249L60.9162 63.6119L60.9214 63.5989L60.9265 63.586L60.9316 63.573L60.9367 63.5601L60.9418 63.5473L60.9469 63.5344L60.9519 63.5216L60.957 63.5088L60.962 63.4961L60.9671 63.4834L60.9721 63.4707L60.9771 63.458L60.9821 63.4453L60.9871 63.4327L60.9921 63.4201L60.9971 63.4076L61.002 63.395L61.007 63.3825L61.0119 63.3701L61.0168 63.3576L61.0217 63.3452L61.0266 63.3328L61.0315 63.3205L61.0364 63.3081L61.0413 63.2959L61.0461 63.2836L61.051 63.2714L61.0558 63.2592L61.0606 63.247L61.0654 63.2349L61.0702 63.2228L61.075 63.2107L61.0797 63.1987L61.0845 63.1867L61.0892 63.1747L61.0939 63.1628L61.0986 63.1509L61.1033 63.139L61.108 63.1272L61.1127 63.1154L61.1173 63.1036L61.122 63.0919L61.1266 63.0802L61.1312 63.0685L61.1358 63.0569L61.1404 63.0453L61.145 63.0338L61.1495 63.0223L61.1541 63.0108L61.1586 62.9994L61.1631 62.988L61.1676 62.9766L61.1721 62.9653L61.1766 62.954L61.181 62.9427L61.1854 62.9315L61.1899 62.9203L61.1943 62.9092L61.1987 62.8981L61.203 62.887L61.2074 62.876L61.2112 62.8664C61.3328 62.9709 61.4034 63.0907 61.4424 63.2076C61.5101 63.4105 61.4873 63.6206 61.434 63.7553C61.3846 63.8801 61.4458 64.0214 61.5706 64.0708C61.6954 64.1202 61.8367 64.059 61.8861 63.9342C61.9778 63.7022 62.0105 63.3741 61.9036 63.0537C61.8216 62.8081 61.6601 62.5749 61.3967 62.3977L61.4001 62.3891L61.4035 62.3804L61.407 62.3717L61.4104 62.363L61.4138 62.3544L61.4172 62.3459L61.4205 62.3374L61.4239 62.3289L61.4272 62.3205L61.4305 62.3122L61.4338 62.3039L61.437 62.2957L61.4403 62.2875L61.4435 62.2794L61.4467 62.2713L61.4499 62.2633L61.453 62.2553L61.4561 62.2474L61.4592 62.2396L61.4623 62.2318L61.4654 62.224L61.4684 62.2164L61.4714 62.2087L61.4744 62.2012L61.4774 62.1936L61.4804 62.1862L61.4833 62.1788L61.4862 62.1714L61.4891 62.1641L61.4919 62.1569L61.4948 62.1497L61.4976 62.1426L61.5004 62.1356L61.5032 62.1286L61.5059 62.1216L61.5086 62.1148L61.5113 62.1079L61.514 62.1012L61.5167 62.0945L61.5193 62.0878L61.5219 62.0813L61.5245 62.0747L61.527 62.0683L61.5296 62.0619L61.5321 62.0555L61.5345 62.0493L61.537 62.043L61.5394 62.0369L61.5418 62.0308L61.5442 62.0248L61.5466 62.0188L61.5489 62.0129L61.5512 62.007L61.5535 62.0013L61.5558 61.9956L61.558 61.9899L61.5602 61.9843L61.5624 61.9788L61.5646 61.9733L61.5667 61.9679L61.5688 61.9626L61.5709 61.9573L61.573 61.9521L61.575 61.947L61.577 61.9419L61.579 61.9369L61.5809 61.932L61.5829 61.9271L61.5848 61.9223L61.5866 61.9176L61.5885 61.9129L61.5903 61.9083L61.5921 61.9038L61.5939 61.8993L61.5956 61.8949L61.5973 61.8906L61.599 61.8863L61.6007 61.8821L61.6023 61.878L61.6039 61.874L61.6055 61.87L61.607 61.8661L61.6085 61.8622L61.61 61.8585L61.6115 61.8547L61.6129 61.8511L61.6144 61.8475L61.6157 61.8441L61.6171 61.8406L61.6184 61.8373L61.6197 61.834L61.621 61.8308L61.6222 61.8277L61.6234 61.8246L61.6246 61.8216L61.6258 61.8187L61.6269 61.8159L61.628 61.8131L61.6291 61.8104L61.6301 61.8078L61.6311 61.8052L61.6321 61.8028L61.633 61.8004L61.6339 61.7981L61.6348 61.7958L61.6357 61.7936L61.6365 61.7915L61.6373 61.7895L61.6381 61.7876L61.6388 61.7857L61.6395 61.7839L61.6402 61.7822ZM60.6457 62.6209C60.463 62.602 60.3202 62.6513 60.2084 62.7229C60.0354 62.8338 59.9196 63.0112 59.87 63.1364C59.7645 63.403 59.7851 63.6179 59.8653 63.7814C59.9135 63.8797 59.9877 63.9682 60.0835 64.0415L60.0868 64.0332L60.0924 64.0192L60.0979 64.0053L60.1034 63.9914L60.1088 63.9776L60.1143 63.9637L60.1198 63.9498L60.1253 63.936L60.1308 63.9222L60.1362 63.9084L60.1417 63.8946L60.1471 63.8808L60.1526 63.8671L60.158 63.8534L60.1634 63.8396L60.1688 63.8259L60.1743 63.8123L60.1797 63.7986L60.1851 63.7849L60.1905 63.7713L60.1958 63.7577L60.2012 63.7441L60.2066 63.7305L60.2119 63.717L60.2173 63.7035L60.2226 63.6899L60.228 63.6765L60.2333 63.663L60.2386 63.6495L60.244 63.6361L60.2493 63.6227L60.2546 63.6093L60.2599 63.5959L60.2651 63.5826L60.2704 63.5693L60.2757 63.556L60.2809 63.5427L60.2862 63.5294L60.2914 63.5162L60.2966 63.503L60.3019 63.4898L60.3071 63.4766L60.3123 63.4635L60.3175 63.4504L60.3226 63.4373L60.3278 63.4242L60.333 63.4112L60.3381 63.3981L60.3433 63.3851L60.3484 63.3722L60.3535 63.3592L60.3586 63.3463L60.3637 63.3334L60.3688 63.3206L60.3739 63.3077L60.379 63.2949L60.384 63.2821L60.3891 63.2694L60.3941 63.2566L60.3991 63.2439L60.4041 63.2313L60.4092 63.2186L60.4141 63.206L60.4191 63.1934L60.4241 63.1808L60.4291 63.1683L60.434 63.1558L60.4389 63.1433L60.4439 63.1309L60.4488 63.1185L60.4537 63.1061L60.4586 63.0937L60.4634 63.0814L60.4683 63.0691L60.4731 63.0569L60.478 63.0447L60.4828 63.0325L60.4876 63.0203L60.4924 63.0082L60.4972 62.9961L60.502 62.984L60.5067 62.972L60.5115 62.96L60.5162 62.948L60.521 62.9361L60.5257 62.9242L60.5304 62.9123L60.535 62.9005L60.5397 62.8887L60.5444 62.8769L60.549 62.8652L60.5536 62.8535L60.5582 62.8418L60.5628 62.8302L60.5674 62.8186L60.572 62.8071L60.5766 62.7955L60.5811 62.7841L60.5856 62.7726L60.5901 62.7612L60.5946 62.7499L60.5991 62.7385L60.6036 62.7272L60.608 62.716L60.6125 62.7048L60.6169 62.6936L60.6213 62.6825L60.6257 62.6714L60.6301 62.6603L60.6344 62.6493L60.6388 62.6383L60.6431 62.6274L60.6457 62.6209ZM60.4439 64.8056L60.4415 64.8116L60.4358 64.8259L60.4302 64.8402L60.4245 64.8545L60.4189 64.8689L60.4132 64.8832L60.4075 64.8975L60.4018 64.9118L60.3962 64.9262L60.3905 64.9405L60.3848 64.9549L60.3791 64.9692L60.3735 64.9836L60.3678 64.9979L60.3621 65.0123L60.3564 65.0266L60.3508 65.041L60.3451 65.0553L60.3394 65.0697L60.3337 65.084L60.328 65.0984L60.3223 65.1128L60.3167 65.1271L60.311 65.1415L60.3053 65.1558L60.2996 65.1702L60.2939 65.1845L60.2883 65.1989L60.2826 65.2133L60.2769 65.2276L60.2712 65.242L60.2655 65.2563L60.2599 65.2707L60.2542 65.285L60.2485 65.2993L60.2428 65.3137L60.2372 65.328L60.2315 65.3424L60.2258 65.3567L60.2202 65.371L60.2145 65.3853L60.2088 65.3996L60.2032 65.414L60.1975 65.4283L60.1918 65.4426L60.1862 65.4569L60.1805 65.4712L60.1749 65.4855L60.1692 65.4997L60.1636 65.514L60.1579 65.5283L60.1523 65.5425L60.1466 65.5568L60.141 65.571L60.1354 65.5853L60.1297 65.5995L60.1241 65.6137L60.1185 65.628L60.1129 65.6422L60.1072 65.6564L60.1016 65.6706L60.096 65.6847L60.0904 65.6989L60.0848 65.7131L60.0792 65.7272L60.0736 65.7414L60.068 65.7555L60.0624 65.7696L60.0568 65.7838L60.0513 65.7979L60.0457 65.8119L60.0401 65.826L60.0345 65.8401L60.029 65.8542L60.0234 65.8682L60.0179 65.8822L60.0123 65.8963L60.0068 65.9103L60.0012 65.9243L59.9957 65.9382L59.9902 65.9522L59.9847 65.9662L59.9791 65.9801L59.9736 65.994L59.9681 66.0079L59.9626 66.0218L59.9571 66.0357L59.9517 66.0496L59.9462 66.0634L59.9407 66.0773L59.9352 66.0911L59.9298 66.1049L59.9243 66.1187L59.9189 66.1325L59.9134 66.1462L59.908 66.16L59.9025 66.1737L59.8972 66.1873C59.9888 66.1903 60.0743 66.1775 60.1513 66.1494C60.3127 66.0905 60.4741 65.9512 60.5887 65.6616C60.6804 65.4299 60.6848 65.2208 60.6193 65.0533C60.5855 64.9668 60.5294 64.8821 60.4439 64.8056Z" fill="black" fill-opacity="0.2"/>
</g>
</g>
<defs>
<filter id="filter0_d_1351_52002" x="-6" y="-6" width="124.812" height="124.812" filterUnits="userSpaceOnUse" color-interpolation-filters="sRGB">
<feFlood flood-opacity="0" result="BackgroundImageFix"/>
<feColorMatrix in="SourceAlpha" type="matrix" values="0 0 0 0 0 0 0 0 0 0 0 0 0 0 0 0 0 0 127 0" result="hardAlpha"/>
<feOffset dx="4" dy="2"/>
<feGaussianBlur stdDeviation="6"/>
<feComposite in2="hardAlpha" operator="out"/>
<feColorMatrix type="matrix" values="0 0 0 0 0.380392 0 0 0 0 0.447059 0 0 0 0 0.952941 0 0 0 0.15 0"/>
<feBlend mode="normal" in2="BackgroundImageFix" result="effect1_dropShadow_1351_52002"/>
<feBlend mode="normal" in="SourceGraphic" in2="effect1_dropShadow_1351_52002" result="shape"/>
</filter>
<clipPath id="clip0_1351_52002">
<rect x="40.5015" y="26.9116" width="42.3709" height="42.3709" rx="7.06182" transform="rotate(21.5882 40.5015 26.9116)" fill="white"/>
</clipPath>
</defs>
</svg>
