<svg width="67" height="96" viewBox="0 0 67 96" fill="none" xmlns="http://www.w3.org/2000/svg">
<g filter="url(#filter0_d_1351_52074)">
<rect x="5" y="21.7891" width="64.5993" height="64.5993" rx="17.618" transform="rotate(-13.2356 5 21.7891)" fill="#F5F8FF"/>
<path d="M45.2606 33.4347L35.0258 35.8419C34.9351 35.8633 34.8466 35.8921 34.7635 35.9343C34.0063 36.3191 32.7861 37.3271 33.1235 38.7614C33.4548 40.17 36.0736 51.3043 37.6154 57.8596C37.8011 58.6489 38.5907 59.1351 39.38 58.9495L49.2097 56.6375C49.999 56.4519 50.4884 55.6615 50.3027 54.8722L47.4644 42.8044M45.2606 33.4347L47.4644 42.8044M45.2606 33.4347C45.2973 33.426 45.7681 33.3153 47.3568 32.9416C49.3428 32.4745 50.1144 34.7651 50.251 34.8507C50.3406 34.9068 51.0435 37.9924 51.5674 40.3562C51.7408 41.1388 51.2517 41.9137 50.4714 42.0972L47.4644 42.8044M37.4828 42.4447L40.5721 41.7181L43.6613 40.9915M38.5847 47.1296L41.674 46.403L44.7632 45.6764M39.6604 51.7029L45.8389 50.2497" stroke="#1C1C1C" stroke-width="1.46817" stroke-linecap="round"/>
<path d="M45.2606 33.4347L35.0258 35.8419C34.9351 35.8633 34.8466 35.8921 34.7635 35.9343C34.0063 36.3191 32.7861 37.3271 33.1235 38.7614C33.4548 40.17 36.0736 51.3043 37.6154 57.8596C37.8011 58.6489 38.5907 59.1351 39.38 58.9495L49.2097 56.6375C49.999 56.4519 50.4884 55.6615 50.3027 54.8722L47.4644 42.8044M45.2606 33.4347L47.4644 42.8044M45.2606 33.4347C45.2973 33.426 45.7681 33.3153 47.3568 32.9416C49.3428 32.4745 50.1144 34.7651 50.251 34.8507C50.3406 34.9068 51.0435 37.9924 51.5674 40.3562C51.7408 41.1388 51.2517 41.9137 50.4714 42.0972L47.4644 42.8044M37.4828 42.4447L40.5721 41.7181L43.6613 40.9915M38.5847 47.1296L41.674 46.403L44.7632 45.6764M39.6604 51.7029L45.8389 50.2497" stroke="black" stroke-opacity="0.2" stroke-width="1.46817" stroke-linecap="round"/>
</g>
<defs>
<filter id="filter0_d_1351_52074" x="-3" y="-3.00146" width="101.674" height="101.674" filterUnits="userSpaceOnUse" color-interpolation-filters="sRGB">
<feFlood flood-opacity="0" result="BackgroundImageFix"/>
<feColorMatrix in="SourceAlpha" type="matrix" values="0 0 0 0 0 0 0 0 0 0 0 0 0 0 0 0 0 0 127 0" result="hardAlpha"/>
<feOffset dx="4" dy="2"/>
<feGaussianBlur stdDeviation="6"/>
<feComposite in2="hardAlpha" operator="out"/>
<feColorMatrix type="matrix" values="0 0 0 0 0.380392 0 0 0 0 0.447059 0 0 0 0 0.952941 0 0 0 0.15 0"/>
<feBlend mode="normal" in2="BackgroundImageFix" result="effect1_dropShadow_1351_52074"/>
<feBlend mode="normal" in="SourceGraphic" in2="effect1_dropShadow_1351_52074" result="shape"/>
</filter>
</defs>
</svg>
