<svg width="23" height="22" viewBox="0 0 23 22" fill="none" xmlns="http://www.w3.org/2000/svg">
    <rect width="23" height="22" rx="4" fill="white" />
    <path
        d="M12.7906 10.6742L7.2561 9.69922V16.9037C7.25617 16.982 7.27165 17.0595 7.30166 17.1318C7.33167 17.204 7.37563 17.2697 7.43102 17.325C7.48641 17.3803 7.55215 17.4242 7.62449 17.454C7.69682 17.4839 7.77434 17.4993 7.8526 17.4992H17.4026C17.481 17.4994 17.5586 17.4842 17.631 17.4543C17.7035 17.4245 17.7693 17.3807 17.8248 17.3254C17.8803 17.2701 17.9244 17.2043 17.9544 17.132C17.9845 17.0596 18 16.9821 18.0001 16.9037V14.2492L12.7906 10.6742Z"
        fill="#185C37" />
    <path
        d="M12.7905 4.5H7.85248C7.77421 4.49993 7.6967 4.51529 7.62436 4.54518C7.55203 4.57507 7.48629 4.61891 7.4309 4.67421C7.37551 4.72951 7.33155 4.79517 7.30154 4.86746C7.27153 4.93974 7.25605 5.01723 7.25598 5.0955V7.75L12.7905 11L15.721 11.975L18 11V7.75L12.7905 4.5Z"
        fill="#21A366" />
    <path d="M7.25598 7.75H12.7905V11H7.25598V7.75Z" fill="#107C41" />
    <path opacity="0.1"
        d="M11.2171 7.10156H7.2561V15.2266H11.2171C11.3749 15.2258 11.5261 15.1628 11.6379 15.0514C11.7496 14.9399 11.8129 14.7889 11.8141 14.6311V7.69706C11.8129 7.53923 11.7496 7.38822 11.6379 7.27676C11.5261 7.16529 11.3749 7.10235 11.2171 7.10156Z"
        fill="black" />
    <path opacity="0.2"
        d="M10.8916 7.42578H7.2561V15.5508H10.8916C11.0494 15.55 11.2006 15.4871 11.3124 15.3756C11.4241 15.2641 11.4874 15.1131 11.4886 14.9553V8.02128C11.4874 7.86345 11.4241 7.71244 11.3124 7.60098C11.2006 7.48951 11.0494 7.42657 10.8916 7.42578Z"
        fill="black" />
    <path opacity="0.2"
        d="M10.8916 7.42578H7.2561V14.9008H10.8916C11.0494 14.9 11.2006 14.8371 11.3124 14.7256C11.4241 14.6141 11.4874 14.4631 11.4886 14.3053V8.02128C11.4874 7.86345 11.4241 7.71244 11.3124 7.60098C11.2006 7.48951 11.0494 7.42657 10.8916 7.42578Z"
        fill="black" />
    <path opacity="0.2"
        d="M10.5661 7.42578H7.2561V14.9008H10.5661C10.7239 14.9 10.8751 14.8371 10.9869 14.7256C11.0986 14.6141 11.1619 14.4631 11.1631 14.3053V8.02128C11.1619 7.86345 11.0986 7.71244 10.9869 7.60098C10.8751 7.48951 10.7239 7.42657 10.5661 7.42578Z"
        fill="black" />
    <path
        d="M4.597 7.42578H10.566C10.7241 7.42565 10.8758 7.4883 10.9878 7.59996C11.0997 7.71163 11.1627 7.86317 11.163 8.02128V13.9803C11.1627 14.1384 11.0997 14.2899 10.9878 14.4016C10.8758 14.5133 10.7241 14.5759 10.566 14.5758H4.597C4.51869 14.5759 4.44112 14.5606 4.36873 14.5307C4.29634 14.5009 4.23054 14.4571 4.17509 14.4017C4.11965 14.3464 4.07565 14.2808 4.04561 14.2084C4.01556 14.1361 4.00007 14.0586 4 13.9803V8.02128C4.00007 7.94297 4.01556 7.86544 4.04561 7.79313C4.07565 7.72081 4.11965 7.65512 4.17509 7.59982C4.23054 7.54451 4.29634 7.50068 4.36873 7.47081C4.44112 7.44095 4.51869 7.42565 4.597 7.42578Z"
        fill="url(#paint0_linear_845_29723)" />
    <path
        d="M5.8501 12.9355L7.1056 10.9935L5.9556 9.0625H6.8791L7.5066 10.299C7.5646 10.416 7.6066 10.503 7.6256 10.561H7.6341C7.6751 10.467 7.7186 10.3765 7.7641 10.288L8.4351 9.0645H9.2851L8.1056 10.9845L9.3151 12.937H8.4106L7.6856 11.5815C7.65193 11.5232 7.62333 11.4622 7.6001 11.399H7.5881C7.56696 11.4605 7.53877 11.5194 7.5041 11.5745L6.7576 12.9355H5.8501Z"
        fill="white" />
    <path
        d="M17.403 4.5H12.7905V7.75H18V5.0955C18 5.01719 17.9845 4.93966 17.9544 4.86734C17.9244 4.79503 17.8804 4.72934 17.8249 4.67403C17.7695 4.61873 17.7037 4.5749 17.6313 4.54503C17.5589 4.51517 17.4813 4.49987 17.403 4.5Z"
        fill="#33C481" />
    <path d="M12.7905 11H18V14.25H12.7905V11Z" fill="#107C41" />
    <defs>
        <linearGradient id="paint0_linear_845_29723" x1="5.247" y1="6.95778" x2="9.916" y2="15.0438"
            gradientUnits="userSpaceOnUse">
            <stop stop-color="#18884F" />
            <stop offset="0.5" stop-color="#117E43" />
            <stop offset="1" stop-color="#0B6631" />
        </linearGradient>
    </defs>
</svg>